<svg width="20" height="20" viewBox="0 0 20 20" fill="none" xmlns="http://www.w3.org/2000/svg">
<path opacity="0.4" d="M18.3327 13.2832C18.3327 15.6082 16.466 17.4915 14.141 17.4998H14.1327H5.87435C3.55768 17.4998 1.66602 15.6248 1.66602 13.2998V13.2915C1.66602 13.2915 1.67102 9.60317 1.67768 7.74817C1.67852 7.39984 2.07852 7.20484 2.35102 7.4215C4.33102 8.99234 7.87185 11.8565 7.91602 11.894C8.50768 12.3682 9.25768 12.6357 10.0243 12.6357C10.791 12.6357 11.541 12.3682 12.1327 11.8848C12.1768 11.8557 15.6385 9.07734 17.6485 7.48067C17.9218 7.26317 18.3235 7.45817 18.3243 7.80567C18.3327 9.6465 18.3327 13.2832 18.3327 13.2832" fill="#FB9E30"/>
<path d="M17.8967 4.72785C17.1751 3.36785 15.7551 2.49951 14.1917 2.49951H5.87507C4.31173 2.49951 2.89173 3.36785 2.17007 4.72785C2.0084 5.03201 2.08507 5.41118 2.35423 5.62618L8.54173 10.5753C8.97507 10.9253 9.50007 11.0995 10.0251 11.0995C10.0284 11.0995 10.0309 11.0995 10.0334 11.0995C10.0359 11.0995 10.0392 11.0995 10.0417 11.0995C10.5667 11.0995 11.0917 10.9253 11.5251 10.5753L17.7126 5.62618C17.9817 5.41118 18.0584 5.03201 17.8967 4.72785" fill="#FB9E30"/>
</svg>
