<svg width="80" height="80" viewBox="0 0 80 80" fill="none" xmlns="http://www.w3.org/2000/svg">
<rect width="80" height="80" rx="20" fill="#DCE3F5"/>
<path d="M37.5438 30.7737C37.4174 30.7665 37.2989 30.7104 37.2132 30.6173C37.1274 30.5243 37.0812 30.4015 37.0844 30.275C37.0914 30.0841 37.1566 29.9 37.2712 29.7472C37.3858 29.5944 37.5444 29.4802 37.7256 29.42C38.2331 29.2485 38.7753 29.2061 39.3032 29.2964C39.8312 29.3868 40.3284 29.6071 40.75 29.9375C40.7948 29.9797 40.8309 30.0304 40.8561 30.0865C40.8814 30.1427 40.8953 30.2033 40.8971 30.2648C40.8989 30.3264 40.8886 30.3877 40.8668 30.4452C40.8449 30.5028 40.8119 30.5555 40.7697 30.6003C40.7275 30.6451 40.6768 30.6812 40.6207 30.7064C40.5645 30.7317 40.5039 30.7456 40.4424 30.7474C40.3808 30.7493 40.3195 30.7389 40.2619 30.7171C40.2044 30.6952 40.1517 30.6622 40.1069 30.62C39.672 30.2942 39.1322 30.1403 38.5909 30.1878C38.3831 30.1771 38.1769 30.2304 38.0003 30.3406C38.0001 30.3995 37.988 30.4576 37.9647 30.5116C37.9414 30.5657 37.9074 30.6144 37.8647 30.6549C37.822 30.6954 37.7716 30.7268 37.7164 30.7472C37.6612 30.7676 37.6025 30.7767 37.5438 30.7737Z" fill="#1E5BA6"/>
<path d="M33.64 39.8553C33.318 39.8756 32.9951 39.8312 32.6905 39.7248C32.3858 39.6184 32.1056 39.4521 31.8662 39.2356C31.8271 39.1881 31.7977 39.1333 31.7797 39.0745C31.7617 39.0156 31.7555 38.9537 31.7614 38.8924C31.7674 38.8311 31.7853 38.7716 31.8142 38.7173C31.8431 38.6629 31.8825 38.6148 31.93 38.5756C31.9775 38.5365 32.0323 38.5071 32.0912 38.4891C32.1501 38.4711 32.2119 38.4649 32.2732 38.4708C32.3345 38.4767 32.394 38.4947 32.4484 38.5236C32.5027 38.5525 32.5509 38.5919 32.59 38.6394C32.8951 38.8556 33.2676 38.9554 33.64 38.9206C33.9396 38.9395 34.2399 38.8972 34.5226 38.7963C34.8053 38.6954 35.0645 38.538 35.2844 38.3338C35.3223 38.283 35.3701 38.2405 35.425 38.2088C35.4798 38.1771 35.5405 38.1568 35.6034 38.1492C35.6663 38.1415 35.7301 38.1467 35.7909 38.1645C35.8517 38.1822 35.9083 38.212 35.9572 38.2523C36.0062 38.2925 36.0465 38.3422 36.0757 38.3984C36.1049 38.4546 36.1224 38.5161 36.1272 38.5793C36.1319 38.6425 36.1238 38.706 36.1034 38.7659C36.0829 38.8259 36.0505 38.8811 36.0081 38.9281C35.7033 39.2438 35.3342 39.4903 34.9257 39.6507C34.5173 39.8112 34.0791 39.8819 33.6409 39.8581L33.64 39.8553Z" fill="#1E5BA6"/>
<path d="M33.3437 36.7194C33.0211 36.7177 32.7113 36.593 32.4775 36.3706C32.3404 36.2587 32.2375 36.1105 32.1806 35.9429C32.1238 35.7753 32.1152 35.5951 32.1559 35.4228C32.1916 35.3114 32.2677 35.2173 32.3692 35.1591C32.4707 35.1009 32.5903 35.0828 32.7045 35.1083C32.8187 35.1338 32.9192 35.2011 32.9863 35.2969C33.0534 35.3927 33.0823 35.5102 33.0672 35.6263C33.1048 35.6809 33.1562 35.7246 33.2162 35.7528C33.2518 35.7708 33.2907 35.7809 33.3305 35.7827C33.3702 35.7845 33.4099 35.7778 33.4469 35.7631C33.5614 35.7244 33.6865 35.7313 33.7959 35.7826C33.9054 35.8339 33.9909 35.9254 34.0345 36.0382C34.078 36.151 34.0763 36.2762 34.0297 36.3878C33.9831 36.4994 33.8952 36.5886 33.7844 36.6369C33.6439 36.6914 33.4945 36.7194 33.3437 36.7194Z" fill="#1E5BA6"/>
<path d="M42.2116 28.3531C42.1322 28.353 42.0541 28.3326 41.9847 28.2941C40.5147 27.4747 36.5181 27.6463 35.9913 28.2059C35.9038 28.2858 35.7893 28.3296 35.6709 28.3285C35.5524 28.3274 35.4388 28.2815 35.3528 28.2C35.2668 28.1186 35.2148 28.0076 35.2074 27.8893C35.1999 27.7711 35.2375 27.6545 35.3125 27.5628C36.25 26.5691 40.7162 26.5128 42.4441 27.4747C42.5349 27.5252 42.6064 27.6044 42.6472 27.7C42.6881 27.7955 42.6961 27.9019 42.6699 28.0025C42.6437 28.1031 42.5849 28.1921 42.5026 28.2555C42.4203 28.319 42.3192 28.3533 42.2153 28.3531H42.2116Z" fill="#1E5BA6"/>
<path d="M30.3906 28.3531C30.314 28.3533 30.2386 28.3342 30.1713 28.2978C28.7669 27.6768 27.1814 27.6019 25.7247 28.0878C25.6141 28.1389 25.488 28.1449 25.373 28.1046C25.2581 28.0643 25.1633 27.9809 25.1089 27.8719C25.0544 27.763 25.0445 27.6371 25.0812 27.5209C25.1179 27.4048 25.1984 27.3075 25.3056 27.2497C27.0337 26.6208 28.9403 26.7004 30.61 27.4709C30.7021 27.5201 30.7751 27.5986 30.8175 27.694C30.8599 27.7894 30.8692 27.8962 30.844 27.9975C30.8188 28.0988 30.7605 28.1888 30.6784 28.2532C30.5963 28.3176 30.495 28.3528 30.3906 28.3531Z" fill="#1E5BA6"/>
<path d="M27.0625 30.7812C26.936 30.774 26.8173 30.7178 26.7316 30.6245C26.6458 30.5312 26.5997 30.4082 26.6031 30.2816C26.6102 30.0907 26.6754 29.9065 26.79 29.7537C26.9046 29.6009 27.0631 29.4868 27.2444 29.4266C27.7519 29.2537 28.2945 29.2101 28.8231 29.2998C29.3517 29.3895 29.8495 29.6097 30.2716 29.9403C30.3621 30.0256 30.415 30.1433 30.4187 30.2676C30.4224 30.3919 30.3765 30.5126 30.2912 30.6031C30.206 30.6936 30.0882 30.7465 29.9639 30.7502C29.8396 30.7539 29.7189 30.7081 29.6284 30.6228C29.1918 30.3007 28.6534 30.1472 28.1125 30.1906C27.9045 30.1804 27.6983 30.2333 27.5209 30.3425C27.5215 30.402 27.5099 30.4609 27.4869 30.5157C27.4638 30.5705 27.4297 30.62 27.3867 30.6611C27.3438 30.7023 27.2928 30.7341 27.2371 30.7548C27.1813 30.7755 27.1219 30.7845 27.0625 30.7812Z" fill="#1E5BA6"/>
<path d="M49.1219 35.0094C49.0903 35.0095 49.0589 35.006 49.0281 34.9991C48.9066 34.9736 48.8001 34.9009 48.7321 34.7971C48.6641 34.6932 48.6401 34.5666 48.6653 34.445C48.7922 33.975 49.083 33.566 49.4851 33.2917C49.8873 33.0175 50.3743 32.8962 50.8581 32.9497C50.9193 32.9571 50.9783 32.9764 51.032 33.0066C51.0856 33.0369 51.1328 33.0773 51.1708 33.1258C51.2088 33.1742 51.2369 33.2297 51.2534 33.289C51.27 33.3483 51.2747 33.4103 51.2673 33.4714C51.26 33.5325 51.2406 33.5916 51.2104 33.6452C51.1802 33.6989 51.1397 33.7461 51.0912 33.7841C51.0428 33.8221 50.9873 33.8501 50.928 33.8667C50.8687 33.8833 50.8068 33.888 50.7456 33.8806C50.495 33.8574 50.2438 33.9194 50.0327 34.0565C49.8216 34.1936 49.6629 34.3978 49.5822 34.6362C49.5602 34.7419 49.5023 34.8368 49.4185 34.9048C49.3346 34.9727 49.2298 35.0097 49.1219 35.0094Z" fill="#1E5BA6"/>
<path d="M40.6187 31.1656V31.9437C40.6175 32.1746 40.5253 32.3957 40.362 32.5589C40.1988 32.7221 39.9777 32.8144 39.7469 32.8156H39.4844C39.2535 32.8144 39.0325 32.7221 38.8692 32.5589C38.706 32.3957 38.6137 32.1746 38.6125 31.9437V31.1656C38.6123 31.0511 38.6346 30.9376 38.6784 30.8317C38.7221 30.7258 38.7863 30.6296 38.8673 30.5486C38.9483 30.4676 39.0445 30.4033 39.1504 30.3596C39.2563 30.3159 39.3698 30.2935 39.4844 30.2937H39.7469C39.8614 30.2935 39.9749 30.3159 40.0808 30.3596C40.1867 30.4033 40.2829 30.4676 40.3639 30.5486C40.4449 30.6296 40.5092 30.7258 40.5529 30.8317C40.5966 30.9376 40.619 31.0511 40.6187 31.1656Z" fill="#1E5BA6"/>
<path d="M30.2406 31.175V31.9531C30.2394 32.184 30.1471 32.405 29.9839 32.5683C29.8207 32.7315 29.5996 32.8238 29.3688 32.825H29.1063C28.8754 32.8238 28.6543 32.7315 28.4911 32.5683C28.3279 32.405 28.2356 32.184 28.2344 31.9531V31.175C28.2341 31.0604 28.2565 30.9469 28.3002 30.8411C28.344 30.7352 28.4082 30.6389 28.4892 30.5579C28.5702 30.4769 28.6664 30.4127 28.7723 30.369C28.8782 30.3253 28.9917 30.3029 29.1063 30.3031H29.3688C29.4833 30.3029 29.5968 30.3253 29.7027 30.369C29.8086 30.4127 29.9048 30.4769 29.9858 30.5579C30.0668 30.6389 30.131 30.7352 30.1748 30.8411C30.2185 30.9469 30.2409 31.0604 30.2406 31.175Z" fill="#1E5BA6"/>
<path d="M57.9156 58.925C57.0822 55.9775 55.2323 53.4203 52.6937 51.7062C52.0812 51.6303 51.464 51.5989 50.8469 51.6125C49.6769 51.6096 48.5082 51.691 47.35 51.8562C46.8173 51.9156 46.2905 52.0191 45.775 52.1656C44.4484 52.4787 41.4841 53.3375 39.5453 53.9056C40.0549 56.9191 40.2028 59.9827 39.9859 63.0312C39.9608 63.1329 39.9024 63.2232 39.82 63.2877C39.7376 63.3523 39.6359 63.3874 39.5312 63.3875C39.4933 63.3874 39.4555 63.3827 39.4187 63.3734C39.2992 63.3435 39.1963 63.2676 39.1323 63.1624C39.0682 63.0571 39.0482 62.9308 39.0766 62.8109C39.2486 59.925 39.1037 57.029 38.6444 54.1747C37.944 54.3896 37.2323 54.5655 36.5125 54.7016C36.4084 54.7016 35.6191 54.4203 34.5794 54.0397C33.4832 56.6771 32.6662 59.4221 32.1419 62.2297C32.1419 62.354 32.0925 62.4732 32.0046 62.5611C31.9167 62.649 31.7974 62.6984 31.6731 62.6984C31.5488 62.6984 31.4296 62.649 31.3417 62.5611C31.2538 62.4732 31.2044 62.354 31.2044 62.2297C31.7184 59.3077 32.5541 56.4516 33.6962 53.7134C31.7519 52.9897 29.3969 52.085 28.6731 51.7953C25.9044 53.7176 23.6455 56.2854 22.0919 59.2766C20.9387 61.4797 21.8856 62.7359 22.8981 63.4016C24.9231 64.7328 29.8075 66.1578 37.4294 66.1578L39.67 66.1109C43.3254 65.9909 46.9513 65.4123 50.4625 64.3887C52.1537 63.9421 53.7774 63.2711 55.2906 62.3937C56.5 61.7066 58.3187 60.65 57.9156 58.925Z" fill="#1E5BA6"/>
<path d="M25.0375 23.8813C24.8212 25.6954 24.8813 27.5319 25.2156 29.3281C25.3469 30.2844 25.4781 31.2781 25.5156 32.2719C25.7031 37.7375 26.7437 41.3469 28.7969 43.6156C29.3159 44.1786 29.9126 44.6647 30.5687 45.0594C29.6597 45.976 29.0486 47.1458 28.8156 48.4156C28.6428 49.199 28.6333 50.0096 28.7875 50.7969L28.9 50.8719C29.3687 51.0716 32.0247 52.0906 34.1144 52.8631C34.2097 52.6893 34.3279 52.5292 34.4659 52.3869C34.5107 52.3447 34.5634 52.3117 34.621 52.2898C34.6786 52.2679 34.7399 52.2576 34.8014 52.2594C34.863 52.2613 34.9236 52.2752 34.9797 52.3005C35.0359 52.3257 35.0865 52.3618 35.1287 52.4066C35.171 52.4514 35.204 52.5041 35.2258 52.5616C35.2477 52.6192 35.258 52.6805 35.2562 52.7421C35.2543 52.8036 35.2404 52.8642 35.2152 52.9203C35.1899 52.9765 35.1539 53.0272 35.1091 53.0694C35.0741 53.1081 35.0428 53.1498 35.0153 53.1941C35.7587 53.4659 36.3475 53.675 36.5997 53.75C36.7309 53.7313 38.2244 53.3141 38.4053 53.2606C38.3728 53.1628 38.3304 53.0686 38.2787 52.9794C38.2254 52.8759 38.2125 52.7563 38.2425 52.6438C38.2725 52.5313 38.3433 52.4341 38.4411 52.3709C38.5389 52.3077 38.6567 52.2832 38.7715 52.3021C38.8864 52.321 38.9901 52.382 39.0625 52.4731C39.161 52.6382 39.2403 52.8141 39.2987 52.9972C41.9011 52.1706 44.5446 51.4799 47.2188 50.9281C48.4195 50.7478 49.6327 50.6632 50.8469 50.675C51.657 50.6718 52.4643 50.7707 53.2497 50.9694C53.5241 50.5206 53.696 50.0167 53.7531 49.4938C53.8937 47.9094 52.7406 45.6406 51.7094 44.1781C50.5841 42.4657 48.8468 41.2482 46.8531 40.775C47.3071 40.0942 47.7022 39.376 48.0344 38.6281C48.3166 38.8074 48.6273 38.9374 48.9531 39.0125C51.1281 39.5 52.9281 37.5594 53.425 35.4125C53.5941 34.745 53.6206 34.0492 53.5026 33.3708C53.3847 32.6923 53.1251 32.0463 52.7406 31.475C54.4281 27.425 53.4062 22.0531 53.0406 20.4781C52.1312 16.5688 47.2656 11.0656 39.3062 11.0656C30.85 11.0656 25.825 14.5906 24.3625 21.5375C24.1469 22.5781 24.2406 23.2719 24.6437 23.6563C24.758 23.7577 24.8921 23.8343 25.0375 23.8813ZM26.0125 23.7688C26.2534 23.6558 26.4627 23.4851 26.6219 23.2719C26.8375 22.9344 27.0906 22.7938 27.2031 22.8125C27.2969 22.8219 27.3719 23 27.3906 23.0563C27.4718 23.3159 27.6137 23.5525 27.8044 23.7465C27.9951 23.9404 28.2293 24.0863 28.4875 24.1719C28.7865 24.2514 29.1 24.2598 29.4028 24.1963C29.7056 24.1328 29.9894 23.9992 30.2312 23.8063C30.5392 23.5391 30.7827 23.2058 30.9437 22.8313C31.0375 22.6625 31.2625 22.25 31.3562 22.2406C31.4875 22.2406 31.5437 22.2969 31.7875 22.7563C31.9521 23.156 32.232 23.4977 32.5916 23.7379C32.9511 23.978 33.3739 24.1057 33.8063 24.1047C34.2386 24.1037 34.6609 23.974 35.0193 23.7322C35.3777 23.4904 35.656 23.1474 35.8187 22.7469C35.9875 22.3531 36.0344 22.2313 36.4469 22.2313C36.5687 22.2313 36.625 22.2781 36.85 22.6813C37.0565 23.1609 37.4105 23.5622 37.8607 23.8269C38.3108 24.0916 38.8336 24.2059 39.3531 24.1531C39.6791 24.1367 39.992 24.0197 40.2488 23.8182C40.5057 23.6168 40.6938 23.3408 40.7875 23.0281C41.05 22.5031 41.125 22.4188 41.5187 22.5031C42.6625 22.7469 43.4969 24.3875 43.5437 25.775C43.6469 28.2313 45.4844 32.2531 47.1906 32.9563C47.3016 33.013 47.4303 33.0242 47.5494 32.9874C47.6685 32.9506 47.7685 32.8688 47.8281 32.7594C48.0404 32.419 48.3027 32.1124 48.6062 31.85C48.9084 31.6065 49.2574 31.4276 49.6315 31.3244C50.0056 31.2212 50.3969 31.1959 50.7812 31.25C51.1966 31.3382 51.5737 31.5546 51.8594 31.8688C52.3878 32.511 52.6614 33.3252 52.6281 34.1563C52.6282 34.5098 52.5873 34.8621 52.5062 35.2063C52.1312 36.875 50.7437 38.45 49.1594 38.0938C48.7673 37.9933 48.4065 37.7967 48.1094 37.5219C48.0496 37.4741 47.9792 37.4416 47.9041 37.4269C47.829 37.4122 47.7515 37.4158 47.6781 37.4375C47.6079 37.4622 47.5439 37.5018 47.4905 37.5536C47.4371 37.6054 47.3956 37.6681 47.3687 37.7375C46.974 38.8288 46.4144 39.8532 45.7094 40.775C45.1147 41.5726 44.411 42.2826 43.6187 42.8844C43.6 42.9031 43.1406 43.2406 42.9156 43.3719C42.8625 43.4037 42.8161 43.4457 42.7793 43.4955C42.7424 43.5453 42.7158 43.6019 42.701 43.6621C42.6862 43.7222 42.6834 43.7847 42.6929 43.8459C42.7024 43.9072 42.7239 43.9659 42.7562 44.0188C42.7983 44.0879 42.8575 44.1449 42.9282 44.1843C42.9988 44.2238 43.0785 44.2442 43.1594 44.2438C43.2961 44.2144 43.4263 44.1604 43.5437 44.0844C43.6771 44.9005 43.881 45.7035 44.1531 46.4844C42.7094 48.3406 39.325 49.9344 37.1875 50.5531C36.8504 50.3598 36.5333 50.1337 36.2406 49.8781C36.6726 48.7596 36.8019 47.547 36.6156 46.3625C37.5333 46.2354 38.4351 46.0123 39.3062 45.6969C39.3691 45.6761 39.4268 45.6422 39.4756 45.5975C39.5243 45.5528 39.5631 45.4983 39.5893 45.4375C39.6155 45.3768 39.6286 45.3112 39.6276 45.245C39.6266 45.1788 39.6117 45.1136 39.5837 45.0537C39.5557 44.9937 39.5153 44.9403 39.4653 44.8971C39.4152 44.8538 39.3565 44.8217 39.2931 44.8028C39.2297 44.7838 39.163 44.7785 39.0974 44.7872C39.0318 44.7959 38.9688 44.8183 38.9125 44.8531C38.1797 45.1145 37.4229 45.3029 36.6531 45.4156C36.4094 45.4438 35.9219 45.4813 35.8937 45.4813C35.3671 45.4805 34.841 45.4461 34.3187 45.3781C33.3827 45.2443 32.4724 44.9693 31.6187 44.5625C30.8141 44.1762 30.0915 43.6382 29.4906 42.9781C27.625 40.9156 26.6312 37.4 26.4531 32.2344C26.4156 31.2031 26.275 30.1813 26.1437 29.1969C25.7993 27.4073 25.7549 25.5729 26.0125 23.7688Z" fill="#1E5BA6"/>
</svg>
