<svg width="44" height="44" viewBox="0 0 44 44" fill="none" xmlns="http://www.w3.org/2000/svg">
<rect width="44" height="44" rx="14" fill="#DCE3F5"/>
<g clip-path="url(#clip0_96_11678)">
<path d="M29.9521 26.5205L26.1613 25.7613C25.7591 25.6816 25.4662 25.3245 25.4662 24.912V24.0419C25.7158 23.6952 25.9498 23.2324 26.1925 22.7488C26.3779 22.3831 26.657 21.8319 26.7818 21.7019C27.5167 20.9825 28.3002 20.0899 28.5394 18.9268C28.7561 17.8729 28.5394 17.3252 28.2881 16.8919C28.2881 16.0443 28.2881 14.4929 27.9934 13.3749C27.9639 12.0247 27.7161 11.262 27.0938 10.5825C26.6535 10.1076 26.0053 9.99667 25.4853 9.90827C25.279 9.8736 24.9965 9.82507 24.8977 9.77133C23.9981 9.27387 23.0846 9.02773 21.9666 9C19.6786 9.08667 16.8706 10.5375 15.9311 13.1461C15.6451 13.9383 15.6729 15.2383 15.6937 16.2835L15.6694 16.8919C15.4493 17.3252 15.2326 17.8729 15.451 18.9251C15.6902 20.0933 16.4737 20.9843 17.2051 21.7001C17.3317 21.8319 17.6142 22.3865 17.8014 22.7523C18.0475 23.2341 18.2833 23.6969 18.5329 24.0436V24.912C18.5329 25.3245 18.2399 25.6816 17.8361 25.7613L14.0453 26.5205C11.6238 27.0041 9.86621 29.1483 9.86621 31.6183V33.2667C9.86621 34.2217 10.6445 35 11.5995 35H32.3995C33.3546 35 34.1329 34.2217 34.1329 33.2667V31.6183C34.1329 29.1483 32.3753 27.0041 29.9521 26.5205Z" fill="#9CB1F9"/>
</g>
<defs>
<clipPath id="clip0_96_11678">
<rect width="26" height="26" fill="white" transform="translate(9 9)"/>
</clipPath>
</defs>
</svg>
