<svg width="20" height="20" viewBox="0 0 20 20" fill="none" xmlns="http://www.w3.org/2000/svg">
<path opacity="0.4" d="M14.34 0H5.67C2.28 0 0 2.38 0 5.92V14.09C0 17.62 2.28 20 5.67 20H14.34C17.73 20 20 17.62 20 14.09V5.92C20 2.38 17.73 0 14.34 0Z" fill="#FB9E30"/>
<path fill-rule="evenodd" clip-rule="evenodd" d="M9.12924 6.625C9.12924 7.107 9.52024 7.5 9.99924 7.5C10.4922 7.5 10.8842 7.107 10.8842 6.625C10.8842 6.143 10.4922 5.75 10.0092 5.75C9.52424 5.75 9.12924 6.143 9.12924 6.625ZM10.873 9.50028C10.873 9.01828 10.48 8.62528 9.99805 8.62528C9.51605 8.62528 9.12305 9.01828 9.12305 9.50028V13.9203C9.12305 14.4023 9.51605 14.7953 9.99805 14.7953C10.48 14.7953 10.873 14.4023 10.873 13.9203V9.50028Z" fill="#1E5BA6"/>
</svg>
