<svg width="31" height="30" viewBox="0 0 31 30" fill="none" xmlns="http://www.w3.org/2000/svg">
<rect x="0.5" width="30" height="30" rx="8" fill="#DCE3F5"/>
<path d="M14.4356 11.8686C14.3808 11.8655 14.3295 11.8412 14.2923 11.8008C14.2552 11.7605 14.2352 11.7073 14.2365 11.6525C14.2396 11.5698 14.2678 11.49 14.3175 11.4238C14.3671 11.3576 14.4358 11.3081 14.5144 11.282C14.7343 11.2077 14.9692 11.1893 15.198 11.2284C15.4268 11.2676 15.6423 11.3631 15.825 11.5062C15.8444 11.5245 15.86 11.5465 15.8709 11.5708C15.8819 11.5952 15.8879 11.6214 15.8887 11.6481C15.8895 11.6748 15.885 11.7013 15.8756 11.7263C15.8661 11.7512 15.8518 11.774 15.8335 11.7935C15.8152 11.8129 15.7932 11.8285 15.7689 11.8394C15.7446 11.8504 15.7183 11.8564 15.6916 11.8572C15.665 11.858 15.6384 11.8535 15.6135 11.8441C15.5885 11.8346 15.5657 11.8203 15.5463 11.802C15.3578 11.6608 15.1239 11.5941 14.8894 11.6147C14.7993 11.6101 14.7099 11.6332 14.6334 11.6809C14.6333 11.7064 14.6281 11.7316 14.618 11.755C14.6079 11.7785 14.5931 11.7996 14.5747 11.8171C14.5562 11.8347 14.5343 11.8483 14.5104 11.8571C14.4865 11.866 14.461 11.8699 14.4356 11.8686Z" fill="#9CB1F9"/>
<path d="M12.7439 15.804C12.6044 15.8128 12.4645 15.7935 12.3325 15.7474C12.2005 15.7013 12.079 15.6292 11.9753 15.5354C11.9584 15.5148 11.9456 15.4911 11.9378 15.4656C11.93 15.4401 11.9273 15.4133 11.9299 15.3867C11.9325 15.3602 11.9402 15.3344 11.9528 15.3108C11.9653 15.2873 11.9823 15.2664 12.0029 15.2494C12.0235 15.2325 12.0473 15.2197 12.0728 15.2119C12.0983 15.2041 12.1251 15.2015 12.1517 15.204C12.1782 15.2066 12.204 15.2144 12.2276 15.2269C12.2511 15.2394 12.272 15.2565 12.2889 15.2771C12.4212 15.3708 12.5826 15.414 12.7439 15.3989C12.8738 15.4071 13.0039 15.3888 13.1264 15.3451C13.2489 15.3014 13.3612 15.2332 13.4565 15.1446C13.4729 15.1226 13.4937 15.1042 13.5174 15.0905C13.5412 15.0767 13.5675 15.0679 13.5947 15.0646C13.622 15.0613 13.6496 15.0636 13.676 15.0713C13.7023 15.0789 13.7269 15.0919 13.7481 15.1093C13.7693 15.1267 13.7868 15.1483 13.7994 15.1726C13.8121 15.197 13.8197 15.2237 13.8217 15.251C13.8238 15.2784 13.8203 15.3059 13.8114 15.3319C13.8025 15.3579 13.7885 15.3818 13.7701 15.4022C13.638 15.539 13.4781 15.6458 13.3011 15.7153C13.1241 15.7848 12.9342 15.8155 12.7443 15.8052L12.7439 15.804Z" fill="#9CB1F9"/>
<path d="M12.6157 14.4451C12.4759 14.4443 12.3416 14.3903 12.2403 14.2939C12.1809 14.2454 12.1363 14.1812 12.1116 14.1086C12.087 14.0359 12.0833 13.9578 12.1009 13.8832C12.1164 13.8349 12.1494 13.7942 12.1933 13.7689C12.2373 13.7437 12.2892 13.7359 12.3386 13.7469C12.3881 13.758 12.4317 13.7871 12.4608 13.8286C12.4899 13.8702 12.5024 13.9211 12.4958 13.9714C12.5121 13.995 12.5344 14.014 12.5604 14.0262C12.5758 14.034 12.5927 14.0384 12.6099 14.0392C12.6271 14.0399 12.6443 14.037 12.6603 14.0307C12.71 14.0139 12.7642 14.0169 12.8116 14.0391C12.8591 14.0613 12.8961 14.101 12.915 14.1499C12.9338 14.1988 12.9331 14.253 12.9129 14.3014C12.8927 14.3497 12.8546 14.3884 12.8066 14.4093C12.7457 14.4329 12.681 14.445 12.6157 14.4451Z" fill="#9CB1F9"/>
<path d="M16.4583 10.8197C16.4239 10.8196 16.39 10.8108 16.36 10.7941C15.723 10.439 13.9911 10.5134 13.7628 10.7559C13.7249 10.7905 13.6753 10.8095 13.624 10.809C13.5727 10.8085 13.5234 10.7887 13.4861 10.7534C13.4489 10.718 13.4264 10.6699 13.4231 10.6187C13.4199 10.5675 13.4362 10.5169 13.4687 10.4772C13.8749 10.0466 15.8103 10.0222 16.559 10.439C16.5984 10.4609 16.6294 10.4953 16.6471 10.5367C16.6648 10.5781 16.6683 10.6242 16.6569 10.6678C16.6456 10.7113 16.62 10.7499 16.5844 10.7774C16.5487 10.8049 16.5049 10.8198 16.4599 10.8197H16.4583Z" fill="#9CB1F9"/>
<path d="M11.336 10.8197C11.3028 10.8198 11.2701 10.8115 11.2409 10.7957C10.6323 10.5266 9.94529 10.4942 9.31406 10.7047C9.26615 10.7269 9.21149 10.7295 9.16168 10.712C9.11187 10.6945 9.07081 10.6584 9.0472 10.6112C9.0236 10.5639 9.01929 10.5094 9.03521 10.4591C9.05113 10.4087 9.08601 10.3666 9.13247 10.3415C9.88131 10.069 10.7075 10.1035 11.431 10.4374C11.4709 10.4587 11.5026 10.4927 11.5209 10.5341C11.5393 10.5754 11.5433 10.6217 11.5324 10.6656C11.5215 10.7095 11.4963 10.7485 11.4607 10.7764C11.4251 10.8043 11.3812 10.8195 11.336 10.8197Z" fill="#9CB1F9"/>
<path d="M9.89372 11.8719C9.83891 11.8687 9.78747 11.8444 9.75031 11.8039C9.71315 11.7635 9.69319 11.7102 9.69466 11.6553C9.69772 11.5726 9.72597 11.4928 9.77563 11.4266C9.82529 11.3604 9.89399 11.3109 9.97253 11.2848C10.1924 11.2099 10.4276 11.191 10.6566 11.2299C10.8857 11.2688 11.1014 11.3642 11.2843 11.5075C11.3235 11.5444 11.3465 11.5954 11.3481 11.6493C11.3497 11.7032 11.3298 11.7555 11.2928 11.7947C11.2559 11.8339 11.2049 11.8568 11.151 11.8584C11.0971 11.86 11.0448 11.8402 11.0056 11.8032C10.8164 11.6636 10.5831 11.5971 10.3487 11.6159C10.2586 11.6115 10.1692 11.6344 10.0924 11.6817C10.0926 11.7075 10.0876 11.7331 10.0776 11.7568C10.0676 11.7806 10.0528 11.802 10.0342 11.8198C10.0156 11.8376 9.99353 11.8515 9.96936 11.8604C9.9452 11.8694 9.91945 11.8733 9.89372 11.8719Z" fill="#9CB1F9"/>
<path d="M19.4528 13.7041C19.4392 13.7041 19.4255 13.7026 19.4122 13.6996C19.3595 13.6886 19.3134 13.6571 19.2839 13.6121C19.2544 13.567 19.244 13.5122 19.255 13.4595C19.3099 13.2558 19.436 13.0786 19.6102 12.9597C19.7845 12.8409 19.9955 12.7883 20.2052 12.8115C20.2317 12.8147 20.2573 12.8231 20.2805 12.8362C20.3038 12.8493 20.3242 12.8668 20.3407 12.8878C20.3571 12.9088 20.3693 12.9329 20.3765 12.9586C20.3837 12.9843 20.3857 13.0111 20.3825 13.0376C20.3793 13.0641 20.3709 13.0897 20.3578 13.1129C20.3447 13.1362 20.3272 13.1566 20.3062 13.1731C20.2852 13.1896 20.2612 13.2017 20.2355 13.2089C20.2098 13.2161 20.1829 13.2181 20.1564 13.2149C20.0478 13.2049 19.939 13.2317 19.8475 13.2911C19.756 13.3505 19.6873 13.4391 19.6523 13.5424C19.6427 13.5882 19.6177 13.6293 19.5813 13.6587C19.545 13.6882 19.4996 13.7042 19.4528 13.7041Z" fill="#9CB1F9"/>
<path d="M15.7682 12.0384V12.3756C15.7676 12.4757 15.7277 12.5715 15.6569 12.6422C15.5862 12.7129 15.4904 12.7529 15.3904 12.7534H15.2766C15.1766 12.7529 15.0808 12.7129 15.0101 12.6422C14.9393 12.5715 14.8993 12.4757 14.8988 12.3756V12.0384C14.8987 11.9888 14.9084 11.9396 14.9273 11.8937C14.9463 11.8478 14.9741 11.8062 15.0092 11.7711C15.0443 11.7359 15.086 11.7081 15.1319 11.6892C15.1778 11.6702 15.227 11.6605 15.2766 11.6606H15.3904C15.44 11.6605 15.4892 11.6702 15.5351 11.6892C15.581 11.7081 15.6227 11.7359 15.6578 11.7711C15.6929 11.8062 15.7207 11.8478 15.7396 11.8937C15.7586 11.9396 15.7683 11.9888 15.7682 12.0384Z" fill="#9CB1F9"/>
<path d="M11.271 12.0425V12.3797C11.2705 12.4797 11.2305 12.5755 11.1597 12.6463C11.089 12.717 10.9932 12.757 10.8932 12.7575H10.7794C10.6794 12.757 10.5836 12.717 10.5129 12.6463C10.4421 12.5755 10.4021 12.4797 10.4016 12.3797V12.0425C10.4015 11.9929 10.4112 11.9437 10.4302 11.8978C10.4491 11.8519 10.4769 11.8102 10.512 11.7751C10.5471 11.74 10.5888 11.7122 10.6347 11.6932C10.6806 11.6743 10.7298 11.6646 10.7794 11.6647H10.8932C10.9428 11.6646 10.992 11.6743 11.0379 11.6932C11.0838 11.7122 11.1255 11.74 11.1606 11.7751C11.1957 11.8102 11.2235 11.8519 11.2424 11.8978C11.2614 11.9437 11.2711 11.9929 11.271 12.0425Z" fill="#9CB1F9"/>
<path d="M23.2635 24.0675C22.9023 22.7903 22.1007 21.6821 21.0007 20.9394C20.7352 20.9064 20.4677 20.8929 20.2003 20.8987C19.6934 20.8975 19.1869 20.9328 18.685 21.0044C18.4542 21.0301 18.2259 21.0749 18.0025 21.1384C17.4277 21.2741 16.1431 21.6462 15.303 21.8924C15.5238 23.1983 15.5879 24.5258 15.4939 25.8469C15.4831 25.8909 15.4577 25.93 15.422 25.958C15.3863 25.986 15.3423 26.0012 15.2969 26.0012C15.2805 26.0012 15.2641 25.9992 15.2482 25.9952C15.1964 25.9822 15.1518 25.9493 15.124 25.9037C15.0963 25.8581 15.0876 25.8034 15.0999 25.7514C15.1744 24.5008 15.1116 23.2459 14.9126 22.009C14.6091 22.1022 14.3007 22.1784 13.9888 22.2373C13.9437 22.2373 13.6016 22.1155 13.1511 21.9505C12.6761 23.0934 12.3221 24.2829 12.0948 25.4995C12.0948 25.5534 12.0734 25.6051 12.0354 25.6432C11.9973 25.6813 11.9456 25.7027 11.8917 25.7027C11.8378 25.7027 11.7862 25.6813 11.7481 25.6432C11.71 25.6051 11.6886 25.5534 11.6886 25.4995C11.9113 24.2333 12.2735 22.9957 12.7684 21.8092C11.9258 21.4955 10.9053 21.1035 10.5917 20.978C9.39194 21.811 8.4131 22.9237 7.73985 24.2198C7.24016 25.1745 7.65047 25.7189 8.08922 26.0073C8.96672 26.5842 11.0833 27.2017 14.3861 27.2017L15.357 27.1814C16.941 27.1294 18.5122 26.8787 20.0338 26.4351C20.7666 26.2416 21.4703 25.9508 22.126 25.5706C22.65 25.2728 23.4382 24.815 23.2635 24.0675Z" fill="#9CB1F9"/>
<path d="M9.01627 8.88187C8.92255 9.66802 8.94857 10.4638 9.09346 11.2422C9.15033 11.6566 9.20721 12.0872 9.22346 12.5178C9.30471 14.8862 9.75564 16.4503 10.6453 17.4334C10.8703 17.6774 11.1288 17.888 11.4131 18.0591C11.0192 18.4563 10.7544 18.9632 10.6535 19.5134C10.5786 19.8529 10.5744 20.2042 10.6413 20.5453L10.69 20.5778C10.8931 20.6643 12.044 21.1059 12.9496 21.4407C12.9909 21.3654 13.0421 21.296 13.1019 21.2343C13.1213 21.216 13.1442 21.2017 13.1691 21.1922C13.1941 21.1828 13.2206 21.1783 13.2473 21.1791C13.274 21.1799 13.3002 21.1859 13.3246 21.1969C13.3489 21.2078 13.3708 21.2234 13.3891 21.2428C13.4074 21.2623 13.4217 21.2851 13.4312 21.31C13.4407 21.335 13.4452 21.3615 13.4444 21.3882C13.4436 21.4149 13.4375 21.4411 13.4266 21.4655C13.4157 21.4898 13.4 21.5118 13.3806 21.5301C13.3655 21.5468 13.3519 21.5649 13.34 21.5841C13.6621 21.7019 13.9173 21.7925 14.0265 21.825C14.0834 21.8169 14.7306 21.6361 14.809 21.6129C14.7949 21.5705 14.7765 21.5297 14.7541 21.4911C14.731 21.4462 14.7254 21.3944 14.7384 21.3456C14.7514 21.2969 14.7821 21.2547 14.8245 21.2274C14.8669 21.2 14.9179 21.1894 14.9677 21.1976C15.0175 21.2058 15.0624 21.2322 15.0938 21.2717C15.1364 21.3432 15.1708 21.4194 15.1961 21.4988C16.3238 21.1406 17.4694 20.8413 18.6281 20.6022C19.1485 20.524 19.6742 20.4874 20.2003 20.4925C20.5514 20.4911 20.9012 20.534 21.2415 20.6201C21.3605 20.4256 21.435 20.2072 21.4597 19.9806C21.5206 19.2941 21.021 18.3109 20.5741 17.6772C20.0865 16.9351 19.3336 16.4075 18.4697 16.2025C18.6664 15.9075 18.8377 15.5962 18.9816 15.2722C19.1039 15.3499 19.2385 15.4062 19.3797 15.4387C20.3222 15.65 21.1022 14.8091 21.3175 13.8787C21.3908 13.5895 21.4023 13.288 21.3512 12.994C21.3001 12.7 21.1875 12.4201 21.021 12.1725C21.7522 10.4175 21.3094 8.08968 21.151 7.40718C20.7569 5.71312 18.6485 3.32843 15.1994 3.32843C11.535 3.32843 9.35752 4.85593 8.72377 7.86624C8.63033 8.31718 8.67096 8.61781 8.84564 8.78437C8.89516 8.82833 8.95326 8.86153 9.01627 8.88187ZM9.43877 8.83312C9.54316 8.78416 9.63386 8.71021 9.70283 8.61781C9.79627 8.47155 9.90596 8.41062 9.95471 8.41874C9.99533 8.42281 10.0278 8.49999 10.036 8.52437C10.0712 8.63688 10.1326 8.7394 10.2153 8.82346C10.2979 8.90752 10.3994 8.97071 10.5113 9.0078C10.6408 9.04227 10.7767 9.04589 10.9079 9.01838C11.0391 8.99086 11.1621 8.93298 11.2669 8.84937C11.4003 8.73359 11.5059 8.58916 11.5756 8.42687C11.6163 8.35374 11.7138 8.17499 11.7544 8.17093C11.8113 8.17093 11.8356 8.1953 11.9413 8.39437C12.0126 8.5676 12.1339 8.71567 12.2897 8.81973C12.4455 8.92379 12.6287 8.97913 12.8161 8.97869C13.0034 8.97826 13.1864 8.92207 13.3417 8.81728C13.497 8.7125 13.6176 8.56386 13.6881 8.3903C13.7613 8.21968 13.7816 8.16687 13.9603 8.16687C14.0131 8.16687 14.0375 8.18718 14.135 8.36187C14.2245 8.56971 14.3779 8.74361 14.573 8.85831C14.768 8.97301 14.9946 9.02253 15.2197 8.99968C15.361 8.99254 15.4966 8.94185 15.6078 8.85456C15.7191 8.76727 15.8007 8.64767 15.8413 8.51218C15.955 8.28468 15.9875 8.24812 16.1581 8.28468C16.6538 8.39031 17.0153 9.10124 17.0356 9.70249C17.0803 10.7669 17.8766 12.5097 18.616 12.8144C18.664 12.839 18.7198 12.8438 18.7714 12.8279C18.823 12.8119 18.8664 12.7765 18.8922 12.7291C18.9842 12.5815 19.0979 12.4487 19.2294 12.335C19.3603 12.2295 19.5116 12.1519 19.6737 12.1072C19.8358 12.0625 20.0054 12.0515 20.1719 12.075C20.3519 12.1132 20.5153 12.207 20.6391 12.3431C20.8681 12.6214 20.9866 12.9743 20.9722 13.3344C20.9722 13.4876 20.9545 13.6403 20.9194 13.7894C20.7569 14.5125 20.1556 15.195 19.4691 15.0406C19.2992 14.9971 19.1428 14.9119 19.0141 14.7928C18.9882 14.7721 18.9577 14.758 18.9251 14.7516C18.8926 14.7453 18.859 14.7468 18.8272 14.7562C18.7968 14.7669 18.7691 14.7841 18.7459 14.8065C18.7228 14.829 18.7048 14.8562 18.6931 14.8862C18.5221 15.3591 18.2796 15.803 17.9741 16.2025C17.7164 16.5481 17.4114 16.8558 17.0681 17.1166C17.06 17.1247 16.861 17.2709 16.7635 17.3278C16.7404 17.3416 16.7203 17.3598 16.7044 17.3814C16.6884 17.403 16.6769 17.4275 16.6705 17.4536C16.664 17.4796 16.6628 17.5067 16.667 17.5332C16.6711 17.5598 16.6804 17.5852 16.6944 17.6081C16.7126 17.6381 16.7383 17.6628 16.7689 17.6799C16.7995 17.6969 16.834 17.7058 16.8691 17.7056C16.9283 17.6929 16.9848 17.6695 17.0356 17.6366C17.0934 17.9902 17.1818 18.3382 17.2997 18.6766C16.6741 19.4809 15.2075 20.1716 14.2813 20.4397C14.1352 20.3559 13.9978 20.2579 13.871 20.1472C14.0581 19.6625 14.1142 19.137 14.0335 18.6237C14.4311 18.5687 14.8219 18.472 15.1994 18.3353C15.2266 18.3263 15.2516 18.3116 15.2728 18.2922C15.2939 18.2729 15.3107 18.2493 15.3221 18.2229C15.3334 18.1966 15.3391 18.1682 15.3386 18.1395C15.3382 18.1108 15.3317 18.0826 15.3196 18.0566C15.3075 18.0306 15.29 18.0075 15.2683 17.9887C15.2466 17.97 15.2212 17.9561 15.1937 17.9479C15.1662 17.9396 15.1373 17.9373 15.1089 17.9411C15.0805 17.9449 15.0532 17.9546 15.0288 17.9697C14.7112 18.0829 14.3833 18.1646 14.0497 18.2134C13.9441 18.2256 13.7328 18.2419 13.7206 18.2419C13.4924 18.2415 13.2645 18.2266 13.0381 18.1972C12.6325 18.1392 12.238 18.02 11.8681 17.8437C11.5194 17.6763 11.2063 17.4432 10.946 17.1572C10.1375 16.2634 9.70689 14.74 9.62971 12.5016C9.61346 12.0547 9.55252 11.6119 9.49564 11.1853C9.34638 10.4098 9.32716 9.61491 9.43877 8.83312Z" fill="#9CB1F9"/>
</svg>
