<svg width="80" height="80" viewBox="0 0 80 80" fill="none" xmlns="http://www.w3.org/2000/svg">
<rect width="80" height="80" rx="20" fill="#DCE3F5"/>
<path d="M26.3341 30.0315C26.2338 30.0313 26.1364 29.9989 26.0559 29.9392C25.9755 29.8794 25.9163 29.7955 25.887 29.6996C25.8577 29.6038 25.86 29.5011 25.8934 29.4066C25.9267 29.3121 25.9895 29.2308 26.0725 29.1747C26.6526 28.8847 27.2883 28.7229 27.9365 28.7003C28.5847 28.6776 29.2301 28.7946 29.8291 29.0434C29.8878 29.0619 29.9423 29.0917 29.9895 29.1313C30.0367 29.1708 30.0756 29.2192 30.1041 29.2738C30.1325 29.3284 30.15 29.3881 30.1554 29.4494C30.1608 29.5107 30.1541 29.5725 30.1356 29.6312C30.1171 29.6899 30.0873 29.7445 30.0478 29.7916C30.0082 29.8388 29.9598 29.8778 29.9052 29.9062C29.8506 29.9347 29.791 29.9521 29.7296 29.9576C29.6683 29.963 29.6065 29.9563 29.5478 29.9378C29.0798 29.7358 28.5748 29.6336 28.0651 29.6374C27.5554 29.6413 27.0521 29.7513 26.5872 29.9603C26.5111 30.0071 26.4234 30.0318 26.3341 30.0315Z" fill="#9CB1F9"/>
<path d="M39.953 29.8282C39.8936 29.8285 39.8346 29.817 39.7796 29.7944C38.9077 29.4466 37.0712 29.3397 36.5762 29.7072C36.5269 29.7442 36.4709 29.771 36.4113 29.7863C36.3516 29.8016 36.2896 29.805 36.2286 29.7963C36.1677 29.7876 36.1091 29.7669 36.0561 29.7356C36.0031 29.7042 35.9569 29.6627 35.9199 29.6135C35.883 29.5642 35.8561 29.5082 35.8408 29.4486C35.8256 29.3889 35.8222 29.3269 35.8309 29.2659C35.8396 29.205 35.8602 29.1464 35.8916 29.0934C35.9229 29.0404 35.9644 28.9942 36.0137 28.9572C36.923 28.2822 39.1927 28.5532 40.1246 28.9263C40.2256 28.9668 40.3094 29.0413 40.3615 29.1369C40.4136 29.2325 40.4309 29.3432 40.4102 29.4501C40.3896 29.557 40.3324 29.6534 40.2485 29.7227C40.1645 29.792 40.0591 29.83 39.9502 29.83L39.953 29.8282Z" fill="#9CB1F9"/>
<path d="M29.574 32.7343C29.4681 32.7342 29.3653 32.6981 29.2825 32.6321C28.9971 32.4029 28.6421 32.2779 28.2761 32.2779C27.9101 32.2779 27.555 32.4029 27.2697 32.6321C27.2215 32.6706 27.1663 32.6992 27.1071 32.7163C27.0479 32.7334 26.9859 32.7387 26.9247 32.7319C26.8634 32.7251 26.8041 32.7062 26.7502 32.6765C26.6962 32.6467 26.6486 32.6067 26.6101 32.5585C26.5717 32.5104 26.543 32.4551 26.5259 32.3959C26.5088 32.3367 26.5035 32.2748 26.5103 32.2135C26.5241 32.0898 26.5865 31.9767 26.6837 31.899C27.1361 31.537 27.6982 31.3398 28.2775 31.3398C28.8568 31.3398 29.4189 31.537 29.8712 31.899C29.9473 31.9596 30.0027 32.0425 30.0296 32.136C30.0565 32.2295 30.0536 32.3291 30.0213 32.4209C29.9891 32.5127 29.929 32.5922 29.8496 32.6484C29.7701 32.7045 29.6751 32.7346 29.5778 32.7343H29.574Z" fill="#9CB1F9"/>
<path d="M39.7084 32.7624C39.6016 32.7621 39.4981 32.7254 39.415 32.6583C39.1291 32.4302 38.7743 32.3059 38.4086 32.3059C38.0429 32.3059 37.688 32.4302 37.4022 32.6583C37.3044 32.7303 37.1825 32.7616 37.0621 32.7455C36.9418 32.7294 36.8323 32.6673 36.7569 32.5722C36.6814 32.477 36.6458 32.3563 36.6576 32.2355C36.6694 32.1146 36.7276 32.003 36.82 31.9242C37.2719 31.5633 37.833 31.3667 38.4114 31.3667C38.9897 31.3667 39.5509 31.5633 40.0028 31.9242C40.0786 31.985 40.1336 32.0679 40.1602 32.1613C40.1869 32.2548 40.1838 32.3542 40.1515 32.4458C40.1192 32.5374 40.0592 32.6168 39.9798 32.6728C39.9004 32.7288 39.8056 32.7588 39.7084 32.7586V32.7624Z" fill="#9CB1F9"/>
<path d="M33.5584 41.5225H33.4525C33.1379 41.5234 32.8269 41.4553 32.5415 41.323C32.2561 41.1906 32.0032 40.9973 31.8006 40.7566C31.7612 40.708 31.7319 40.652 31.7145 40.5919C31.6971 40.5319 31.6918 40.4689 31.6991 40.4068C31.7064 40.3447 31.726 40.2846 31.7568 40.2302C31.7877 40.1758 31.8291 40.1281 31.8786 40.0899C31.9282 40.0517 31.9849 40.0239 32.0454 40.0079C32.1059 39.992 32.1689 39.9884 32.2309 39.9972C32.2928 40.006 32.3523 40.0272 32.406 40.0594C32.4596 40.0916 32.5062 40.1342 32.5431 40.1847C32.6631 40.3145 32.8093 40.4174 32.9721 40.4864C33.1349 40.5554 33.3105 40.589 33.4872 40.585C33.7634 40.5952 34.0387 40.5465 34.2947 40.4423C34.5507 40.338 34.7816 40.1806 34.9722 39.9803C35.0564 39.893 35.1711 39.8417 35.2923 39.8372C35.4134 39.8327 35.5317 39.8754 35.6221 39.9562C35.7125 40.037 35.768 40.1497 35.7771 40.2706C35.7861 40.3916 35.748 40.5113 35.6706 40.6047C35.4019 40.8964 35.0752 41.1287 34.7115 41.2868C34.3478 41.4448 33.955 41.5251 33.5584 41.5225Z" fill="#9CB1F9"/>
<path d="M32.8599 38.6434C32.5959 38.6409 32.3413 38.5445 32.1418 38.3715C31.9817 38.25 31.8583 38.0865 31.7854 37.8992C31.7124 37.7119 31.6927 37.5081 31.7284 37.3102C31.7601 37.1941 31.8354 37.0946 31.9385 37.0324C32.0417 36.9702 32.1648 36.9501 32.2824 36.9763C32.3999 37.0025 32.5029 37.0729 32.57 37.1729C32.637 37.273 32.663 37.395 32.6424 37.5137C32.6714 37.5863 32.7239 37.647 32.7915 37.6862C32.8113 37.6976 32.8338 37.7036 32.8567 37.7036C32.8795 37.7036 32.902 37.6976 32.9218 37.6862C32.9778 37.6595 33.0384 37.6442 33.1003 37.6411C33.1622 37.638 33.2241 37.6472 33.2824 37.6682C33.3407 37.6892 33.3943 37.7216 33.44 37.7634C33.4857 37.8052 33.5227 37.8557 33.5488 37.9119C33.5749 37.9681 33.5896 38.0289 33.592 38.0909C33.5944 38.1528 33.5846 38.2146 33.563 38.2727C33.5414 38.3308 33.5085 38.384 33.4662 38.4293C33.4239 38.4745 33.373 38.511 33.3165 38.5365C33.1739 38.605 33.0181 38.6414 32.8599 38.6434Z" fill="#9CB1F9"/>
<path d="M47.1681 37.2428C47.199 37.2491 47.2304 37.2526 47.2619 37.2531C47.3698 37.2529 47.4743 37.2155 47.5578 37.1471C47.6414 37.0788 47.6988 36.9838 47.7203 36.8781C47.8019 36.6315 47.9636 36.4194 48.1797 36.2755C48.3958 36.1316 48.6539 36.0642 48.9128 36.084C49.0364 36.0987 49.1607 36.0637 49.2585 35.9866C49.3563 35.9096 49.4194 35.797 49.4341 35.6734C49.4488 35.5498 49.4137 35.4255 49.3367 35.3277C49.2597 35.23 49.147 35.1668 49.0235 35.1521C48.5319 35.1019 48.0384 35.2284 47.6316 35.5089C47.2248 35.7895 46.9312 36.2057 46.8035 36.6831C46.7902 36.7438 46.7891 36.8066 46.8003 36.8677C46.8114 36.9289 46.8347 36.9872 46.8686 37.0393C46.9026 37.0914 46.9465 37.1362 46.9979 37.1711C47.0494 37.206 47.1072 37.2304 47.1681 37.2428Z" fill="#9CB1F9"/>
<path d="M39.7656 33.025V34.1687C39.7654 34.3626 39.6882 34.5484 39.5512 34.6855C39.4141 34.8226 39.2282 34.8997 39.0344 34.9H38.6406C38.5451 34.8996 38.4506 34.8804 38.3626 34.8434C38.2746 34.8064 38.1947 34.7523 38.1277 34.6844C38.0606 34.6164 38.0076 34.5359 37.9717 34.4474C37.9359 34.3589 37.9179 34.2642 37.9187 34.1687V33.025C37.9179 32.9295 37.9359 32.8348 37.9717 32.7463C38.0076 32.6578 38.0606 32.5772 38.1277 32.5093C38.1947 32.4413 38.2746 32.3873 38.3626 32.3503C38.4506 32.3133 38.5451 32.2941 38.6406 32.2937H39.0344C39.2282 32.2939 39.4141 32.3711 39.5512 32.5082C39.6882 32.6452 39.7654 32.8311 39.7656 33.025Z" fill="#9CB1F9"/>
<path d="M29.8281 33.053V34.1968C29.8277 34.2923 29.8085 34.3867 29.7715 34.4748C29.7345 34.5628 29.6804 34.6426 29.6125 34.7097C29.5445 34.7768 29.464 34.8298 29.3755 34.8657C29.287 34.9015 29.1923 34.9195 29.0968 34.9187H28.7031C28.6076 34.9195 28.5129 34.9015 28.4244 34.8657C28.3359 34.8298 28.2553 34.7768 28.1874 34.7097C28.1194 34.6426 28.0654 34.5628 28.0284 34.4748C27.9914 34.3867 27.9722 34.2923 27.9718 34.1968V33.053C27.972 32.8592 28.0492 32.6733 28.1863 32.5362C28.3233 32.3991 28.5092 32.322 28.7031 32.3218H29.0968C29.2907 32.322 29.4765 32.3991 29.6136 32.5362C29.7507 32.6733 29.8278 32.8592 29.8281 33.053Z" fill="#9CB1F9"/>
<path d="M62.4756 46.6018C62.3742 45.7987 62.0794 45.0321 61.6167 44.3679C61.1539 43.7036 60.537 43.1615 59.8187 42.7881C57.175 41.3678 53.1362 41.8318 50.5122 43.0234C50.0908 43.2396 49.63 43.3682 49.1575 43.4014C48.6851 43.4346 48.2109 43.3717 47.7634 43.2165C47.3889 43.0511 47.0512 42.8124 46.7703 42.5145C46.4893 42.2167 46.2708 41.8657 46.1275 41.4821C46.2212 41.1906 46.299 40.9196 46.3506 40.6918C46.6045 40.8461 46.8809 40.9597 47.17 41.0284C47.5759 41.1206 47.9963 41.1295 48.4057 41.0546C48.8152 40.9796 49.2052 40.8224 49.5522 40.5925C50.6642 39.8169 51.4361 38.644 51.7084 37.3159C51.9052 36.1643 51.7966 34.9812 51.3934 33.8846C52.0995 31.412 52.3464 28.8309 52.1218 26.2693C51.9343 23.7193 51.2434 20.1643 48.97 17.7062C45.25 13.6937 41.6218 12.8875 36.9718 12.8875C30.4093 12.8875 27.0878 17.4043 25.69 20.0968C23.9087 23.5375 24.1806 27.3925 24.9334 29.0031C24.9661 29.6624 25.0539 30.3178 25.1959 30.9625C25.4065 32.3178 25.5296 33.6853 25.5643 35.0565C25.5732 37.2766 25.8611 39.4867 26.4212 41.635C27.3456 44.3978 30.879 47.6434 34.2222 47.8506C34.4453 47.8656 34.6722 47.8721 34.9037 47.8721C35.4809 47.8671 36.057 47.8213 36.6278 47.7353C37.2475 49.2634 37.5915 51.1271 37.0909 51.7215C36.2892 52.2548 35.4324 52.7002 34.5353 53.0499C31.209 54.5753 27.129 56.8525 25.0956 60.9559C24.0897 62.9837 24.9278 64.1434 25.81 64.764C28.0468 66.3193 31.9731 67.1078 37.4781 67.1078C45.2828 67.1078 50.7737 65.0256 52.7903 63.7937L53.0312 63.6465C54.0812 63.0081 55.6665 62.0443 55.3075 60.4431C54.5575 57.0784 51.7965 53.9565 47.7381 51.8809C47.5881 51.8021 46.8897 51.4928 46.7753 51.4206C45.669 50.724 44.9668 47.7596 44.6275 45.6624C46.1903 49.9234 50.9312 52.9946 55.3243 53.6678C55.6402 53.7155 55.9592 53.7393 56.2787 53.739C58.037 53.7456 59.7286 53.0666 60.9943 51.8462C61.6529 51.1609 62.1325 50.3239 62.3909 49.4093C62.6492 48.4946 62.6783 47.5304 62.4756 46.6018ZM42.6943 45.1018C42.7581 45.2084 42.8615 45.2854 42.9819 45.3158C43.1023 45.3462 43.2298 45.3276 43.3365 45.264C43.4218 45.2134 43.5081 45.1421 43.5934 45.0765C43.8343 46.8578 44.5215 50.7474 46.0459 52.0337C45.984 52.584 45.6775 52.6787 45.0775 52.8578C44.6325 52.9578 44.2158 53.1572 43.8587 53.4409C43.5431 53.7441 43.2603 54.0797 43.015 54.4421C42.5809 55.0281 42.1328 55.6346 41.5862 55.7903C41.3743 55.8605 41.1531 55.8988 40.93 55.9037C40.4756 55.8958 40.0243 55.8267 39.5884 55.6984C39.2913 55.6084 38.9844 55.5546 38.6743 55.5381C38.1804 55.5275 37.6873 55.583 37.2081 55.7031C36.9044 55.7825 36.5928 55.8275 36.279 55.8371C36.0798 55.8305 35.8859 55.7716 35.7165 55.6665C35.5384 55.5727 35.3875 55.4345 35.2783 55.2654C35.1691 55.0962 35.1053 54.9018 35.0931 54.7009C35.075 54.4002 35.0974 54.0984 35.1597 53.8037C35.3472 53.7203 35.5431 53.6359 35.7222 53.5609C36.5051 53.3125 37.2212 52.8893 37.8165 52.3234C38.6875 51.2921 38.1531 49.0421 37.5812 47.5628C38.4019 47.4042 39.2086 47.18 39.9934 46.8925C40.0511 46.871 40.1041 46.8384 40.1492 46.7966C40.1944 46.7547 40.2309 46.7043 40.2565 46.6483C40.2822 46.5923 40.2966 46.5319 40.2989 46.4703C40.3012 46.4088 40.2914 46.3474 40.27 46.2896C40.2485 46.2319 40.216 46.1789 40.1741 46.1338C40.1322 46.0886 40.0818 46.0522 40.0258 46.0265C39.9699 46.0008 39.9094 45.9864 39.8478 45.9841C39.7863 45.9818 39.7249 45.9917 39.6672 46.0131C38.7572 46.3567 37.8149 46.608 36.8547 46.7631C36.0091 46.9162 35.1484 46.9678 34.2906 46.9168C31.6103 46.7509 28.2222 44.0406 27.3184 41.3396C26.7896 39.2712 26.5175 37.1455 26.5084 35.0106C26.4752 33.5948 26.3471 32.1829 26.125 30.7843C25.9815 30.1643 25.8964 29.5321 25.8709 28.8962C25.8709 28.8446 25.8709 28.75 25.8643 28.6225C25.749 25.4471 26.3734 23.5187 27.7206 22.8896C28.2993 22.5748 28.7909 22.1212 29.1512 21.5696C29.4531 21.0471 29.9304 20.6486 30.4984 20.4446C31.0928 20.2696 31.7261 20.2771 32.3162 20.4662C32.7706 20.5977 33.242 20.6609 33.715 20.6537C34.3725 20.6393 35.0268 20.5557 35.6668 20.4043C36.5024 20.1774 37.3835 20.1781 38.2187 20.4062C38.5252 20.5001 38.8076 20.6597 39.0461 20.8739C39.2846 21.0881 39.4735 21.3518 39.5997 21.6465C40.0113 22.4862 40.733 23.1333 41.6125 23.4512C43.3403 24.0437 43.9562 25.539 43.5062 28.0225C43.39 28.6559 43.3626 29.3024 43.4247 29.9434C43.6037 32.2759 44.7512 34.3318 45.6578 34.6121C45.7627 34.6381 45.8732 34.629 45.9725 34.5862C46.0717 34.5433 46.1541 34.4691 46.2072 34.375C46.3612 34.0797 46.5721 33.8178 46.8278 33.6043C47.132 33.3529 47.4856 33.1682 47.8659 33.0624C48.2461 32.9566 48.6443 32.9321 49.0347 32.9903C49.3435 33.0594 49.6332 33.1961 49.8829 33.3906C50.1325 33.5852 50.3359 33.8327 50.4784 34.1153C50.851 35.0659 50.9595 36.0996 50.7925 37.1068C50.5761 38.1917 49.9529 39.1527 49.0506 39.7928C48.8088 39.9564 48.5361 40.0687 48.2493 40.1229C47.9624 40.1771 47.6676 40.1719 47.3828 40.1078C46.9821 39.9929 46.6141 39.7855 46.3084 39.5021C46.2422 39.45 46.1632 39.4168 46.0797 39.4058C45.9962 39.3948 45.9112 39.4065 45.8338 39.4397C45.7564 39.4729 45.6893 39.5263 45.6397 39.5944C45.5901 39.6625 45.5597 39.7426 45.5518 39.8265C45.4843 40.3463 45.3611 40.8574 45.1843 41.3509C44.9591 41.996 44.6417 42.6051 44.2422 43.1593C43.8374 43.6502 43.3704 44.086 42.8528 44.4559C42.7991 44.4875 42.7522 44.5296 42.7149 44.5795C42.6777 44.6295 42.6507 44.6864 42.6357 44.7469C42.6207 44.8074 42.6179 44.8703 42.6275 44.9318C42.6371 44.9934 42.6588 45.0525 42.6915 45.1056L42.6943 45.1018Z" fill="#9CB1F9"/>
</svg>
