<svg width="80" height="82" viewBox="0 0 80 82" fill="none" xmlns="http://www.w3.org/2000/svg">
<g filter="url(#filter0_d_493_2875)">
<path fill-rule="evenodd" clip-rule="evenodd" d="M10 56.2333V30.8567H70V56.4367C70 66.9 63.4138 73.3333 52.876 73.3333H27.0911C16.652 73.3333 10 66.7667 10 56.2333ZM26.5313 48.0333C25.0165 48.1033 23.7651 46.9 23.6992 45.37C23.6992 43.8367 24.8847 42.57 26.3996 42.5C27.8814 42.5 29.0999 43.67 29.1328 45.1667C29.1987 46.7033 28.0132 47.97 26.5313 48.0333ZM40.0659 48.0333C38.551 48.1033 37.2997 46.9 37.2338 45.37C37.2338 43.8367 38.4193 42.57 39.9341 42.5C41.416 42.5 42.6345 43.67 42.6674 45.1667C42.7333 46.7033 41.5478 47.97 40.0659 48.0333ZM53.5016 60.3C51.9868 60.2667 50.7684 59 50.7684 57.4667C50.7355 55.9333 51.9539 54.67 53.4687 54.6367H53.5016C55.0494 54.6367 56.3008 55.9033 56.3008 57.4667C56.3008 59.0333 55.0494 60.3 53.5016 60.3ZM37.2338 57.4667C37.2997 59 38.551 60.2033 40.0659 60.1333C41.5478 60.07 42.7333 58.8033 42.6674 57.27C42.6345 55.77 41.416 54.6 39.9341 54.6C38.4193 54.67 37.2338 55.9333 37.2338 57.4667ZM23.6663 57.4667C23.7322 59 24.9835 60.2033 26.4984 60.1333C27.9802 60.07 29.1658 58.8033 29.0999 57.27C29.067 55.77 27.8485 54.6 26.3666 54.6C24.8518 54.67 23.6663 55.9333 23.6663 57.4667ZM50.8013 45.3367C50.8013 43.8033 51.9868 42.57 53.5016 42.5367C54.9835 42.5367 56.169 43.7333 56.2349 45.2033C56.2678 46.7367 55.0823 48.0033 53.6004 48.0333C52.0856 48.0667 50.8343 46.9 50.8013 45.37V45.3367Z" fill="#9CB1F9"/>
<path opacity="0.4" d="M10.0112 30.8563C10.054 28.8997 10.2187 25.0163 10.5282 23.7663C12.1089 16.7363 17.4767 12.2697 25.1495 11.633H54.8532C62.4602 12.303 67.8938 16.7997 69.4745 23.7663C69.7807 24.983 69.9454 28.8963 69.9882 30.8563H10.0112Z" fill="#9CB1F9"/>
<path d="M27.6829 21.9667C29.1318 21.9667 30.2186 20.87 30.2186 19.4V9.23667C30.2186 7.76667 29.1318 6.66667 27.6829 6.66667C26.2339 6.66667 25.1472 7.76667 25.1472 9.23667V19.4C25.1472 20.87 26.2339 21.9667 27.6829 21.9667Z" fill="#9CB1F9"/>
<path d="M52.3164 21.9667C53.7325 21.9667 54.8521 20.87 54.8521 19.4V9.23667C54.8521 7.76667 53.7325 6.66667 52.3164 6.66667C50.8675 6.66667 49.7808 7.76667 49.7808 9.23667V19.4C49.7808 20.87 50.8675 21.9667 52.3164 21.9667Z" fill="#9CB1F9"/>
</g>
<defs>
<filter id="filter0_d_493_2875" x="-4" y="0" width="88" height="88" filterUnits="userSpaceOnUse" color-interpolation-filters="sRGB">
<feFlood flood-opacity="0" result="BackgroundImageFix"/>
<feColorMatrix in="SourceAlpha" type="matrix" values="0 0 0 0 0 0 0 0 0 0 0 0 0 0 0 0 0 0 127 0" result="hardAlpha"/>
<feOffset dy="4"/>
<feGaussianBlur stdDeviation="2"/>
<feComposite in2="hardAlpha" operator="out"/>
<feColorMatrix type="matrix" values="0 0 0 0 0 0 0 0 0 0 0 0 0 0 0 0 0 0 0.25 0"/>
<feBlend mode="normal" in2="BackgroundImageFix" result="effect1_dropShadow_493_2875"/>
<feBlend mode="normal" in="SourceGraphic" in2="effect1_dropShadow_493_2875" result="shape"/>
</filter>
</defs>
</svg>
