<svg width="80" height="80" viewBox="0 0 80 80" fill="none" xmlns="http://www.w3.org/2000/svg">
<path opacity="0.4" d="M55.5853 6.66667H24.4445C13.0964 6.66667 6.66675 13.0963 6.66675 24.4445V55.5556C6.66675 66.9037 13.0964 73.3333 24.4445 73.3333H55.5853C66.9334 73.3333 73.3334 66.9037 73.3334 55.5556V24.4445C73.3334 13.0963 66.9334 6.66667 55.5853 6.66667Z" fill="#9CB1F9"/>
<path d="M24.5624 31.2299C23.0513 31.2299 21.8069 32.4744 21.8069 34.0151V56.9188C21.8069 58.4299 23.0513 59.6744 24.5624 59.6744C26.1032 59.6744 27.3476 58.4299 27.3476 56.9188V34.0151C27.3476 32.4744 26.1032 31.2299 24.5624 31.2299Z" fill="#9CB1F9"/>
<path d="M40.1181 20.2966C38.607 20.2966 37.3625 21.541 37.3625 23.0818V56.9188C37.3625 58.4299 38.607 59.6744 40.1181 59.6744C41.6588 59.6744 42.9033 58.4299 42.9033 56.9188V23.0818C42.9033 21.541 41.6588 20.2966 40.1181 20.2966Z" fill="#9CB1F9"/>
<path d="M55.4663 43.3188C53.9256 43.3188 52.6812 44.5633 52.6812 46.104V56.9188C52.6812 58.4299 53.9256 59.6744 55.4367 59.6744C56.9774 59.6744 58.2219 58.4299 58.2219 56.9188V46.104C58.2219 44.5633 56.9774 43.3188 55.4663 43.3188Z" fill="#9CB1F9"/>
</svg>
