<?xml version="1.0" encoding="utf-8"?><svg viewBox="0 0 80 80" xmlns="http://www.w3.org/2000/svg" xmlns:xlink="http://www.w3.org/1999/xlink"><style>:root>svg{display:none}:root>svg:target{display:block}</style><svg fill="none" viewBox="0 0 12 12" id="arrow-blue" xmlns="http://www.w3.org/2000/svg"><path d="M9.75 4.5L6 8.25 2.25 4.5" stroke="#1E5BA6" stroke-width="3" stroke-linecap="round" stroke-linejoin="round"/></svg><svg fill="none" viewBox="0 0 20 20" id="info-icon" xmlns="http://www.w3.org/2000/svg"><path opacity=".4" d="M14.34 0H5.67C2.28 0 0 2.38 0 5.92v8.17C0 17.62 2.28 20 5.67 20h8.67c3.39 0 5.66-2.38 5.66-5.91V5.92C20 2.38 17.73 0 14.34 0z" fill="#FB9E30"/><path fill-rule="evenodd" clip-rule="evenodd" d="M9.13 6.625a.878.878 0 001.755 0 .876.876 0 00-.876-.875.879.879 0 00-.88.875zM10.872 9.5a.877.877 0 00-.875-.875.877.877 0 00-.875.875v4.42c0 .482.393.875.875.875a.877.877 0 00.875-.875V9.5z" fill="#1E5BA6"/></svg><svg fill="none" viewBox="0 0 20 20" id="mail-icon" xmlns="http://www.w3.org/2000/svg"><path opacity=".4" d="M18.333 13.283A4.206 4.206 0 0114.14 17.5H5.874a4.206 4.206 0 01-4.208-4.2v-.009s.005-3.688.012-5.543c0-.348.4-.543.673-.327 1.98 1.571 5.52 4.436 5.565 4.473a3.39 3.39 0 002.108.742c.767 0 1.517-.268 2.109-.751.044-.03 3.506-2.808 5.515-4.404a.416.416 0 01.676.325c.009 1.84.009 5.477.009 5.477" fill="#FB9E30"/><path d="M17.897 4.728A4.196 4.196 0 0014.192 2.5H5.875A4.196 4.196 0 002.17 4.728a.72.72 0 00.184.898l6.188 4.95c.433.35.958.524 1.483.524h.017c.525 0 1.05-.175 1.483-.525l6.188-4.949a.72.72 0 00.184-.898" fill="#FB9E30"/></svg><svg fill="none" viewBox="0 0 20 20" id="marker-icon" xmlns="http://www.w3.org/2000/svg"><path fill-rule="evenodd" clip-rule="evenodd" d="M7.109 2.447a5.741 5.741 0 015.862.049c1.786 1.11 2.872 3.09 2.861 5.222-.041 2.117-1.205 4.107-2.66 5.645a15.6 15.6 0 01-2.799 2.35.98.98 0 01-.34.12.684.684 0 01-.325-.099 15.43 15.43 0 01-4.032-3.79 7.733 7.733 0 01-1.51-4.332c-.001-2.135 1.122-4.107 2.943-5.165zm1.052 6.048a1.981 1.981 0 001.831 1.248 1.949 1.949 0 001.403-.584c.372-.378.58-.892.579-1.427a2.02 2.02 0 00-1.219-1.87 1.955 1.955 0 00-2.161.433 2.046 2.046 0 00-.433 2.2z" fill="#FB9E30"/><ellipse opacity=".4" cx="9.999" cy="17.5" rx="4.167" ry=".833" fill="#FB9E30"/></svg><svg fill="none" viewBox="0 0 31 30" id="no-avatar" xmlns="http://www.w3.org/2000/svg"><rect x=".5" width="30" height="30" rx="8" fill="#DCE3F5"/><path d="M14.436 11.869a.21.21 0 01-.2-.216.406.406 0 01.278-.371 1.4 1.4 0 011.311.224.203.203 0 01-.279.296.956.956 0 00-.657-.187.441.441 0 00-.256.066.189.189 0 01-.197.188zM12.744 15.804a1.048 1.048 0 01-.769-.269.204.204 0 01.028-.286.205.205 0 01.225-.022c.023.012.044.03.06.05a.678.678 0 00.456.122.958.958 0 00.713-.254.202.202 0 01.291-.036.203.203 0 01.022.293 1.325 1.325 0 01-1.026.403v-.001zM12.616 14.445a.55.55 0 01-.376-.151.41.41 0 01-.14-.41.204.204 0 01.36-.055c.03.041.042.092.036.142a.163.163 0 00.064.055.122.122 0 00.1.005.203.203 0 01.147.378.53.53 0 01-.191.036zM16.458 10.82a.203.203 0 01-.098-.026c-.637-.355-2.369-.28-2.597-.038a.203.203 0 01-.294-.279c.406-.43 2.341-.455 3.09-.038a.203.203 0 01-.1.38zM11.336 10.82a.199.199 0 01-.095-.024 2.673 2.673 0 00-1.927-.091.203.203 0 01-.182-.364 3.02 3.02 0 012.299.096.202.202 0 01.03.34.204.204 0 01-.125.043zM9.894 11.872a.211.211 0 01-.2-.217.406.406 0 01.279-.37 1.397 1.397 0 011.311.223.203.203 0 11-.278.295.975.975 0 00-.657-.187.447.447 0 00-.257.066.19.19 0 01-.198.19zM19.453 13.704a.203.203 0 01-.198-.245.884.884 0 01.95-.647.203.203 0 01.153.3.203.203 0 01-.202.103.485.485 0 00-.504.327.203.203 0 01-.2.162z" fill="#9CB1F9"/><path d="M15.768 12.038v.338a.38.38 0 01-.378.377h-.113a.38.38 0 01-.378-.377v-.338a.378.378 0 01.378-.377h.113a.376.376 0 01.378.377zM11.271 12.043v.337a.38.38 0 01-.378.377h-.114a.38.38 0 01-.377-.377v-.338a.376.376 0 01.377-.377h.114a.378.378 0 01.378.378zM23.264 24.067A5.62 5.62 0 0021 20.94a5.519 5.519 0 00-.8-.04 10.553 10.553 0 00-1.516.105c-.23.026-.46.07-.682.134-.575.136-1.86.508-2.7.754.22 1.306.285 2.634.19 3.955a.203.203 0 01-.393-.096c.074-1.25.012-2.505-.187-3.742-.304.093-.612.17-.924.228-.045 0-.387-.121-.838-.286a17.734 17.734 0 00-1.056 3.549.204.204 0 01-.406 0 17.428 17.428 0 011.08-3.69c-.843-.314-1.864-.706-2.177-.832A8.994 8.994 0 007.74 24.22c-.5.954-.09 1.499.35 1.787.877.577 2.993 1.195 6.296 1.195l.971-.02a18.929 18.929 0 004.677-.747 8.495 8.495 0 002.092-.864c.524-.298 1.312-.756 1.137-1.504z" fill="#9CB1F9"/><path d="M9.016 8.882a7.832 7.832 0 00.077 2.36c.057.415.114.845.13 1.276.082 2.368.533 3.932 1.422 4.915.225.244.484.455.768.626a2.777 2.777 0 00-.76 1.454c-.074.34-.079.691-.012 1.032l.049.033a98.95 98.95 0 002.26.863.96.96 0 01.152-.207.204.204 0 01.33.076.203.203 0 01-.051.22.375.375 0 00-.041.054c.322.118.577.209.687.241.056-.008.704-.189.782-.212a.653.653 0 00-.055-.122.203.203 0 01.34-.22c.042.072.077.148.102.228a34.103 34.103 0 013.432-.897 9.932 9.932 0 011.572-.11c.351 0 .701.042 1.041.128.12-.194.194-.413.219-.64.06-.686-.439-1.67-.886-2.303a3.48 3.48 0 00-2.104-1.474 6.25 6.25 0 00.512-.93c.122.077.256.133.398.166.942.211 1.722-.63 1.938-1.56a2.122 2.122 0 00-.297-1.707c.731-1.755.288-4.082.13-4.765-.394-1.694-2.503-4.079-5.952-4.079-3.664 0-5.841 1.528-6.475 4.538-.094.451-.053.752.122.918.05.044.107.078.17.098zm.423-.049a.7.7 0 00.264-.215c.093-.146.203-.207.252-.2.04.005.073.082.081.106a.742.742 0 00.475.484.858.858 0 00.756-.159c.133-.115.239-.26.309-.422.04-.073.138-.252.178-.256.057 0 .082.024.187.223a.943.943 0 001.747-.004c.073-.17.094-.223.272-.223.053 0 .077.02.175.195A1.064 1.064 0 0015.22 9a.684.684 0 00.621-.488c.114-.227.147-.264.317-.227.496.105.857.816.878 1.417.044 1.065.84 2.808 1.58 3.112a.207.207 0 00.276-.085c.092-.147.206-.28.337-.394a1.229 1.229 0 01.943-.26c.18.038.343.132.467.268.23.278.348.631.333.991 0 .154-.018.306-.053.455-.162.723-.763 1.406-1.45 1.252a1.055 1.055 0 01-.455-.248.206.206 0 00-.187-.037.224.224 0 00-.134.13 4.923 4.923 0 01-.719 1.317 4.605 4.605 0 01-1.21 1.125.202.202 0 00-.097.205.203.203 0 00.202.173.499.499 0 00.167-.07c.057.354.146.702.264 1.04-.626.805-2.093 1.496-3.019 1.764a2.563 2.563 0 01-.41-.293c.187-.484.243-1.01.162-1.523a5.73 5.73 0 001.166-.289.203.203 0 10-.17-.365 5.126 5.126 0 01-.98.243 8.475 8.475 0 01-.328.029c-.229 0-.457-.015-.683-.045a4.053 4.053 0 01-1.17-.353 3.006 3.006 0 01-.922-.687c-.809-.894-1.24-2.417-1.316-4.655-.017-.447-.077-.89-.134-1.317a7.12 7.12 0 01-.057-2.352z" fill="#9CB1F9"/></svg><svg fill="none" viewBox="0 0 44 44" id="no-avatar-alt" xmlns="http://www.w3.org/2000/svg"><rect width="44" height="44" rx="14" fill="#DCE3F5"/><g clip-path="url(#fclip0_96_11678)"><path d="M29.952 26.52l-3.79-.759a.867.867 0 01-.696-.849v-.87c.25-.347.484-.81.726-1.293.186-.366.465-.917.59-1.047.735-.72 1.518-1.612 1.757-2.775.217-1.054 0-1.602-.25-2.035 0-.848 0-2.4-.296-3.517-.03-1.35-.277-2.113-.9-2.793-.44-.474-1.088-.585-1.608-.674-.206-.034-.488-.083-.587-.137-.9-.497-1.813-.743-2.931-.771-2.288.087-5.096 1.537-6.036 4.146-.286.792-.258 2.092-.237 3.137l-.025.609c-.22.433-.436.98-.218 2.033.24 1.168 1.023 2.06 1.754 2.775.127.132.41.687.596 1.052.247.482.482.945.732 1.292v.868c0 .413-.293.77-.697.85l-3.79.758a5.212 5.212 0 00-4.18 5.098v1.649c0 .955.779 1.733 1.734 1.733h20.8c.955 0 1.733-.778 1.733-1.733v-1.649a5.212 5.212 0 00-4.18-5.098z" fill="#9CB1F9"/></g><defs><clipPath id="fclip0_96_11678"><path fill="#fff" transform="translate(9 9)" d="M0 0h26v26H0z"/></clipPath></defs></svg><svg fill="none" viewBox="0 0 80 80" id="no-avatar-dark" xmlns="http://www.w3.org/2000/svg"><rect width="80" height="80" rx="20" fill="#DCE3F5"/><path d="M37.544 30.774a.487.487 0 01-.46-.499.937.937 0 01.642-.855 3.228 3.228 0 013.024.517.469.469 0 11-.643.683 2.207 2.207 0 00-1.516-.432 1.017 1.017 0 00-.59.153.435.435 0 01-.457.433zM33.64 39.855a2.418 2.418 0 01-1.774-.62.47.47 0 01.582-.711.469.469 0 01.142.115c.305.217.678.316 1.05.282a2.211 2.211 0 001.644-.587.466.466 0 01.673-.082.468.468 0 01.051.676 3.058 3.058 0 01-2.367.93l-.001-.003zM33.344 36.72a1.266 1.266 0 01-.867-.35.944.944 0 01-.321-.947.469.469 0 01.911.203.374.374 0 00.15.127.281.281 0 00.23.01.469.469 0 01.337.874c-.14.054-.29.082-.44.082zM42.212 28.353a.47.47 0 01-.227-.059c-1.47-.82-5.467-.648-5.994-.088a.469.469 0 01-.678-.643c.937-.994 5.403-1.05 7.131-.088a.468.468 0 01-.229.878h-.003zM30.39 28.353a.459.459 0 01-.219-.055 6.169 6.169 0 00-4.446-.21.469.469 0 01-.42-.838 6.97 6.97 0 015.305.22.469.469 0 01-.22.883zM27.063 30.781a.487.487 0 01-.46-.5.938.938 0 01.641-.854 3.223 3.223 0 013.028.513.469.469 0 11-.644.683 2.25 2.25 0 00-1.515-.432 1.032 1.032 0 00-.592.152.436.436 0 01-.459.438zM49.122 35.01a.47.47 0 01-.457-.564 2.04 2.04 0 012.193-1.496.47.47 0 11-.112.93 1.12 1.12 0 00-1.164.756.47.47 0 01-.46.373z" fill="#1E5BA6"/><path d="M40.619 31.166v.778a.876.876 0 01-.872.872h-.263a.877.877 0 01-.872-.872v-.778a.87.87 0 01.872-.872h.263a.871.871 0 01.872.872zM30.24 31.175v.778a.877.877 0 01-.871.872h-.263a.877.877 0 01-.872-.872v-.778a.869.869 0 01.872-.872h.263a.871.871 0 01.872.872zM57.916 58.925a12.967 12.967 0 00-5.222-7.219 12.735 12.735 0 00-1.847-.094 24.338 24.338 0 00-3.497.244 9.69 9.69 0 00-1.575.31c-1.327.313-4.29 1.172-6.23 1.74a38.39 38.39 0 01.44 9.125.468.468 0 01-.908-.22 39.549 39.549 0 00-.433-8.636c-.7.215-1.412.39-2.131.527-.105 0-.894-.282-1.934-.662a40.902 40.902 0 00-2.437 8.19.469.469 0 01-.938 0 40.226 40.226 0 012.492-8.517c-1.944-.723-4.3-1.628-5.023-1.918a20.753 20.753 0 00-6.581 7.482c-1.153 2.203-.206 3.459.806 4.125 2.025 1.33 6.91 2.756 14.531 2.756l2.241-.047a43.683 43.683 0 0010.792-1.722 19.603 19.603 0 004.829-1.995c1.209-.687 3.028-1.744 2.625-3.469z" fill="#1E5BA6"/><path d="M25.038 23.881a18.074 18.074 0 00.178 5.447c.13.956.262 1.95.3 2.944.187 5.465 1.228 9.075 3.28 11.344a8.062 8.062 0 001.773 1.443 6.409 6.409 0 00-1.753 3.357 5.842 5.842 0 00-.028 2.38l.112.076c.469.2 3.125 1.219 5.214 1.991a2.21 2.21 0 01.352-.476.47.47 0 01.643.682.869.869 0 00-.094.125c.744.272 1.332.481 1.585.556.13-.019 1.624-.436 1.805-.49a1.51 1.51 0 00-.126-.28.469.469 0 01.783-.507c.099.165.178.341.237.524a78.696 78.696 0 017.92-2.069c1.2-.18 2.414-.265 3.628-.253a9.641 9.641 0 012.403.294c.274-.448.446-.952.503-1.475.14-1.585-1.012-3.853-2.044-5.316a8.03 8.03 0 00-4.856-3.403c.454-.68.85-1.399 1.181-2.147.283.18.593.31.92.385 2.174.487 3.974-1.454 4.471-3.6a4.897 4.897 0 00-.684-3.938c1.687-4.05.665-9.422.3-10.997-.91-3.91-5.775-9.412-13.735-9.412-8.456 0-13.481 3.525-14.943 10.472-.216 1.04-.122 1.734.28 2.118.115.102.25.178.395.225zm.974-.112c.241-.113.45-.284.61-.497.215-.338.469-.478.581-.46.094.01.169.188.188.244a1.715 1.715 0 001.097 1.116 1.98 1.98 0 001.743-.366c.308-.267.552-.6.713-.975.094-.168.319-.581.412-.59.131 0 .188.056.431.515a2.178 2.178 0 004.032-.01c.168-.393.215-.515.628-.515.122 0 .178.047.403.45a2.455 2.455 0 002.503 1.472 1.58 1.58 0 001.434-1.125c.263-.525.338-.61.732-.525 1.144.244 1.978 1.884 2.025 3.272.103 2.456 1.94 6.478 3.647 7.181a.478.478 0 00.637-.197c.212-.34.475-.647.778-.909a2.836 2.836 0 012.175-.6c.416.088.793.305 1.078.619.529.642.802 1.456.77 2.287 0 .354-.042.706-.123 1.05-.375 1.669-1.762 3.244-3.347 2.888a2.438 2.438 0 01-1.05-.572.475.475 0 00-.43-.084.515.515 0 00-.31.3 11.36 11.36 0 01-1.66 3.037 10.622 10.622 0 01-2.09 2.11 9.35 9.35 0 01-.703.487.47.47 0 00.243.872c.137-.03.267-.084.385-.16.133.816.337 1.62.61 2.4-1.445 1.857-4.829 3.45-6.967 4.07a5.906 5.906 0 01-.946-.676 6.817 6.817 0 00.375-3.516c.917-.127 1.82-.35 2.69-.665a.469.469 0 10-.393-.844c-.733.261-1.49.45-2.26.563-.244.028-.731.065-.76.065-.526 0-1.052-.035-1.574-.103a9.353 9.353 0 01-2.7-.816 6.94 6.94 0 01-2.128-1.584c-1.866-2.062-2.86-5.578-3.038-10.744-.037-1.03-.178-2.053-.31-3.037a16.432 16.432 0 01-.13-5.428z" fill="#1E5BA6"/></svg><svg fill="none" viewBox="0 0 80 80" id="no-avatar-dark-f" xmlns="http://www.w3.org/2000/svg"><rect width="80" height="80" rx="20" fill="#DCE3F5"/><path d="M26.334 30.032a.468.468 0 01-.261-.857 4.52 4.52 0 013.756-.132.469.469 0 01-.281.895 3.672 3.672 0 00-2.96.022.48.48 0 01-.254.072zM39.953 29.828a.45.45 0 01-.173-.034c-.872-.347-2.709-.454-3.204-.087a.469.469 0 11-.562-.75c.909-.675 3.179-.404 4.11-.03a.468.468 0 01-.174.903l.003-.002zM29.574 32.734a.469.469 0 01-.292-.102 1.607 1.607 0 00-2.012 0 .469.469 0 01-.586-.733 2.551 2.551 0 013.187 0 .469.469 0 01-.293.835h-.004zM39.708 32.762a.47.47 0 01-.293-.104 1.614 1.614 0 00-2.013 0 .469.469 0 01-.582-.734 2.55 2.55 0 013.183 0 .468.468 0 01-.295.835v.003zM33.558 41.523h-.105a2.152 2.152 0 01-1.652-.766.468.468 0 11.742-.572 1.247 1.247 0 00.944.4 1.951 1.951 0 001.485-.605.469.469 0 01.699.625 2.847 2.847 0 01-2.113.918zM32.86 38.643a1.112 1.112 0 01-.718-.272 1.089 1.089 0 01-.414-1.06.469.469 0 01.914.203.35.35 0 00.15.172.13.13 0 00.13 0 .469.469 0 11.395.85 1.086 1.086 0 01-.457.107zM47.168 37.243a.468.468 0 00.552-.365 1.163 1.163 0 011.193-.794.469.469 0 10.11-.932 2.08 2.08 0 00-2.22 1.531.468.468 0 00.365.56z" fill="#9CB1F9"/><path d="M39.766 33.025v1.144a.732.732 0 01-.732.731h-.393a.725.725 0 01-.722-.731v-1.144a.727.727 0 01.722-.731h.393a.732.732 0 01.732.731zM29.828 33.053v1.144a.726.726 0 01-.731.722h-.394a.727.727 0 01-.731-.722v-1.144a.732.732 0 01.731-.731h.394a.732.732 0 01.731.731z" fill="#9CB1F9"/><path d="M62.476 46.602a5.005 5.005 0 00-2.657-3.814c-2.644-1.42-6.683-.956-9.307.235a3.506 3.506 0 01-2.749.194 3.07 3.07 0 01-1.636-1.735c.094-.291.172-.562.224-.79.254.154.53.268.819.336a3.078 3.078 0 002.382-.435 5.29 5.29 0 002.156-3.277 6.682 6.682 0 00-.315-3.431 21.04 21.04 0 00.729-7.616c-.188-2.55-.879-6.105-3.152-8.563-3.72-4.012-7.348-4.819-11.998-4.819-6.563 0-9.884 4.517-11.282 7.21-1.781 3.44-1.51 7.295-.757 8.906.033.66.12 1.315.263 1.96.21 1.355.334 2.722.368 4.093.01 2.22.297 4.43.857 6.579.925 2.763 4.458 6.008 7.801 6.216.223.015.45.021.682.021.577-.005 1.153-.05 1.724-.137.62 1.528.964 3.392.463 3.986-.802.534-1.659.98-2.556 1.329-3.326 1.525-7.406 3.803-9.44 7.906-1.005 2.028-.167 3.187.715 3.808 2.237 1.555 6.163 2.344 11.668 2.344 7.805 0 13.296-2.082 15.312-3.314l.241-.147c1.05-.639 2.636-1.603 2.276-3.204-.75-3.365-3.51-6.486-7.569-8.562-.15-.079-.848-.388-.963-.46-1.106-.697-1.808-3.661-2.148-5.759 1.563 4.261 6.304 7.333 10.697 8.006a6.757 6.757 0 005.67-1.822 5.788 5.788 0 001.482-5.244zm-19.782-1.5a.47.47 0 00.642.162c.086-.05.172-.122.257-.188.241 1.782.928 5.671 2.453 6.958-.062.55-.368.645-.968.824-.446.1-.862.3-1.22.583a6.235 6.235 0 00-.843 1.001c-.434.586-.882 1.193-1.429 1.348-.212.07-.433.109-.656.114a5.063 5.063 0 01-1.342-.206 3.86 3.86 0 00-.914-.16 5.542 5.542 0 00-1.466.165c-.304.08-.615.124-.929.134a1.138 1.138 0 01-.563-.17 1.172 1.172 0 01-.623-.966c-.018-.3.004-.603.067-.897.187-.084.383-.168.562-.243a5.418 5.418 0 002.094-1.238c.871-1.03.337-3.28-.235-4.76a15.64 15.64 0 002.412-.67.471.471 0 00.277-.603.47.47 0 00-.603-.277c-.91.344-1.852.595-2.812.75-.846.153-1.707.205-2.564.154-2.68-.166-6.069-2.876-6.973-5.577a26 26 0 01-.81-6.33 31.683 31.683 0 00-.383-4.226 10.183 10.183 0 01-.254-1.888c0-.051 0-.146-.007-.274-.115-3.175.51-5.103 1.857-5.732a3.981 3.981 0 001.43-1.32c.302-.523.78-.921 1.347-1.125a3.094 3.094 0 011.818.021 4.77 4.77 0 001.399.188 9.37 9.37 0 001.952-.25 4.856 4.856 0 012.552.002 2.205 2.205 0 011.38 1.24 3.607 3.607 0 002.014 1.805c1.727.593 2.343 2.088 1.893 4.572a6.938 6.938 0 00-.081 1.92c.179 2.333 1.326 4.389 2.233 4.67a.494.494 0 00.55-.238c.153-.295.364-.557.62-.77a2.813 2.813 0 012.207-.615 2.141 2.141 0 011.443 1.125 5.66 5.66 0 01.314 2.992 4.332 4.332 0 01-1.741 2.686 2.139 2.139 0 01-1.668.315 2.658 2.658 0 01-1.075-.606.469.469 0 00-.756.325c-.068.52-.19 1.03-.368 1.524a7.087 7.087 0 01-.942 1.808c-.405.491-.872.927-1.39 1.297a.47.47 0 00-.16.65l.002-.004z" fill="#9CB1F9"/></svg><svg fill="none" viewBox="0 0 37 36" id="no-avatar-easy" xmlns="http://www.w3.org/2000/svg"><rect x=".032" width="36" height="36" rx="10" fill="#DCE3F5"/><path d="M17.997 21.175c-4.313 0-7.997.68-7.997 3.4C10 27.295 13.66 28 17.997 28c4.313 0 7.997-.68 7.997-3.4 0-2.721-3.66-3.425-7.997-3.425z" fill="#1E5BA6"/><path opacity=".4" d="M17.997 18.584a5.273 5.273 0 005.292-5.292A5.273 5.273 0 0017.997 8a5.274 5.274 0 00-5.292 5.292 5.274 5.274 0 005.292 5.292z" fill="#1E5BA6"/></svg><svg fill="none" viewBox="0 0 20 20" id="tel-icon" xmlns="http://www.w3.org/2000/svg"><path fill-rule="evenodd" clip-rule="evenodd" d="M9.61 10.394c3.325 3.323 4.079-.522 6.195 1.594 2.04 2.04 3.214 2.448.628 5.033-.323.26-2.381 3.391-9.612-3.838C-.41 5.953 2.72 3.893 2.98 3.57c2.592-2.592 2.993-1.412 5.034.628 2.116 2.116-1.727 2.873 1.597 6.196z" fill="#FB9E30"/></svg></svg>