<svg width="80" height="80" viewBox="0 0 80 80" fill="none" xmlns="http://www.w3.org/2000/svg">
<path opacity="0.4" d="M53.97 6.66667H26.0333C15.9 6.66667 10 12.6 10 22.7667V57.2C10 67.5333 15.9 73.3333 26.0333 73.3333H53.97C64.2667 73.3333 70 67.5333 70 57.2V22.7667C70 12.6 64.2667 6.66667 53.97 6.66667Z" fill="#9CB1F9"/>
<path fill-rule="evenodd" clip-rule="evenodd" d="M26.9334 22.1667V22.2C25.4968 22.2 24.3334 23.3667 24.3334 24.8C24.3334 26.2333 25.4968 27.4 26.9334 27.4H36.8968C38.3334 27.4 39.5001 26.2333 39.5001 24.7633C39.5001 23.3333 38.3334 22.1667 36.8968 22.1667H26.9334ZM53.0668 42.4667H26.9334C25.4968 42.4667 24.3334 41.3 24.3334 39.8667C24.3334 38.4333 25.4968 37.2633 26.9334 37.2633H53.0668C54.5001 37.2633 55.6668 38.4333 55.6668 39.8667C55.6668 41.3 54.5001 42.4667 53.0668 42.4667ZM53.0668 57.7H26.9334C25.9334 57.8333 24.9668 57.3333 24.4334 56.5C23.9001 55.6333 23.9001 54.5333 24.4334 53.7C24.9668 52.8333 25.9334 52.3667 26.9334 52.4667H53.0668C54.3968 52.6 55.4001 53.7333 55.4001 55.1C55.4001 56.43 54.3968 57.5667 53.0668 57.7Z" fill="#9CB1F9"/>
</svg>
