<svg width="233" height="43" viewBox="0 0 233 43" fill="none" xmlns="http://www.w3.org/2000/svg">
<path fill-rule="evenodd" clip-rule="evenodd" d="M27.701 35.2606C29.1519 35.2606 29.5077 35.8872 30.6778 35.9676C30.864 35.9815 31.0335 35.9898 31.1697 36.0259C31.456 36.1007 31.381 35.9621 31.4643 36.2782C29.2853 36.2782 30.2108 35.951 28.4626 35.6737C28.2236 35.6377 28.1124 35.6266 27.9317 35.5767C27.6983 35.5101 27.6983 35.4713 27.4648 35.4158C27.5565 35.2855 27.4759 35.2606 27.701 35.2606ZM8.71497 35.3382C8.71497 35.2301 8.98735 35.0166 8.98735 35.3382C8.98735 35.6626 8.71497 35.4463 8.71497 35.3382ZM24.6409 34.3206C24.4019 34.1486 24.4825 34.1875 24.4825 33.7743C24.602 33.802 24.7187 33.7909 24.7187 33.9296C24.7187 34.0294 24.6687 34.2596 24.6409 34.3206ZM20.4051 33.5386C20.4274 33.2752 20.7581 32.2076 20.9527 32.2076C21.3918 32.2076 21.8087 32.7068 21.8949 33.07C21.6003 33.2669 20.8887 33.5386 20.4051 33.5386ZM13.4233 33.5386C12.4755 33.5386 12.4449 32.3657 13.6567 32.3657C14.5684 32.3657 14.2349 33.5386 13.4233 33.5386ZM6.67489 32.5986H6.83332C7.05011 32.5986 7.02232 32.6596 7.06679 32.8343H6.44142C6.48589 32.6596 6.4581 32.5986 6.67489 32.5986ZM5.26296 31.2704C5.81884 31.2704 5.96893 31.4506 5.96893 31.9747C5.64096 32.0496 5.527 32.0468 5.27408 31.8028C5.14344 31.678 4.83215 31.2704 5.26296 31.2704ZM10.0491 32.521C10.1797 32.0357 10.6939 32.0052 10.8523 31.5227C11.0524 30.9072 10.6939 30.8905 11.2248 30.0947C11.461 30.2528 11.5778 30.4275 11.7945 30.6243C12.1336 30.9349 12.8146 31.2843 11.8446 31.6503C11.2776 31.8638 11.2637 31.9969 10.73 32.2631C10.4604 32.399 10.2714 32.4156 10.0491 32.521ZM20.4051 31.1124C20.4246 30.8656 20.508 30.4801 20.5608 30.2528C20.8387 30.3249 20.8971 30.3609 20.7942 30.6271C20.7248 30.8101 20.5635 31.007 20.4051 31.1124ZM3.30348 30.0947C3.55641 29.9755 3.72873 30.0171 4.08727 30.0171C4.01501 30.2833 4.08171 30.2528 3.53695 30.2528C3.31738 30.2528 3.39242 30.2167 3.30348 30.0947ZM19.1488 30.4081C19.1488 30.5384 20.23 33.3445 18.5207 33.3833C18.5207 31.2455 18.8125 32.0773 18.907 31.2621C18.9376 31.0042 18.9042 30.6687 18.9098 30.4053C18.9209 29.92 18.9876 30.0587 19.071 29.7037H19.3851C19.3851 30.433 19.1488 30.0226 19.1488 30.4081ZM14.2071 30.0947H13.3427C13.3705 29.7675 13.4344 29.346 13.7346 29.3405C14.0737 29.3294 14.2071 29.6843 14.2071 30.0947ZM26.1307 28.8442C26.1307 29.5984 25.9695 29.2351 25.0328 29.2351C25.2218 28.9745 25.7027 28.8525 26.1307 28.8442ZM8.8734 29.9394C8.20634 29.7842 8.13686 29.8424 7.4698 30.1058C6.75827 30.3859 6.91114 30.3526 6.91114 30.7214L6.59985 30.6327C6.60541 30.2334 6.53314 30.3165 7.30304 30.0171C7.70883 29.859 7.9423 29.8202 8.15353 29.5346C8.67884 28.8192 8.17299 29.2629 8.97346 29.0216C9.26807 28.9329 9.12076 29.0604 9.29864 28.7194C9.39314 28.5391 9.45707 28.406 9.49876 28.2175C9.77392 28.4005 9.81561 28.4726 9.97126 28.7637C9.73501 29.1159 9.44039 29.0909 8.8734 29.9394ZM17.7369 28.6861C17.3506 28.6778 17.2172 28.6085 16.325 28.6085C16.1943 29.0937 16.2805 29.2435 16.3416 29.9367C15.8302 29.8091 15.7079 29.0105 15.6968 28.5308C17.5674 28.0955 16.8447 27.7738 17.4701 27.8459C18.1399 27.9263 17.9731 28.1953 17.7369 28.6861ZM6.98896 27.4355L6.44142 27.3551C6.5665 26.8837 7.14461 27.064 7.30304 27.2775C7.16129 27.3718 7.16407 27.4355 6.98896 27.4355ZM19.071 25.7912C19.3462 25.855 19.4157 25.9437 19.688 26.038C19.9243 26.1184 20.1466 26.1739 20.4829 26.1794C21.036 26.1933 21.3446 26.2266 21.3446 27.1998C21.3446 27.6879 21.1361 27.6823 20.6414 27.6712C20.3412 27.6657 19.7103 27.7766 19.613 27.6796C19.3045 27.3718 19.8298 26.8227 19.3184 26.1683C19.1683 25.977 19.1877 26.0131 19.071 25.7912ZM12.0892 25.7912C12.0892 24.4797 12.9508 25.0204 12.9508 25.5555V25.7912C12.6951 25.7857 12.2504 25.6082 12.0892 25.7912ZM9.42094 25.0869C9.77948 25.0869 10.1269 25.4502 10.2047 25.7912L9.10687 26.2598C9.08463 25.9853 8.70385 25.0869 9.42094 25.0869ZM23.0706 25.0869C23.2596 24.8041 23.5625 24.488 23.9489 24.4797C24.3102 24.4686 24.0434 24.4714 24.2212 24.5573C24.5937 24.7403 25.6776 25.3531 25.8666 25.586C26.8394 26.7895 26.1613 27.3052 25.661 26.4955C25.1857 25.7302 25.1885 25.6803 23.8544 25.636C23.0789 25.611 23.1539 25.2727 23.0706 25.0869ZM14.9909 25.3198V25.1646C15.972 24.9372 15.2021 24.1774 15.8664 24.2828C16.6168 24.3993 17.27 24.3244 17.484 24.5573C17.6174 24.7015 17.723 25.0398 17.559 25.2145C17.3839 25.403 17.0476 25.3032 16.7224 25.3254C15.1243 25.4419 15.9164 25.3198 14.9909 25.3198ZM5.34078 25.0869H5.18513V24.5379C5.30187 24.5656 5.42138 24.5545 5.42138 24.696C5.42138 24.7958 5.36858 25.0259 5.34078 25.0869ZM19.777 24.2246V23.9112C20.1605 23.8086 21.6225 22.4749 22.4508 23.1237C23.3735 23.8475 22.8232 25.3809 21.5169 24.524C20.7386 24.0194 20.508 23.7365 19.777 24.2246ZM25.661 23.756L25.8166 23.9112C25.5609 23.8641 25.7082 24.0111 25.661 23.756ZM6.7555 23.4426V23.2069C7.25023 23.34 6.95561 23.3511 6.7555 23.4426ZM10.6772 22.816C10.6772 22.0645 10.8773 22.4333 11.8529 22.6607V22.816C11.2553 22.9546 10.6772 23.2319 10.6772 22.816ZM9.02904 22.2697C9.32922 22.1311 9.14856 22.1976 9.32088 22.2836C9.521 22.3834 9.51822 22.3584 9.57936 22.583C9.08741 22.5276 9.07907 22.3252 9.02904 22.2697ZM8.95122 21.7983C8.95122 21.3907 8.92343 21.6985 9.02904 21.485C9.26807 21.6513 9.25973 21.8676 9.02904 22.034C8.97623 21.9397 8.95122 21.9508 8.95122 21.7983ZM14.6768 20.9387C14.1209 20.9387 14.3516 20.8694 13.9708 20.7807C14.1348 20.5367 14.3488 20.4424 14.4683 20.1817C14.599 19.8878 14.5573 19.5467 14.6768 19.2944C15.4689 19.361 16.5056 20.9387 14.6768 20.9387ZM11.9307 19.9987C12.142 19.9488 12.0808 19.9211 12.2448 19.9211C12.456 19.9211 12.4616 19.9571 12.6367 19.9987V20.1568H11.9307V19.9987ZM12.7951 19.7658H13.0286V19.9987C12.7034 19.9128 12.9007 19.9654 12.7951 19.7658ZM6.12735 18.1991C6.64988 18.0771 6.51925 18.1215 7.14739 18.1215C7.44757 18.1215 7.17518 18.0965 7.38086 18.1991C7.23077 18.5735 6.32747 18.4736 6.12735 18.1991ZM17.5006 16.7905C18.1232 16.9347 18.2455 16.9597 18.4123 17.6057C18.5679 18.2185 18.5846 18.6151 18.2872 19.0615C17.9454 18.9811 18.1205 18.9339 17.8147 18.8258C17.9509 19.1059 17.9398 20.179 17.2672 20.2344C17.1866 19.9377 16.9448 19.8656 17.0476 19.4774C17.1199 19.1974 17.3784 19.189 17.4228 18.7454C17.4812 18.1575 17.6702 17.1399 17.5006 16.7905ZM12.7951 17.9634C12.7173 17.6279 12.5589 17.5503 12.4811 17.2591C12.9313 16.9597 13.137 17.0123 13.6901 16.821C14.6601 16.4883 15.7107 15.6342 14.9742 17.3201C14.8269 17.6557 14.8713 17.6584 14.4628 17.7527C14.0709 17.8414 13.2954 17.9634 12.7951 17.9634ZM17.0309 16.4772L17.0532 16.5021C17.0532 16.4994 17.0226 16.4855 17.0309 16.4772ZM16.5612 16.3995H16.9531V16.4772H16.5612V16.3995ZM3.92885 15.6176C3.92885 15.4041 4.00667 15.3791 4.21235 15.4013C4.39023 15.4207 4.48195 15.515 4.55699 15.6176C4.47917 15.906 4.37355 15.9226 4.00945 15.9309C3.95942 15.7202 3.92885 15.7812 3.92885 15.6176ZM8.8734 13.9733V13.5823C10.1853 13.5823 9.97126 14.514 9.26529 14.6776C9.07351 14.5112 8.8734 14.3338 8.8734 13.9733ZM12.9508 14.0509C12.9508 14.2339 13.1759 14.3449 13.187 14.8329C12.973 14.8329 12.4811 14.8967 12.4811 14.5195C12.4811 13.7958 12.9063 13.3383 13.0369 13.6017C13.1259 13.782 12.9508 13.7015 12.9508 14.0509ZM16.325 13.5047C16.3833 13.2828 16.4584 13.2413 16.5557 13.0277C16.7085 12.695 16.5668 12.6423 17.0309 12.6423C17.6813 12.6423 16.9698 13.4492 16.325 13.5047ZM13.893 12.487C14.1431 12.5869 14.2071 12.8531 14.2071 13.1109C14.2071 13.4104 14.2321 13.1414 14.1292 13.3466C13.9069 13.183 13.7485 12.7505 13.893 12.487ZM15.2271 11.3113C15.3716 11.0396 15.316 10.9536 15.6968 10.9204C15.6246 11.1893 15.5412 11.2864 15.2271 11.3113ZM12.5589 9.98036C12.2726 9.95818 12.2448 9.97205 12.2448 9.6698C12.2448 9.43134 12.3365 9.45352 12.5589 9.43411C12.6117 9.66426 12.6617 9.75299 12.5589 9.98036ZM12.4032 8.9655C12.4032 8.55234 12.3199 8.59116 12.5589 8.41647C12.6089 8.62721 12.6367 8.56343 12.6367 8.7298C12.6367 8.99877 12.5728 8.88786 12.4032 8.9655ZM13.2648 8.10314H13.4233V8.65216H13.2648C13.1842 8.30833 13.1815 8.44974 13.2648 8.10314ZM14.8352 7.47647H14.9909V8.0255H14.8352C14.7546 7.68166 14.7518 7.82308 14.8352 7.47647ZM16.325 7.08549C16.7863 6.96349 16.7169 6.62797 16.7169 6.06785C17.2533 6.42833 16.9059 6.9219 17.1866 7.47647C17.3311 7.75653 18.1288 8.25287 18.1288 8.41647C18.1288 8.83794 17.8481 9.04036 17.5006 9.12078L16.778 8.43588C16.4389 8.49965 16.2999 8.65216 15.8552 8.65216C15.8552 8.20019 15.9053 8.07818 16.1582 7.85635C16.5501 7.50697 16.3416 7.7288 16.325 7.08549ZM28.6405 33.461L28.5627 33.3833L28.4848 33.3029C28.382 33.2364 28.3486 33.192 28.2541 33.1421L28.0874 33.0728C27.8261 32.9508 27.7372 32.826 27.701 32.3657C27.8094 32.3657 27.9873 32.374 28.0902 32.3629C28.4515 32.3213 28.8156 32.1716 29.113 31.9747C29.113 30.8434 28.3903 31.5061 27.4704 31.1872L26.681 30.7214C26.6671 30.6992 26.6226 30.5328 26.6004 30.4857C27.1896 30.6243 27.2647 30.4857 27.8039 30.7741C28.2847 31.0319 28.4376 30.9571 29.113 30.9571C29.1797 30.6659 29.2408 30.738 29.2686 30.4081C29.7328 30.4081 29.9162 30.2611 30.2887 30.1724V29.7037C29.7634 29.7037 29.755 29.7398 29.3715 29.5235C29.1269 29.3849 29.1574 29.335 29.0324 29.0771C28.5627 29.0771 28.4292 29.0688 28.3264 28.6861C28.4654 28.4809 28.3681 28.5253 28.6405 28.4504V27.3551H29.5827V27.7461C30.7195 27.7461 29.6994 28.2175 31.0725 28.2175C31.0836 27.7683 31.192 27.9097 31.4366 27.6407C31.8535 27.186 31.9674 27.222 32.6428 27.2775C32.6428 27.6906 32.7373 27.9513 32.8763 28.2175C33.3265 28.2175 33.3488 28.1509 33.7045 28.0234C34.3744 27.7849 34.619 28.1731 34.9219 28.2119C35.3611 28.2702 35.7057 28.2702 35.8586 28.8442L35.6084 29.1436C35.1832 29.0549 34.958 29.1658 34.9164 28.6861H33.9741C33.9741 29.2351 33.838 30.0309 34.6023 30.0947C34.5467 30.7602 33.4016 30.6992 33.3488 31.19C32.8207 31.19 32.6789 30.8101 31.3782 30.9488C30.8696 31.0014 31.1614 31.2011 31.0252 31.6947C30.939 32.0052 30.9001 31.5976 30.939 32.0995C30.9863 32.6901 31.4032 32.6735 31.7979 32.8925C32.3371 33.1948 32.6456 32.8731 33.132 32.7761C33.6128 32.679 34.2326 32.8953 34.2882 32.2076H34.6023C34.7107 32.4738 34.7274 32.2991 35.022 32.4184C35.1387 32.4655 35.1498 32.4877 35.1748 32.5016C35.3666 32.5986 35.6751 32.6596 35.9447 32.5321L36.0448 32.4711C36.5284 32.2076 36.7202 32.2603 36.7202 31.5033C36.2449 31.4922 36.4923 31.556 36.4061 31.3481C36.5701 31.1761 36.5034 31.2455 36.7424 31.1345C36.9009 31.0597 36.9815 31.0319 37.1093 30.9543C37.8153 30.5162 37.7708 30.519 37.9848 29.6344C38.0626 29.3072 38.3989 29.2462 38.5268 28.9994L38.5685 28.8857C38.5713 28.8719 38.5824 28.8442 38.5852 28.8247C38.6797 28.431 38.7491 28.1593 38.5824 27.8487C38.5018 27.7017 38.4462 27.6296 38.3684 27.5132H37.8181C37.7986 27.5465 37.7458 27.6518 37.7041 27.7101C37.604 27.8515 37.6457 27.8016 37.5568 27.8764C37.3456 28.0567 37.3039 27.8847 37.2705 28.2951H36.9564C36.8731 28.0872 36.6312 28.1343 36.5395 27.918C36.5395 27.9152 36.534 27.8459 36.5062 27.7822C36.256 27.1943 35.9364 27.7101 35.9364 26.4955H35.2304C35.0637 26.7451 35.1026 26.551 35.0748 26.8865H34.6801C34.5995 26.6813 34.6996 26.8754 34.5773 26.7562C33.9352 26.1434 33.0264 26.881 33.4266 25.9576C33.4349 25.9382 33.4433 25.9188 33.4516 25.9021L33.6517 25.6249C34.1048 25.3088 34.5245 25.5777 34.5245 24.6155C34.8246 24.5462 34.8997 24.4381 35.186 24.3383C35.425 24.2551 35.7085 24.1996 35.9364 24.1469C35.9364 23.9944 35.9475 23.8197 35.942 23.67C35.9336 23.3012 35.9725 23.4537 35.8363 23.2263C35.2471 22.2586 36.534 22.8381 34.7607 22.425V22.2697C35.6307 22.0673 35.5445 22.4222 35.5445 21.3297H36.1726C36.1726 20.215 37.2483 20.5367 38.0571 20.5505C39.3356 20.5727 38.7325 20.1013 38.4212 19.5551C38.2377 19.239 38.5268 19.2944 37.9765 19.2944C38.0126 18.8646 38.0432 19.0587 38.3684 18.9034V18.2768C37.7097 17.9607 37.8903 17.8664 37.6874 17.2342C37.4345 16.4356 37.1121 17.3895 37.1121 16.0862C36.6702 16.0502 36.8619 15.9697 36.6535 15.7618C36.445 15.5538 36.3644 15.7451 36.3283 15.3043H35.2304C35.2471 15.49 35.5945 16.3746 35.9531 16.5382C35.9753 16.5493 36.042 16.5742 36.067 16.5826C36.0837 16.5909 36.1032 16.5992 36.1226 16.6047C36.3672 16.6962 36.0893 16.6796 36.4867 16.7129V16.8682C35.8419 16.9403 36.7063 17.2425 35.8586 17.2591C35.8586 18.1243 35.6056 18.5125 36.4867 18.5125C36.6062 19.0282 36.7508 18.9506 36.4867 19.4525C36.2421 19.2889 36.181 19.2944 36.1726 18.9034C35.9781 18.9034 35.7446 18.9229 35.5584 18.8896C34.8886 18.762 35.2221 18.1215 34.2104 18.1215C34.2104 19.1558 33.8185 18.2296 33.8185 19.6854C33.9575 19.7519 34.0714 19.7769 34.2104 19.8434C34.2104 20.2594 34.2966 20.2899 34.0547 20.4701C33.9436 19.9987 33.674 20.118 33.5128 19.7547C33.421 19.5467 33.5545 19.7103 33.3738 19.4247C33.0514 18.909 32.7873 19.0698 32.7206 18.2768C32.5872 18.2768 32.3732 18.2657 32.2509 18.2795C31.6256 18.3516 32.1203 18.4348 30.8362 18.4348C30.8362 18.5707 30.8584 18.6844 30.864 18.7925C30.8946 19.458 30.839 19.189 31.3865 19.4525C31.3865 20.24 31.406 20.0764 30.6027 20.0764C30.5916 20.5256 30.5638 20.3342 30.3665 20.6254C30.4638 20.9914 30.4554 20.9554 30.3665 21.3297C30.7695 21.3297 30.9085 21.4323 31.2587 21.6153C31.5394 21.7595 31.3587 21.79 31.7062 21.8066C32.1175 21.826 32.5289 21.3214 33.0153 21.3463C33.1876 21.3574 33.8157 21.5654 33.9741 21.643C33.9741 22.4832 33.5822 21.8205 33.5822 22.974H34.2882C34.4272 23.1792 34.4856 23.2984 34.6023 23.5203C34.0547 23.5674 34.5467 23.7615 33.9019 23.6034C33.5461 23.5175 33.4822 23.5203 33.0347 23.5203V24.0693C32.137 24.0693 32.615 24.0554 32.073 23.7754C31.8868 23.6811 31.1781 23.5452 31.0308 23.792C30.9641 23.9001 31.0196 24.5629 30.8751 24.8873C30.7417 25.1784 30.8946 25.0065 30.561 25.2034C30.272 25.3725 29.9607 25.4224 29.7217 25.6165C29.516 25.7829 29.6383 25.819 29.3353 25.8689C29.1491 25.9021 28.8489 25.7774 28.8211 25.7691C28.5349 25.672 28.5432 25.7386 28.2458 25.7136C27.5676 25.6581 28.0735 25.2367 27.7149 24.9871C27.362 24.7403 27.0034 24.9594 26.9923 25.4003C27.4036 25.4335 27.134 25.3254 27.2285 25.5555C26.8394 25.7413 26.87 25.4724 26.5809 25.342C26.4809 25.2949 26.4197 25.306 26.2863 25.2422C26.3808 24.8984 26.5448 24.9843 26.3391 24.5739C26.0973 24.0859 25.9973 24.3715 25.8944 23.9916C26.2585 24.2329 26.3669 24.1497 26.9923 24.1469L27.9234 24.1358C28.1374 24.061 28.0068 24.2024 28.0929 23.9916C28.3347 23.8946 28.1986 24.1303 28.2569 23.7504C28.3514 23.1487 27.6705 23.2984 27.4842 23.2679C27.034 23.1875 27.2369 22.999 26.6754 22.8991C25.925 22.7633 26.4809 22.7577 25.8527 22.4666C25.5081 22.3085 25.597 22.3335 25.194 22.2642C24.6882 22.1754 23.9961 22.0395 24.0017 21.4073C24.0072 20.8583 24.3046 21.1855 24.2574 20.3869C24.2296 19.9155 24.0878 19.8296 23.368 20.2178C23.0455 20.3925 23.1984 20.4313 22.8371 20.4701C22.5786 20.4978 22.2534 20.4341 21.9922 20.4867C21.2917 20.6309 20.9582 21.0912 20.9527 21.094C21.036 20.7446 21.1083 20.8444 21.1889 20.5477L20.9388 20.2455L20.1689 20.2344V20.4701C19.8798 20.4618 19.9104 20.545 19.7325 20.2788L19.6186 19.8434C20.0104 19.702 19.6297 19.397 20.4051 19.2168V18.9811C19.5407 18.9811 19.9326 18.9977 19.5407 19.1391C19.3351 18.7121 19.3823 18.4903 19.3851 17.8858C19.3851 16.9902 19.235 16.2138 19.877 16.8404C20.0855 17.0456 20.1411 17.0234 20.1689 17.3395H20.797L22.1311 18.6677V19.9211C22.3618 20.032 22.3813 20.0098 22.6008 20.1568C23.3874 19.4747 23.9211 18.9839 24.4575 19.7908C24.6131 20.0237 24.3658 19.6577 24.5381 19.9433C24.766 20.3204 24.6937 19.9932 24.9689 20.3758C25.2079 20.7141 25.7666 21.0053 26.2446 21.1411C26.8033 21.2992 26.7894 21.0801 27.0368 20.9831C27.3175 20.8722 27.7677 20.9387 28.0929 20.9387C28.193 20.5006 28.3792 20.5644 28.0568 20.1152C27.7789 19.7214 27.8567 19.9682 27.8567 19.0615H26.9923V19.6854H26.4448C26.4614 19.4913 26.5531 19.2251 26.6588 19.1197C26.92 18.8535 26.9589 19.0698 27.3064 18.9034C27.2174 18.5208 27.0812 18.5846 27.0729 18.1215H26.1307C26.2168 17.9607 26.2391 17.9357 26.2863 17.7305C26.9284 17.7832 26.189 17.9634 27.0729 17.9634V17.2591C26.7727 17.2591 26.5921 17.2896 26.3419 17.2064C26.1557 17.1427 26.3641 17.1039 25.661 17.1039C25.6721 16.5992 25.6109 16.9153 25.8611 16.6796C26.2141 16.3469 25.9417 16.638 26.0807 16.1916C26.1362 16.0141 26.0556 16.1777 26.1835 15.9836C26.4086 15.637 26.4448 15.7202 26.4448 15.1462C26.7755 15.1185 26.8061 14.9882 27.0145 14.7746L27.6871 14.0398C27.8483 13.8346 27.5426 13.9844 27.9623 13.843C28.9823 13.5019 29.2797 13.0777 29.9134 12.9723C30.2859 12.9113 30.675 12.9335 30.9918 13.0361C31.5644 13.2218 31.3448 12.9612 31.3865 13.3466C31.884 13.3466 32.3815 13.3466 32.8763 13.3466C33.4739 13.3466 33.9297 13.1913 34.0547 13.66H33.0347V14.3643C33.7296 14.3643 33.1709 14.5362 33.8157 14.6C34.1215 14.6305 34.53 14.575 34.8441 14.5972C35.4556 14.6415 35.0025 14.8135 35.5779 14.6415C35.9559 14.5306 35.9864 14.4835 36.1726 14.209C35.4528 13.1387 35.9475 13.9372 35.4778 13.4936C35.2554 13.2828 35.3666 13.3078 35.2805 12.9834L35.0748 12.487C34.7635 12.487 34.6106 12.512 34.3438 12.4316L33.4516 12.146C32.9791 11.9907 32.829 12.2347 32.4844 11.938C32.8791 11.9047 32.5817 11.9519 32.8763 11.78C33.0931 11.6524 33.3377 11.5276 33.4544 11.2614C33.6378 10.8483 33.2793 10.9703 33.7407 10.9204C33.6906 10.3436 33.3488 10.0774 33.3488 9.27606H32.7206C32.6456 8.96272 32.5678 8.89063 32.3343 8.72426C31.909 8.41924 31.6478 7.39605 31.1225 7.67057L30.9168 7.94785C30.8946 7.70384 30.9168 7.79812 30.8362 7.63452C29.7217 7.63452 30.9363 7.24355 29.0324 7.24355C29.0324 8.25564 29.2631 7.84526 29.4132 8.42756C29.5021 8.77417 29.3993 8.72703 29.6744 8.95163C29.8801 9.118 30.0079 9.12078 30.3665 9.12078C30.3554 9.65871 30.2498 9.27883 30.2108 9.74744C30.7445 9.88886 29.869 10.3741 31.3865 10.3741C31.003 10.8954 30.4526 10.4823 30.0635 10.851C29.3854 11.4916 30.461 12.5841 29.1102 12.4954C28.5654 12.4593 28.8934 12.3733 28.5376 12.2763C28.2541 12.1987 28.1346 12.2402 28.1068 12.2375C27.9345 12.207 27.9762 12.2014 27.9234 12.1848L27.1424 11.9463C26.9311 11.5581 26.6449 11.4694 26.2085 11.4694C26.1807 11.8077 26.0223 12.1155 25.9194 12.4316L25.875 12.5453C25.8666 12.5674 25.8416 12.6368 25.8333 12.659C25.7249 12.9556 25.4664 13.0749 25.3775 13.3771C25.2969 13.6461 25.3441 13.9982 25.3469 14.2866C25.3552 15.368 25.2496 14.9632 24.9661 15.7146C24.9216 15.8283 25.0022 15.7424 24.905 15.8866C24.7743 16.0807 24.7326 15.9476 24.6687 15.942C24.3241 15.9226 24.249 16.2304 24.249 15.4595L23.6681 15.2571C23.4736 15.1601 23.393 15.0741 23.1484 15.0686V15.3043C22.7954 15.2738 22.7537 15.0603 22.5758 14.7802C22.2896 14.3227 22.209 14.6 22.209 14.0509H21.4252C21.1139 14.6942 21.1111 14.6471 21.1111 15.4595C20.8387 15.5316 21.0638 15.4595 20.8498 15.5926C20.6303 15.7313 20.3162 16.0862 20.091 16.0862C19.8159 16.0141 19.6463 15.8644 19.6186 15.5372C19.9882 15.3902 19.6074 15.5677 19.8159 15.3431C19.8298 15.3264 19.8715 15.2738 19.8882 15.2599C19.9799 15.1767 19.9465 15.2211 20.0299 15.1628C20.3662 14.9216 19.8548 15.3514 20.1244 15.1018L20.4051 14.3643C20.583 13.843 20.5858 14.4197 20.6441 13.8236C20.6525 13.7404 20.6386 13.5241 20.6386 13.4243C20.9749 13.2634 20.9332 13.4769 21.0305 13.1109C21.3279 13.1359 21.1834 13.147 21.314 13.2218L22.6787 13.9733C22.8538 13.8541 22.7759 13.9594 22.8371 13.7376H23.1484C23.204 13.9677 23.14 13.8513 23.3068 13.9733C23.6709 13.7071 23.2207 13.7376 23.8544 13.7376V13.3466C24.4158 13.3466 24.93 13.671 25.2996 13.2163C25.6999 12.7283 25.0662 12.3428 24.6298 12.2624C24.4769 12.2347 24.5159 12.2541 24.3685 12.2097C24.1101 12.1266 23.9628 11.9851 23.7765 11.8604C23.6542 12.0434 23.5681 12.1099 23.4013 12.268C23.1651 12.4898 23.1484 12.4482 23.1484 12.878H22.6008C22.687 12.5508 22.6981 12.756 22.7871 12.5148C22.8982 12.2153 22.7426 12.2735 22.9316 12.0351C23.09 11.8382 23.5959 11.8271 23.8544 11.7023V11.0784C23.5431 11.084 23.6125 11.0756 23.4625 11.2337C23.4569 10.9259 23.4847 11.0507 23.3846 10.8427C22.5592 10.8427 22.9427 10.8455 22.3646 10.998C22.3646 11.8382 22.473 11.3834 22.6008 11.8604C22.4285 11.7467 22.3618 11.6247 22.2173 11.5387C22.07 11.4528 21.8365 11.4056 21.6586 11.3113C21.6697 10.8871 21.8198 10.8261 22.1283 10.6847C22.6481 10.4462 22.6008 10.6847 22.6008 10.0608C21.6114 10.0608 21.9282 9.88609 21.8059 9.20951C21.767 8.98213 21.4252 8.55789 21.4252 7.47647C20.772 7.49033 20.6052 8.10868 20.5608 8.65216C20.3384 8.65216 20.3801 8.61612 20.2272 8.71039C19.8937 8.92113 19.9326 9.35647 19.9326 9.74744H20.1689C20.1689 11.547 19.8631 10.3242 19.3045 11.1561L19.5824 11.7411C19.7408 12.0323 19.9132 11.9241 20.1689 12.0961C20.1411 12.4233 19.8242 12.6839 19.6269 12.9612C19.5407 13.0804 19.4212 13.1636 19.3712 13.2551C19.2016 13.5657 19.3462 14.2755 19.2406 14.6332C19.2128 14.7331 19.0905 14.8246 19.3045 14.9133V15.3043C18.8097 15.3459 18.9737 15.5982 18.7569 16.0086C18.5818 15.881 18.5596 15.7701 18.5012 15.637C18.3206 15.2155 18.6374 15.3514 18.2066 15.3043V14.5195C18.5457 14.4918 18.3484 14.5306 18.5985 14.3643C18.5985 13.9511 18.7013 13.696 18.404 13.5435C18.051 13.3577 17.9731 13.6045 17.9731 12.9556H18.7569C19.0793 12.5841 19.021 12.4177 18.8292 12.0988L18.6958 11.8326C18.5235 11.3502 18.882 11.5748 18.6958 10.9925L18.5985 10.2937C18.8514 10.1273 18.6541 10.1661 18.9932 10.1384C18.9932 9.83063 19.0071 9.49789 18.9987 9.19287C18.9821 8.54125 18.8765 8.93777 18.7569 8.49411C19.2267 8.53293 18.8903 8.61889 19.3045 8.7298C19.5491 8.56898 19.4018 8.55789 19.7075 8.5052C20.0438 8.4442 20.0188 8.56343 20.3245 8.41647C20.4746 8.10591 20.3329 8.07818 20.2745 7.84526C20.2161 7.60957 20.2467 7.33228 20.2467 7.08549C19.6714 7.08549 19.4963 7.15759 19.3851 7.63452C19.1766 7.61511 19.021 7.56797 18.7958 7.51529C18.3511 7.41269 18.5568 7.51252 18.3011 7.22968C17.862 6.74721 17.8147 6.99954 17.8147 6.14549L18.365 6.93021C19.2072 6.93021 19.2544 7.00508 19.6186 6.45883L19.2739 5.39682C18.9181 4.85611 18.8626 5.21381 18.6791 4.42632C19.1961 4.46791 19.3045 4.79511 19.3045 5.28591H20.091C20.2467 5.05298 20.3996 4.94762 20.4135 4.5816C20.4274 4.19617 20.2967 4.04089 20.1689 3.79965C19.9243 3.85511 19.941 3.89947 19.6992 3.95493L19.2267 2.85965H17.7369C17.7035 3.24785 17.5368 3.17298 17.3394 3.40313C17.2338 3.52236 17.0004 3.74974 16.7947 3.75528L16.3194 3.65269C15.5773 3.50295 16.1665 3.27281 15.4634 3.23953C15.1243 3.22289 14.6073 3.31995 14.5211 3.6416H14.2071C14.0681 3.12584 13.729 3.25062 13.1092 3.25062C13.1092 3.33936 13.1175 3.38372 13.0925 3.46968L12.9813 3.6721C12.9702 3.68319 12.9536 3.69983 12.9424 3.71369C12.7423 3.97157 12.4394 4.10744 12.1309 4.23222C12.1114 4.24054 12.0919 4.24608 12.0725 4.25163C12.053 4.25995 12.0308 4.26272 12.0113 4.26826C11.8196 4.32372 11.7918 4.30986 11.575 4.38195C11.1442 4.52337 11.2637 4.54555 11.0108 4.91434C10.8885 5.08903 10.8885 5.04467 10.8329 5.28591L11.361 5.62142C12.0141 5.93476 12.0892 5.2665 12.0892 6.61688C11.6723 6.58083 11.9974 6.56142 11.6723 6.48378C11.4805 6.43942 11.2692 6.45883 11.0691 6.45883C10.8996 6.20927 10.9413 6.40614 10.9107 6.06785H10.2853V6.45883C9.95458 6.45883 9.899 6.48101 9.70166 6.25918C9.59326 6.13717 9.64051 6.23977 9.57936 6.06785H8.71497V5.83493C8.3064 5.86821 8.30362 6.17599 7.99511 6.36732C7.74218 6.5226 7.21132 6.45883 6.83332 6.45883C6.79441 6.92744 6.61097 6.72779 6.48033 7.04667C6.38028 7.28791 6.44142 7.67057 6.44142 7.94785C5.76325 8.26951 6.26354 7.87299 5.81328 8.80744C6.03563 9.14019 6.04397 8.89063 6.04953 9.43134C6.05787 10.0691 6.17182 10.2355 6.63042 10.5738C6.8222 10.7179 6.88613 10.8843 6.98896 11.0784C6.49145 11.0673 6.82776 11.023 6.44142 10.9204C6.44142 11.2697 6.48033 11.3779 6.36082 11.6247C5.8772 11.4971 6.35248 11.2697 5.77993 11.1089C5.43528 11.0119 5.22405 11.0285 4.87106 10.8427C4.80436 10.9841 4.6765 11.4472 4.63481 11.6247C4.09005 11.6247 4.00389 11.5027 3.99833 12.085C3.99833 12.451 4.06226 12.842 3.94274 13.1248L3.54251 14.3698C3.40076 14.6499 3.39242 14.3643 3.38131 14.8329H2.43909C2.01662 15.7146 2.17505 14.9854 1.91934 15.5649C1.83874 15.7451 1.82206 15.8893 1.74702 16.0224C1.62473 16.2443 1.5469 16.0363 1.56914 16.4716C1.59137 16.8737 2.02218 16.8959 1.75536 17.4338C1.5469 17.8525 1.57748 17.3506 1.57748 18.5125H2.67534C2.78095 18.6705 2.88379 18.823 2.98941 18.9811C2.47522 19.1003 1.8165 19.0615 1.18558 19.0615C0.732538 19.7325 0.688068 19.4247 0.443481 20.276C0.340643 20.6282 0.335084 21.2382 0.424025 21.6181C0.501848 21.9453 0.521304 21.6208 0.557436 22.034C0.435143 22.4888 0.207232 22.2392 0.165541 22.7383H0.39901C0.360099 23.2319 0.107174 22.9601 0.348981 23.7282C0.521304 24.28 0.751994 24.0665 0.790906 24.5379C0.454598 24.5656 0.651936 24.5268 0.39901 24.696V25.4003C0.740876 25.4363 0.63248 25.489 0.790906 25.7912C0.512966 25.9243 0.315628 26.0796 0.00711526 26.1046C0.00711526 26.3347 -0.00400233 26.587 0.00155646 26.8144C0.0210123 27.6906 0.39901 26.9059 0.39901 28.6085C1.02715 28.6223 0.590789 28.7804 0.952111 28.9967C0.95767 29.0022 1.15223 29.0632 1.18558 29.0771L1.22727 29.5041C1.23561 29.5207 1.24673 29.5401 1.25507 29.554C1.41071 29.884 1.33289 29.4875 1.41905 29.9394C1.52745 30.5273 1.47742 30.7713 2.12502 30.8794C2.72815 30.9793 2.75594 31.1983 3.45913 31.0347C3.36185 31.2371 3.35907 31.5616 3.25623 31.8499C2.86434 32.9535 3.16173 32.7178 2.28344 32.9147C1.75258 33.034 1.54412 32.8399 1.41905 33.1476C1.20504 33.2336 1.33011 33.1449 1.25784 33.375C1.13277 33.7743 1.2773 34.1376 1.03271 34.4037C0.665833 34.8003 0.790906 34.4453 0.790906 35.8096C1.28564 35.8623 0.877067 35.7652 1.07162 36.1562C1.1967 36.4113 1.24951 36.3558 1.57748 36.3558C1.57748 36.8383 1.77203 36.9825 2.09722 37.1683C2.11668 37.1794 2.1806 37.2071 2.20006 37.221C2.35015 37.3208 2.3168 37.3652 2.43353 37.5371C2.65588 37.8615 2.80319 37.6646 3.1256 37.8615C3.12838 37.8615 3.25623 37.9669 3.25623 37.9669C3.26735 37.978 3.28403 37.9946 3.29514 38.0057L3.74541 38.3412C4.22068 38.6074 3.85102 38.5409 4.47083 38.6351C5.47975 38.7821 4.7182 38.9596 6.47755 38.2719C6.74438 38.1665 6.66933 38.3135 6.7555 38.0002L7.69493 38.1554C7.74496 37.9502 7.7672 37.9253 7.85336 37.7645C8.24525 37.7645 8.62325 37.8476 8.89563 37.6314L9.38481 37.1794C9.4265 37.1212 9.47653 37.0158 9.49876 36.9825C10.7773 36.9825 10.3215 36.7357 11.2275 36.3558L11.7362 36.0065C12.0169 35.6626 11.9307 35.6571 11.9307 35.1053C12.0836 35.0304 12.0002 35.0886 12.1114 35.0471C12.7951 34.803 12.3032 34.6228 13.8124 34.6339C15.3299 34.645 14.157 34.5452 15.2271 34.7892C15.7774 34.9167 16.6918 35.7874 16.5195 36.3863C16.4417 36.6609 16.4306 36.3364 16.4 36.8217C16.3889 36.9964 16.4278 37.2931 16.4028 37.4511C16.3277 37.9281 16.1665 37.5731 16.1665 38.3911L15.8302 38.6046C15.808 38.6157 15.7468 38.6518 15.7218 38.6601C15.4022 38.7821 15.3049 38.6213 15.052 38.5658C14.6545 38.4771 13.9041 38.38 13.5734 38.5409C13.2093 38.7183 13.4427 38.674 13.2926 38.8098C13.1175 38.9707 13.162 38.9318 12.873 38.9402C12.9146 39.4476 13.2787 39.2618 13.5011 39.564C13.112 39.8247 13.1453 39.6306 12.7951 39.7997C12.62 40.163 12.9119 40.5013 12.9508 40.9727C12.6311 40.8895 12.6784 40.7009 12.5089 40.3959C12.1142 39.6777 11.4555 40.0826 10.9107 40.1103C10.4048 40.1353 10.441 40.2351 10.441 40.7397H10.1269C10.0157 40.4292 9.93513 40.5041 9.34311 40.5041C9.2375 40.6621 9.13466 40.8146 9.02904 40.9727C8.15353 40.2878 8.16932 41.0531 8.16932 41.0531C8.15264 41.8239 7.89416 41.5993 9.97314 41.5993H29.4941L29.0523 41.96C27.0594 41.96 31.7038 42.2903 29.7102 41.0531C29.4941 41.0531 29.7939 41.2056 28.9379 40.2074C28.5404 39.7415 28.4848 40.2295 28.4848 39.564L28.0207 39.5835C27.7066 39.5807 27.7233 39.6278 27.4648 39.7221C27.4648 38.9596 26.7616 39.1287 26.189 38.9596C25.7193 38.8209 25.8778 38.6573 25.5637 38.5658C25.3969 38.5215 24.7743 38.5464 24.5631 38.5464V39.3311C24.0878 39.3311 23.9627 39.2396 23.6348 39.0816C23.3596 38.9485 23.1595 38.7128 22.7565 38.7045V38.9402H22.4424C22.3813 38.7045 22.4452 38.7682 22.209 38.7045C21.8226 39.503 22.07 39.0871 22.145 39.955C22.1617 40.1741 22.2618 40.3515 22.1283 40.3571C21.8754 40.3654 22.1978 40.4236 22.0477 40.2878L21.9282 40.1713C21.7337 40.0382 21.3084 39.9633 21.1222 39.7887L21.0499 39.7027C20.2773 38.735 20.9026 38.9845 20.5274 38.3468C20.3857 38.1028 20.4329 37.9086 20.394 37.6203C20.3468 37.2737 20.1439 37.2043 20.2939 36.7108C20.419 36.3004 20.4079 36.9132 20.2606 36.1118C20.2411 36.0009 20.2467 35.9205 20.2467 35.8096C20.5552 35.8013 20.4301 35.829 20.6386 35.7292L20.7498 35.1358C21.0027 34.2623 20.5858 34.5923 21.5252 34.3455C21.8115 34.2707 21.981 34.2707 22.0505 34.0072H22.3646C22.4063 34.5063 22.5592 34.1597 22.8093 34.7393C22.8176 34.7614 22.8482 34.8252 22.8593 34.8474C23.0789 35.28 23.5347 35.524 23.9627 35.5628C24.4075 35.6044 24.1851 35.5739 24.249 35.4158H24.7187C24.8494 35.9039 24.955 35.4491 24.955 36.3558C25.5998 36.3558 25.1968 36.5167 25.7388 36.5915C25.8194 36.6026 26.1668 36.6858 26.542 36.8855C26.7838 37.0158 26.7588 37.0324 26.7588 37.3735C27.1201 37.3735 27.5065 37.3596 27.8622 37.3679C28.5766 37.3846 29.0602 38.1027 30.0719 37.6203C30.4971 37.4151 30.1608 37.3374 30.9918 37.5315L31.4977 37.7367C31.7284 37.8005 32.5566 37.6092 32.7206 37.5315C32.7206 37.3069 32.7234 37.1073 32.615 36.9298C32.4955 36.733 32.6234 37.1267 32.4844 36.7468C32.5928 36.6747 32.6373 36.6581 32.7345 36.6054L33.6017 36.0619C33.9047 35.8817 34.0408 35.9898 34.4439 35.9649C34.7496 35.9427 34.9386 35.8429 35.1526 35.7292C35.0498 35.3438 34.8774 35.5462 34.9386 35.2079C35.0025 34.853 35.1526 35.2217 35.1526 34.5563C36.0281 34.5563 35.9364 34.5563 35.9364 33.6967C35.4194 33.5747 35.9086 33.5358 35.1248 33.253C34.3327 32.9702 34.4022 33.0256 33.6545 33.2974C33.3543 33.4083 33.4766 33.0922 33.4266 33.5386H33.1125V33.3029C31.3143 33.3029 30.5138 32.8343 29.5049 32.8343C29.5049 33.1421 29.5299 33.1532 29.5827 33.3833H30.2108V33.6967C29.9913 33.7549 30.0719 33.741 29.9246 33.8797L29.7383 34.0876C29.327 33.9767 29.1269 33.7993 28.7794 33.558C28.7656 33.5497 28.7433 33.5331 28.7322 33.5248L28.6405 33.461Z" fill="#1E5BA6"/>
<path fill-rule="evenodd" clip-rule="evenodd" d="M23.6209 3.79965C23.5125 3.96048 23.3847 4.00207 23.3847 4.19062C23.3847 4.76738 24.3436 4.33204 24.7772 4.60101C25.1663 4.84225 24.7188 4.76738 25.2691 5.05021C25.6304 5.23322 25.5804 5.15558 25.5804 5.67688C26.0279 5.71293 25.8778 5.91257 26.0529 5.91257C26.3614 5.91257 27.387 5.21658 27.387 6.14549C27.387 6.50042 27.3815 6.11222 27.2953 6.37009C27.2147 6.61133 27.2647 6.63906 27.1285 6.90803C27.0646 7.03558 26.9923 6.97181 26.9923 7.16313C26.9923 7.40992 27.0841 7.30178 27.1702 7.4626L27.2842 7.74266C27.2897 7.75653 27.2981 7.77871 27.3009 7.79535C27.4065 8.28337 26.9618 8.16691 27.387 8.33883V8.65216C27.1786 8.73535 27.2397 8.49133 27.2286 8.96549H28.2486V8.7298H28.6405C28.6405 7.93399 28.6405 8.2806 28.4515 8.05599C28.1625 7.71216 28.1069 7.36555 28.6405 7.32119V6.45883C28.8601 6.31464 28.8796 6.33682 29.113 6.22591C29.113 5.23599 29.227 5.79888 29.2687 5.2859C28.8823 5.10012 27.9401 5.16944 27.6983 4.66201C27.6955 4.65369 27.6566 4.49841 27.6205 4.42632H26.367C26.1363 3.94661 26.3364 4.2544 26.0223 3.98266L25.9112 3.86343C25.9 3.84956 25.8889 3.82738 25.8778 3.81629C25.4136 3.22567 25.8389 4.01316 25.3775 3.06484L25.2691 2.85965C23.7293 2.85965 24.4381 3.56118 24.0767 3.93829C23.8822 4.14349 23.9961 3.97711 23.8933 3.9272C23.6015 3.7941 23.9628 3.87729 23.6209 3.79965Z" fill="#1E5BA6"/>
<path fill-rule="evenodd" clip-rule="evenodd" d="M37.8181 25.0868H37.2706C37.1844 24.8761 37.3178 25.012 37.101 24.9426C37.051 24.926 36.7925 24.9232 36.7286 24.9232C36.4618 24.926 36.2005 24.9288 35.9365 24.9288C35.8864 25.1451 35.6502 25.4168 35.8753 25.7745C35.9976 25.9686 35.9003 25.9187 36.1727 25.9464C36.1977 26.2542 36.3506 26.3651 36.5507 26.5093C37.315 27.0694 38.0961 26.6591 38.4046 26.1405C38.5519 25.891 38.3351 26.0019 38.8409 25.7163L39.2162 25.5388C39.8749 25.2172 39.1606 24.707 38.6047 24.6959V24.9288H38.2906V24.6959C37.9154 24.7042 37.8487 24.7291 37.8181 25.0868Z" fill="#1E5BA6"/>
<path fill-rule="evenodd" clip-rule="evenodd" d="M21.5808 2.23292H21.3446C21.3168 2.56012 21.2807 2.59894 20.9527 2.62389C20.8999 3.25888 20.5608 2.75422 20.5608 3.56389C20.5608 3.89663 20.7192 3.5528 20.7192 4.11292C20.7192 4.52053 20.5608 4.56489 20.5608 4.89486C20.5608 5.19433 20.9527 5.44389 21.1111 5.67681C21.5002 5.57421 21.1973 5.52153 21.8171 5.52153C21.8393 5.23315 21.9283 5.20542 22.0505 4.9725C21.931 4.80059 22.0394 4.87545 21.8171 4.81722V4.34584C22.12 4.26543 21.9338 4.40684 22.1228 3.79127C22.1312 3.76631 22.1589 3.70253 22.1645 3.67758C22.2507 3.37256 22.209 2.96495 22.209 2.62389C22.5981 2.4187 22.6009 2.58785 22.6009 2H21.5808V2.23292Z" fill="#1E5BA6"/>
<path fill-rule="evenodd" clip-rule="evenodd" d="M36.4061 22.5025C36.4061 22.6772 36.5367 22.7438 36.6368 22.9018C36.7341 23.0571 36.7758 23.1902 36.9286 23.3122C37.2038 23.5341 37.1009 23.3871 37.4567 23.4925C37.7624 23.5867 37.5873 23.6006 38.0543 23.6006C38.0988 24.1108 38.285 23.9916 39.3106 23.9916C39.3189 23.5257 39.4551 23.5895 39.544 23.2069C38.9576 23.1958 39.494 23.1431 38.8409 22.9712L38.1543 22.7854C37.7875 22.6162 38.1321 22.4831 38.1321 22.2696C38.1321 22.0644 38.0237 22.0589 37.9181 21.9341C37.6374 21.6014 37.6485 21.1743 36.4061 21.1743V22.5025Z" fill="#1E5BA6"/>
<path fill-rule="evenodd" clip-rule="evenodd" d="M25.4248 7.78977C25.4248 8.25562 25.0329 7.77036 25.0329 8.80741C24.955 8.84624 24.855 8.86287 24.855 8.86565C24.7966 8.88783 24.8022 8.88228 24.7438 8.91001C24.3547 9.10134 24.7494 9.12075 24.1685 9.12075C24.1601 9.60045 24.1045 9.3093 24.0573 9.55609C23.9711 10.0136 24.1685 9.45904 24.1685 10.216H25.2691C25.2691 9.37031 25.3108 9.74464 25.447 9.45626C25.6026 9.12629 25.4275 9.00429 25.8945 8.96547C25.9417 8.40258 26.4754 8.50795 26.5226 7.94783C26.1974 7.9201 26.0807 7.80364 26.0529 7.47644H25.4248V7.78977Z" fill="#1E5BA6"/>
<path fill-rule="evenodd" clip-rule="evenodd" d="M30.6806 16.3219C30.172 16.3219 30.2026 16.455 29.655 16.4716C29.0436 16.491 29.1909 16.5409 29.1909 17.1815H29.4243V17.4171C30.2248 17.4171 29.7718 17.5724 30.1303 17.5724C30.3415 17.5724 30.6334 17.334 30.8585 17.1232C31.0419 16.9513 31.4644 16.735 31.4644 16.4771C31.4644 16.1694 31.4978 16.4633 31.3505 16.2803L31.2726 16.1999C31.2615 16.186 31.2448 16.1721 31.2337 16.161L30.9169 15.9309C30.6556 16.1194 30.8279 16.0141 30.6806 16.3219Z" fill="#1E5BA6"/>
<path fill-rule="evenodd" clip-rule="evenodd" d="M28.1708 10.4517C28.1708 11.8187 28.0708 11.4388 28.4071 11.938C28.7323 11.7217 28.546 11.7023 29.113 11.7023C29.138 11.3751 29.177 11.339 29.5049 11.3113C29.5438 10.851 29.6606 11.1477 29.6606 10.8427C29.6606 10.5571 29.5689 10.5682 29.5049 10.2937C28.6517 10.2937 29.2103 10.0607 28.5627 10.0607C28.3793 10.0607 28.1708 10.2687 28.1708 10.4517Z" fill="#1E5BA6"/>
<path fill-rule="evenodd" clip-rule="evenodd" d="M34.6023 16.2414H33.8963C33.888 16.6546 33.8157 16.5409 33.7407 16.8681C33.963 16.8875 34.5106 17.0345 34.6801 17.0151C35.0998 16.9707 34.8664 16.6768 35.3889 16.6352C35.3805 16.283 35.3083 16.1998 35.0748 15.8505C34.719 15.9947 34.9553 16.2414 34.6023 16.2414Z" fill="#1E5BA6"/>
<path fill-rule="evenodd" clip-rule="evenodd" d="M23.3846 3.3282H23.8543C23.9044 3.12301 24.3824 2 23.4624 2C22.7259 2 22.9733 2.57121 23.2234 2.94277C23.4096 3.22006 23.354 2.95387 23.3846 3.3282Z" fill="#1E5BA6"/>
<path fill-rule="evenodd" clip-rule="evenodd" d="M30.4443 29.2351C30.4443 29.6149 30.4721 29.8617 30.9947 29.8617C31.3337 29.8617 30.9863 29.8728 31.2059 29.7591L31.7784 29.3903C31.645 28.894 31.3893 28.9994 30.6806 28.9994C30.4999 28.9994 30.4443 29.0548 30.4443 29.2351Z" fill="#1E5BA6"/>
<path fill-rule="evenodd" clip-rule="evenodd" d="M28.8768 22.974C28.9073 23.3566 29.0741 23.3095 29.2687 23.6006C30.1164 23.3733 29.9746 23.2207 29.9746 22.7383C28.7489 22.7383 29.68 22.9545 28.8768 22.974Z" fill="#1E5BA6"/>
<path fill-rule="evenodd" clip-rule="evenodd" d="M26.681 10.607H27.4648V10.374C27.4648 10.1189 27.3953 10.313 27.3064 9.9803H26.681V10.607Z" fill="#1E5BA6"/>
<path fill-rule="evenodd" clip-rule="evenodd" d="M28.3264 21.5653C28.3264 21.8287 28.5377 21.9397 28.6544 22.0977C28.8795 22.4027 28.6794 22.4665 29.113 22.5026V21.7982C28.6516 21.7622 28.7044 21.6069 28.407 21.4073C28.4042 21.41 28.3264 21.5542 28.3264 21.5653Z" fill="#1E5BA6"/>
<path fill-rule="evenodd" clip-rule="evenodd" d="M24.0906 5.75447H24.5631C24.5631 5.01412 24.7049 5.69624 24.7188 5.05016C24.5381 4.93093 24.5603 4.90043 24.249 4.89488C24.249 5.24981 24.2101 5.18881 24.1684 5.28586C24.0934 5.47164 24.1684 5.13058 24.099 5.44945C24.0823 5.52987 24.0906 5.67128 24.0906 5.75447Z" fill="#1E5BA6"/>
<path fill-rule="evenodd" clip-rule="evenodd" d="M28.4848 33.3029L28.5627 33.3833L28.6405 33.461H29.1908V32.8343C28.571 32.8343 28.8739 32.887 28.4848 32.9923V33.3029Z" fill="#1E5BA6"/>
<path fill-rule="evenodd" clip-rule="evenodd" d="M25.8166 6.30349V6.53918H26.681C26.6727 6.17039 26.5671 6.06779 26.2085 6.06779H26.0529C25.8722 6.06779 25.8166 6.12325 25.8166 6.30349Z" fill="#1E5BA6"/>
<path fill-rule="evenodd" clip-rule="evenodd" d="M31.3087 15.5371C31.4032 15.5925 31.3921 15.6175 31.545 15.6175H32.0147V15.1461C31.5811 15.1461 31.4005 15.1905 31.3087 15.5371Z" fill="#1E5BA6"/>
<path fill-rule="evenodd" clip-rule="evenodd" d="M26.681 16.2414C26.6894 16.6573 26.681 16.6352 27.1507 16.6352C27.4481 16.075 27.1202 16.0723 26.681 16.2414Z" fill="#1E5BA6"/>
<path fill-rule="evenodd" clip-rule="evenodd" d="M22.6009 3.79959H23.0706V3.3282H22.6009V3.79959Z" fill="#1E5BA6"/>
<path fill-rule="evenodd" clip-rule="evenodd" d="M34.3689 15.4595C34.5579 15.5676 34.5384 15.5371 34.8386 15.5371C34.9303 15.3625 34.9692 15.3014 35.0748 15.1462C34.6107 15.1462 34.4634 15.063 34.3689 15.4595Z" fill="#1E5BA6"/>
<path d="M51.4 10.06C51.2067 10.06 51.05 10.0033 50.93 9.89C50.8167 9.77 50.76 9.61 50.76 9.41V3.56C50.76 3.36667 50.8133 3.21667 50.92 3.11C51.0333 3.00333 51.1867 2.95 51.38 2.95H53.84C54.5933 2.95 55.18 3.14 55.6 3.52C56.02 3.89333 56.23 4.42 56.23 5.1C56.23 5.78 56.02 6.31 55.6 6.69C55.18 7.07 54.5933 7.26 53.84 7.26H52.05V9.41C52.05 9.61 51.99 9.77 51.87 9.89C51.7567 10.0033 51.6 10.06 51.4 10.06ZM53.68 6.27C54.5667 6.27 55.01 5.88333 55.01 5.11C55.01 4.33667 54.5667 3.95 53.68 3.95H52.05V6.27H53.68ZM60.4039 10.09C59.7172 10.09 59.1206 9.94333 58.6139 9.65C58.1139 9.35667 57.7272 8.93667 57.4539 8.39C57.1806 7.84333 57.0439 7.20333 57.0439 6.47C57.0439 5.73667 57.1772 5.1 57.4439 4.56C57.7172 4.01333 58.1072 3.59333 58.6139 3.3C59.1206 3.00667 59.7172 2.86 60.4039 2.86C61.0906 2.86 61.6839 3.00667 62.1839 3.3C62.6906 3.59333 63.0772 4.01333 63.3439 4.56C63.6172 5.1 63.7539 5.73667 63.7539 6.47C63.7539 7.20333 63.6172 7.84333 63.3439 8.39C63.0706 8.93667 62.6806 9.35667 62.1739 9.65C61.6739 9.94333 61.0839 10.09 60.4039 10.09ZM60.4039 9.06C61.0506 9.06 61.5539 8.83667 61.9139 8.39C62.2806 7.94333 62.4639 7.30333 62.4639 6.47C62.4639 5.63667 62.2806 5 61.9139 4.56C61.5539 4.11333 61.0506 3.89 60.4039 3.89C59.7506 3.89 59.2406 4.11333 58.8739 4.56C58.5139 5 58.3339 5.63667 58.3339 6.47C58.3339 7.30333 58.5139 7.94333 58.8739 8.39C59.2406 8.83667 59.7506 9.06 60.4039 9.06ZM68.2069 10.09C67.5269 10.09 66.9302 9.94333 66.4169 9.65C65.9102 9.35667 65.5202 8.93667 65.2469 8.39C64.9735 7.84333 64.8369 7.20333 64.8369 6.47C64.8369 5.73667 64.9735 5.1 65.2469 4.56C65.5202 4.01333 65.9102 3.59333 66.4169 3.3C66.9302 3.00667 67.5269 2.86 68.2069 2.86C68.6469 2.86 69.0602 2.92667 69.4469 3.06C69.8335 3.18667 70.1769 3.37333 70.4769 3.62C70.5635 3.68667 70.6235 3.75667 70.6569 3.83C70.6902 3.90333 70.7069 3.99333 70.7069 4.1C70.7069 4.24667 70.6669 4.37 70.5869 4.47C70.5069 4.57 70.4102 4.62 70.2969 4.62C70.1635 4.62 70.0269 4.57333 69.8869 4.48C69.6002 4.26667 69.3335 4.12 69.0869 4.04C68.8402 3.95333 68.5669 3.91 68.2669 3.91C67.5735 3.91 67.0469 4.12667 66.6869 4.56C66.3335 4.99333 66.1569 5.63 66.1569 6.47C66.1569 7.31667 66.3335 7.95667 66.6869 8.39C67.0469 8.82333 67.5735 9.04 68.2669 9.04C68.5535 9.04 68.8169 8.99667 69.0569 8.91C69.3035 8.82333 69.5802 8.67667 69.8869 8.47C69.9535 8.43 70.0202 8.39667 70.0869 8.37C70.1535 8.34333 70.2235 8.33 70.2969 8.33C70.4102 8.33 70.5069 8.38 70.5869 8.48C70.6669 8.58 70.7069 8.70333 70.7069 8.85C70.7069 8.95 70.6902 9.04 70.6569 9.12C70.6235 9.19333 70.5635 9.26333 70.4769 9.33C70.1769 9.57667 69.8335 9.76667 69.4469 9.9C69.0602 10.0267 68.6469 10.09 68.2069 10.09ZM74.8573 10.09C74.1773 10.09 73.5806 9.94333 73.0673 9.65C72.5606 9.35667 72.1706 8.93667 71.8973 8.39C71.6239 7.84333 71.4873 7.20333 71.4873 6.47C71.4873 5.73667 71.6239 5.1 71.8973 4.56C72.1706 4.01333 72.5606 3.59333 73.0673 3.3C73.5806 3.00667 74.1773 2.86 74.8573 2.86C75.2973 2.86 75.7106 2.92667 76.0973 3.06C76.4839 3.18667 76.8273 3.37333 77.1273 3.62C77.2139 3.68667 77.2739 3.75667 77.3073 3.83C77.3406 3.90333 77.3573 3.99333 77.3573 4.1C77.3573 4.24667 77.3173 4.37 77.2373 4.47C77.1573 4.57 77.0606 4.62 76.9473 4.62C76.8139 4.62 76.6773 4.57333 76.5373 4.48C76.2506 4.26667 75.9839 4.12 75.7373 4.04C75.4906 3.95333 75.2173 3.91 74.9173 3.91C74.2239 3.91 73.6973 4.12667 73.3373 4.56C72.9839 4.99333 72.8073 5.63 72.8073 6.47C72.8073 7.31667 72.9839 7.95667 73.3373 8.39C73.6973 8.82333 74.2239 9.04 74.9173 9.04C75.2039 9.04 75.4673 8.99667 75.7073 8.91C75.9539 8.82333 76.2306 8.67667 76.5373 8.47C76.6039 8.43 76.6706 8.39667 76.7373 8.37C76.8039 8.34333 76.8739 8.33 76.9473 8.33C77.0606 8.33 77.1573 8.38 77.2373 8.48C77.3173 8.58 77.3573 8.70333 77.3573 8.85C77.3573 8.95 77.3406 9.04 77.3073 9.12C77.2739 9.19333 77.2139 9.26333 77.1273 9.33C76.8273 9.57667 76.4839 9.76667 76.0973 9.9C75.7106 10.0267 75.2973 10.09 74.8573 10.09ZM83.1946 3.28C83.2946 3.14 83.3979 3.04 83.5046 2.98C83.6179 2.92 83.7746 2.89 83.9746 2.89C84.1679 2.89 84.3179 2.94667 84.4246 3.06C84.5313 3.16667 84.5846 3.31667 84.5846 3.51V9.42C84.5846 9.61333 84.5246 9.77 84.4046 9.89C84.2913 10.0033 84.1413 10.06 83.9546 10.06C83.7613 10.06 83.6079 10.0033 83.4946 9.89C83.3813 9.77 83.3246 9.61333 83.3246 9.42V4.82L79.9746 9.55C79.8346 9.75667 79.7013 9.89333 79.5746 9.96C79.4479 10.0267 79.2879 10.06 79.0946 10.06C78.9013 10.06 78.7513 10.0067 78.6446 9.9C78.5379 9.78667 78.4846 9.63333 78.4846 9.44V3.53C78.4846 3.33667 78.5413 3.18333 78.6546 3.07C78.7746 2.95 78.9279 2.89 79.1146 2.89C79.3079 2.89 79.4613 2.95 79.5746 3.07C79.6946 3.18333 79.7546 3.33667 79.7546 3.53V8.12L83.1946 3.28ZM90.8216 3.28C90.9216 3.14 91.0249 3.04 91.1316 2.98C91.2449 2.92 91.4016 2.89 91.6016 2.89C91.7949 2.89 91.9449 2.94667 92.0516 3.06C92.1582 3.16667 92.2116 3.31667 92.2116 3.51V9.42C92.2116 9.61333 92.1516 9.77 92.0316 9.89C91.9182 10.0033 91.7682 10.06 91.5816 10.06C91.3882 10.06 91.2349 10.0033 91.1216 9.89C91.0082 9.77 90.9516 9.61333 90.9516 9.42V4.82L87.6016 9.55C87.4616 9.75667 87.3282 9.89333 87.2016 9.96C87.0749 10.0267 86.9149 10.06 86.7216 10.06C86.5282 10.06 86.3782 10.0067 86.2716 9.9C86.1649 9.78667 86.1116 9.63333 86.1116 9.44V3.53C86.1116 3.33667 86.1682 3.18333 86.2816 3.07C86.4016 2.95 86.5549 2.89 86.7416 2.89C86.9349 2.89 87.0882 2.95 87.2016 3.07C87.3216 3.18333 87.3816 3.33667 87.3816 3.53V8.12L90.8216 3.28ZM89.1616 2.28C88.7082 2.28 88.3082 2.18333 87.9616 1.99C87.6216 1.79 87.3782 1.51667 87.2316 1.17C87.2049 1.11 87.1916 1.04333 87.1916 0.969999C87.1916 0.843333 87.2316 0.743333 87.3116 0.67C87.3982 0.59 87.4982 0.549999 87.6116 0.549999C87.7849 0.549999 87.9182 0.636666 88.0116 0.81C88.2582 1.29 88.6416 1.53 89.1616 1.53C89.6816 1.53 90.0649 1.29 90.3116 0.81C90.4049 0.63 90.5382 0.54 90.7116 0.54C90.8249 0.54 90.9249 0.58 91.0116 0.66C91.0982 0.74 91.1416 0.84 91.1416 0.96C91.1282 1.05333 91.1116 1.12667 91.0916 1.18C90.9516 1.52 90.7082 1.79 90.3616 1.99C90.0149 2.18333 89.6149 2.28 89.1616 2.28ZM96.8885 10.09C96.2085 10.09 95.6118 9.94333 95.0985 9.65C94.5918 9.35667 94.2018 8.93667 93.9285 8.39C93.6552 7.84333 93.5185 7.20333 93.5185 6.47C93.5185 5.73667 93.6552 5.1 93.9285 4.56C94.2018 4.01333 94.5918 3.59333 95.0985 3.3C95.6118 3.00667 96.2085 2.86 96.8885 2.86C97.3285 2.86 97.7418 2.92667 98.1285 3.06C98.5152 3.18667 98.8585 3.37333 99.1585 3.62C99.2452 3.68667 99.3052 3.75667 99.3385 3.83C99.3718 3.90333 99.3885 3.99333 99.3885 4.1C99.3885 4.24667 99.3485 4.37 99.2685 4.47C99.1885 4.57 99.0918 4.62 98.9785 4.62C98.8452 4.62 98.7085 4.57333 98.5685 4.48C98.2818 4.26667 98.0152 4.12 97.7685 4.04C97.5218 3.95333 97.2485 3.91 96.9485 3.91C96.2552 3.91 95.7285 4.12667 95.3685 4.56C95.0152 4.99333 94.8385 5.63 94.8385 6.47C94.8385 7.31667 95.0152 7.95667 95.3685 8.39C95.7285 8.82333 96.2552 9.04 96.9485 9.04C97.2352 9.04 97.4985 8.99667 97.7385 8.91C97.9852 8.82333 98.2618 8.67667 98.5685 8.47C98.6352 8.43 98.7018 8.39667 98.7685 8.37C98.8352 8.34333 98.9052 8.33 98.9785 8.33C99.0918 8.33 99.1885 8.38 99.2685 8.48C99.3485 8.58 99.3885 8.70333 99.3885 8.85C99.3885 8.95 99.3718 9.04 99.3385 9.12C99.3052 9.19333 99.2452 9.26333 99.1585 9.33C98.8585 9.57667 98.5152 9.76667 98.1285 9.9C97.7418 10.0267 97.3285 10.09 96.8885 10.09ZM101.146 10.06C100.953 10.06 100.799 10.0033 100.686 9.89C100.573 9.77 100.516 9.61 100.516 9.41V3.53C100.516 3.33667 100.573 3.18333 100.686 3.07C100.806 2.95 100.959 2.89 101.146 2.89C101.339 2.89 101.493 2.95 101.606 3.07C101.726 3.18333 101.786 3.33667 101.786 3.53V5.9H102.646L104.886 3.14C105.019 2.98 105.176 2.9 105.356 2.9C105.503 2.9 105.629 2.95333 105.736 3.06C105.849 3.16667 105.906 3.29333 105.906 3.44C105.906 3.58 105.856 3.71 105.756 3.83L103.856 6.14C104.096 6.22667 104.289 6.32667 104.436 6.44C104.589 6.55333 104.726 6.69667 104.846 6.87C104.973 7.04333 105.136 7.30333 105.336 7.65L106.146 9.1C106.213 9.21333 106.246 9.33 106.246 9.45C106.246 9.61667 106.183 9.76 106.056 9.88C105.936 9.99333 105.796 10.05 105.636 10.05C105.416 10.05 105.239 9.93333 105.106 9.7L104.086 7.88C103.893 7.53333 103.699 7.29 103.506 7.15C103.313 7.01 103.033 6.94 102.666 6.94H101.786V9.41C101.786 9.60333 101.726 9.76 101.606 9.88C101.493 10 101.339 10.06 101.146 10.06ZM112.13 3.28C112.23 3.14 112.333 3.04 112.44 2.98C112.553 2.92 112.71 2.89 112.91 2.89C113.103 2.89 113.253 2.94667 113.36 3.06C113.467 3.16667 113.52 3.31667 113.52 3.51V9.42C113.52 9.61333 113.46 9.77 113.34 9.89C113.227 10.0033 113.077 10.06 112.89 10.06C112.697 10.06 112.543 10.0033 112.43 9.89C112.317 9.77 112.26 9.61333 112.26 9.42V4.82L108.91 9.55C108.77 9.75667 108.637 9.89333 108.51 9.96C108.383 10.0267 108.223 10.06 108.03 10.06C107.837 10.06 107.687 10.0067 107.58 9.9C107.473 9.78667 107.42 9.63333 107.42 9.44V3.53C107.42 3.33667 107.477 3.18333 107.59 3.07C107.71 2.95 107.863 2.89 108.05 2.89C108.243 2.89 108.397 2.95 108.51 3.07C108.63 3.18333 108.69 3.33667 108.69 3.53V8.12L112.13 3.28ZM119.757 3.28C119.857 3.14 119.96 3.04 120.067 2.98C120.18 2.92 120.337 2.89 120.537 2.89C120.73 2.89 120.88 2.94667 120.987 3.06C121.094 3.16667 121.147 3.31667 121.147 3.51V9.42C121.147 9.61333 121.087 9.77 120.967 9.89C120.854 10.0033 120.704 10.06 120.517 10.06C120.324 10.06 120.17 10.0033 120.057 9.89C119.944 9.77 119.887 9.61333 119.887 9.42V4.82L116.537 9.55C116.397 9.75667 116.264 9.89333 116.137 9.96C116.01 10.0267 115.85 10.06 115.657 10.06C115.464 10.06 115.314 10.0067 115.207 9.9C115.1 9.78667 115.047 9.63333 115.047 9.44V3.53C115.047 3.33667 115.104 3.18333 115.217 3.07C115.337 2.95 115.49 2.89 115.677 2.89C115.87 2.89 116.024 2.95 116.137 3.07C116.257 3.18333 116.317 3.33667 116.317 3.53V8.12L119.757 3.28ZM118.097 2.28C117.644 2.28 117.244 2.18333 116.897 1.99C116.557 1.79 116.314 1.51667 116.167 1.17C116.14 1.11 116.127 1.04333 116.127 0.969999C116.127 0.843333 116.167 0.743333 116.247 0.67C116.334 0.59 116.434 0.549999 116.547 0.549999C116.72 0.549999 116.854 0.636666 116.947 0.81C117.194 1.29 117.577 1.53 118.097 1.53C118.617 1.53 119 1.29 119.247 0.81C119.34 0.63 119.474 0.54 119.647 0.54C119.76 0.54 119.86 0.58 119.947 0.66C120.034 0.74 120.077 0.84 120.077 0.96C120.064 1.05333 120.047 1.12667 120.027 1.18C119.887 1.52 119.644 1.79 119.297 1.99C118.95 2.18333 118.55 2.28 118.097 2.28ZM126.019 10.06C125.826 10.06 125.672 10.0033 125.559 9.89C125.446 9.77 125.389 9.61333 125.389 9.42V3.56C125.389 3.37333 125.446 3.22667 125.559 3.12C125.672 3.00667 125.819 2.95 125.999 2.95H129.569C129.749 2.95 129.886 2.99667 129.979 3.09C130.079 3.17667 130.129 3.3 130.129 3.46C130.129 3.62 130.079 3.74667 129.979 3.84C129.886 3.93333 129.749 3.98 129.569 3.98H126.659V9.42C126.659 9.61333 126.599 9.77 126.479 9.89C126.366 10.0033 126.212 10.06 126.019 10.06ZM134.095 10.09C133.409 10.09 132.812 9.94333 132.305 9.65C131.805 9.35667 131.419 8.93667 131.145 8.39C130.872 7.84333 130.735 7.20333 130.735 6.47C130.735 5.73667 130.869 5.1 131.135 4.56C131.409 4.01333 131.799 3.59333 132.305 3.3C132.812 3.00667 133.409 2.86 134.095 2.86C134.782 2.86 135.375 3.00667 135.875 3.3C136.382 3.59333 136.769 4.01333 137.035 4.56C137.309 5.1 137.445 5.73667 137.445 6.47C137.445 7.20333 137.309 7.84333 137.035 8.39C136.762 8.93667 136.372 9.35667 135.865 9.65C135.365 9.94333 134.775 10.09 134.095 10.09ZM134.095 9.06C134.742 9.06 135.245 8.83667 135.605 8.39C135.972 7.94333 136.155 7.30333 136.155 6.47C136.155 5.63667 135.972 5 135.605 4.56C135.245 4.11333 134.742 3.89 134.095 3.89C133.442 3.89 132.932 4.11333 132.565 4.56C132.205 5 132.025 5.63667 132.025 6.47C132.025 7.30333 132.205 7.94333 132.565 8.39C132.932 8.83667 133.442 9.06 134.095 9.06ZM141.898 10.09C141.218 10.09 140.622 9.94333 140.108 9.65C139.602 9.35667 139.212 8.93667 138.938 8.39C138.665 7.84333 138.528 7.20333 138.528 6.47C138.528 5.73667 138.665 5.1 138.938 4.56C139.212 4.01333 139.602 3.59333 140.108 3.3C140.622 3.00667 141.218 2.86 141.898 2.86C142.338 2.86 142.752 2.92667 143.138 3.06C143.525 3.18667 143.868 3.37333 144.168 3.62C144.255 3.68667 144.315 3.75667 144.348 3.83C144.382 3.90333 144.398 3.99333 144.398 4.1C144.398 4.24667 144.358 4.37 144.278 4.47C144.198 4.57 144.102 4.62 143.988 4.62C143.855 4.62 143.718 4.57333 143.578 4.48C143.292 4.26667 143.025 4.12 142.778 4.04C142.532 3.95333 142.258 3.91 141.958 3.91C141.265 3.91 140.738 4.12667 140.378 4.56C140.025 4.99333 139.848 5.63 139.848 6.47C139.848 7.31667 140.025 7.95667 140.378 8.39C140.738 8.82333 141.265 9.04 141.958 9.04C142.245 9.04 142.508 8.99667 142.748 8.91C142.995 8.82333 143.272 8.67667 143.578 8.47C143.645 8.43 143.712 8.39667 143.778 8.37C143.845 8.34333 143.915 8.33 143.988 8.33C144.102 8.33 144.198 8.38 144.278 8.48C144.358 8.58 144.398 8.70333 144.398 8.85C144.398 8.95 144.382 9.04 144.348 9.12C144.315 9.19333 144.255 9.26333 144.168 9.33C143.868 9.57667 143.525 9.76667 143.138 9.9C142.752 10.0267 142.338 10.09 141.898 10.09ZM150.056 3.25C150.116 3.13 150.192 3.04333 150.286 2.99C150.386 2.93 150.489 2.9 150.596 2.9C150.749 2.9 150.886 2.95667 151.006 3.07C151.132 3.17667 151.196 3.31 151.196 3.47C151.196 3.55667 151.169 3.66 151.116 3.78L148.106 9.69C147.986 9.93667 147.809 10.06 147.576 10.06C147.416 10.06 147.272 10.0033 147.146 9.89C147.026 9.77 146.966 9.63 146.966 9.47C146.966 9.37 146.989 9.27333 147.036 9.18L147.706 7.87L145.216 3.81C145.142 3.69667 145.106 3.57667 145.106 3.45C145.106 3.29667 145.162 3.16667 145.276 3.06C145.396 2.94667 145.532 2.89 145.686 2.89C145.786 2.89 145.879 2.91667 145.966 2.97C146.059 3.02333 146.136 3.10333 146.196 3.21L148.316 6.67L150.056 3.25ZM151.65 11.68C151.47 11.68 151.327 11.62 151.22 11.5C151.113 11.3867 151.06 11.2333 151.06 11.04V9.58C151.06 9.38667 151.11 9.23667 151.21 9.13C151.317 9.02333 151.467 8.97 151.66 8.97H151.97C152.277 8.37667 152.483 7.7 152.59 6.94C152.697 6.18 152.75 5.32 152.75 4.36V3.56C152.75 3.36667 152.8 3.21667 152.9 3.11C153.007 3.00333 153.157 2.95 153.35 2.95H157.01C157.203 2.95 157.353 3.00333 157.46 3.11C157.567 3.21667 157.62 3.36667 157.62 3.56V8.97H158.01C158.203 8.97 158.353 9.02333 158.46 9.13C158.567 9.23667 158.62 9.38667 158.62 9.58V11.04C158.62 11.2333 158.563 11.3867 158.45 11.5C158.343 11.62 158.2 11.68 158.02 11.68C157.84 11.68 157.693 11.62 157.58 11.5C157.473 11.3867 157.42 11.2333 157.42 11.04V10H152.25V11.04C152.25 11.2333 152.193 11.3867 152.08 11.5C151.973 11.62 151.83 11.68 151.65 11.68ZM156.36 3.97H153.88V4.3C153.88 5.34667 153.82 6.24333 153.7 6.99C153.58 7.73 153.38 8.39333 153.1 8.98H156.36V3.97ZM166.027 9.23C166.067 9.31667 166.087 9.40333 166.087 9.49C166.087 9.64333 166.024 9.77333 165.897 9.88C165.777 9.98667 165.637 10.04 165.477 10.04C165.37 10.04 165.27 10.0133 165.177 9.96C165.084 9.9 165.01 9.81 164.957 9.69L164.357 8.35H160.837L160.237 9.69C160.184 9.81 160.11 9.9 160.017 9.96C159.924 10.0133 159.82 10.04 159.707 10.04C159.554 10.04 159.414 9.98667 159.287 9.88C159.16 9.77333 159.097 9.64333 159.097 9.49C159.097 9.40333 159.117 9.31667 159.157 9.23L161.917 3.3C161.977 3.16667 162.067 3.06667 162.187 3C162.314 2.92667 162.447 2.89 162.587 2.89C162.727 2.89 162.857 2.92667 162.977 3C163.104 3.06667 163.197 3.16667 163.257 3.3L166.027 9.23ZM161.277 7.35H163.917L162.597 4.38L161.277 7.35ZM167.699 10.06C167.505 10.06 167.349 10.0033 167.229 9.89C167.115 9.77 167.059 9.61 167.059 9.41V3.56C167.059 3.36667 167.112 3.21667 167.219 3.11C167.332 3.00333 167.485 2.95 167.679 2.95H170.139C170.892 2.95 171.479 3.14 171.899 3.52C172.319 3.89333 172.529 4.42 172.529 5.1C172.529 5.78 172.319 6.31 171.899 6.69C171.479 7.07 170.892 7.26 170.139 7.26H168.349V9.41C168.349 9.61 168.289 9.77 168.169 9.89C168.055 10.0033 167.899 10.06 167.699 10.06ZM169.979 6.27C170.865 6.27 171.309 5.88333 171.309 5.11C171.309 4.33667 170.865 3.95 169.979 3.95H168.349V6.27H169.979ZM176.713 10.09C176.033 10.09 175.436 9.94333 174.923 9.65C174.416 9.35667 174.026 8.93667 173.753 8.39C173.479 7.84333 173.343 7.20333 173.343 6.47C173.343 5.73667 173.479 5.1 173.753 4.56C174.026 4.01333 174.416 3.59333 174.923 3.3C175.436 3.00667 176.033 2.86 176.713 2.86C177.153 2.86 177.566 2.92667 177.953 3.06C178.339 3.18667 178.683 3.37333 178.983 3.62C179.069 3.68667 179.129 3.75667 179.163 3.83C179.196 3.90333 179.213 3.99333 179.213 4.1C179.213 4.24667 179.173 4.37 179.093 4.47C179.013 4.57 178.916 4.62 178.803 4.62C178.669 4.62 178.533 4.57333 178.393 4.48C178.106 4.26667 177.839 4.12 177.593 4.04C177.346 3.95333 177.073 3.91 176.773 3.91C176.079 3.91 175.553 4.12667 175.193 4.56C174.839 4.99333 174.663 5.63 174.663 6.47C174.663 7.31667 174.839 7.95667 175.193 8.39C175.553 8.82333 176.079 9.04 176.773 9.04C177.059 9.04 177.323 8.99667 177.563 8.91C177.809 8.82333 178.086 8.67667 178.393 8.47C178.459 8.43 178.526 8.39667 178.593 8.37C178.659 8.34333 178.729 8.33 178.803 8.33C178.916 8.33 179.013 8.38 179.093 8.48C179.173 8.58 179.213 8.70333 179.213 8.85C179.213 8.95 179.196 9.04 179.163 9.12C179.129 9.19333 179.069 9.26333 178.983 9.33C178.683 9.57667 178.339 9.76667 177.953 9.9C177.566 10.0267 177.153 10.09 176.713 10.09ZM182.552 10.05C182.352 10.05 182.192 9.99333 182.072 9.88C181.959 9.76 181.902 9.60333 181.902 9.41V4.01H180.082C179.682 4.01 179.482 3.83333 179.482 3.48C179.482 3.12667 179.682 2.95 180.082 2.95H185.012C185.412 2.95 185.612 3.12667 185.612 3.48C185.612 3.83333 185.412 4.01 185.012 4.01H183.192V9.41C183.192 9.60333 183.132 9.76 183.012 9.88C182.899 9.99333 182.746 10.05 182.552 10.05ZM190.715 6.36C191.122 6.47333 191.435 6.68 191.655 6.98C191.882 7.28 191.995 7.64667 191.995 8.08C191.995 8.68 191.779 9.15 191.345 9.49C190.919 9.83 190.329 10 189.575 10H186.995C186.802 10 186.649 9.94667 186.535 9.84C186.429 9.73333 186.375 9.58333 186.375 9.39V3.56C186.375 3.36667 186.429 3.21667 186.535 3.11C186.649 3.00333 186.802 2.95 186.995 2.95H189.475C190.209 2.95 190.782 3.11333 191.195 3.44C191.615 3.76 191.825 4.21 191.825 4.79C191.825 5.16333 191.725 5.48667 191.525 5.76C191.332 6.03333 191.062 6.23333 190.715 6.36ZM187.635 5.92H189.265C190.152 5.92 190.595 5.59 190.595 4.93C190.595 4.59667 190.485 4.35 190.265 4.19C190.045 4.03 189.712 3.95 189.265 3.95H187.635V5.92ZM189.435 9C189.902 9 190.242 8.91667 190.455 8.75C190.669 8.58333 190.775 8.32333 190.775 7.97C190.775 7.61667 190.665 7.35333 190.445 7.18C190.232 7.00667 189.895 6.92 189.435 6.92H187.635V9H189.435ZM193.821 10C193.628 10 193.475 9.94667 193.361 9.84C193.255 9.73333 193.201 9.58333 193.201 9.39V3.56C193.201 3.36667 193.255 3.21667 193.361 3.11C193.475 3.00333 193.628 2.95 193.821 2.95H197.431C197.625 2.95 197.775 2.99333 197.881 3.08C197.988 3.16667 198.041 3.29 198.041 3.45C198.041 3.61667 197.988 3.74667 197.881 3.84C197.775 3.92667 197.625 3.97 197.431 3.97H194.461V5.91H197.231C197.425 5.91 197.575 5.95333 197.681 6.04C197.788 6.12667 197.841 6.25333 197.841 6.42C197.841 6.58 197.788 6.70333 197.681 6.79C197.575 6.87667 197.425 6.92 197.231 6.92H194.461V8.98H197.431C197.625 8.98 197.775 9.02667 197.881 9.12C197.988 9.20667 198.041 9.33333 198.041 9.5C198.041 9.66 197.988 9.78333 197.881 9.87C197.775 9.95667 197.625 10 197.431 10H193.821ZM204.6 2.9C204.793 2.9 204.947 2.96 205.06 3.08C205.173 3.19333 205.23 3.34667 205.23 3.54V9.41C205.23 9.60333 205.17 9.76 205.05 9.88C204.937 10 204.787 10.06 204.6 10.06C204.407 10.06 204.253 10 204.14 9.88C204.027 9.76 203.97 9.60333 203.97 9.41V6.94H200.36V9.41C200.36 9.60333 200.3 9.76 200.18 9.88C200.067 10 199.913 10.06 199.72 10.06C199.533 10.06 199.38 10 199.26 9.88C199.147 9.76 199.09 9.60333 199.09 9.41V3.54C199.09 3.34667 199.147 3.19333 199.26 3.08C199.373 2.96 199.527 2.9 199.72 2.9C199.913 2.9 200.067 2.96 200.18 3.08C200.3 3.19333 200.36 3.34667 200.36 3.54V5.9H203.97V3.54C203.97 3.34667 204.027 3.19333 204.14 3.08C204.253 2.96 204.407 2.9 204.6 2.9ZM212.256 2.9C212.45 2.9 212.603 2.96 212.716 3.08C212.83 3.19333 212.886 3.34667 212.886 3.54V9.41C212.886 9.60333 212.826 9.76 212.706 9.88C212.593 10 212.443 10.06 212.256 10.06C212.063 10.06 211.91 10 211.796 9.88C211.683 9.76 211.626 9.60333 211.626 9.41V6.94H208.016V9.41C208.016 9.60333 207.956 9.76 207.836 9.88C207.723 10 207.57 10.06 207.376 10.06C207.19 10.06 207.036 10 206.916 9.88C206.803 9.76 206.746 9.60333 206.746 9.41V3.54C206.746 3.34667 206.803 3.19333 206.916 3.08C207.03 2.96 207.183 2.9 207.376 2.9C207.57 2.9 207.723 2.96 207.836 3.08C207.956 3.19333 208.016 3.34667 208.016 3.54V5.9H211.626V3.54C211.626 3.34667 211.683 3.19333 211.796 3.08C211.91 2.96 212.063 2.9 212.256 2.9ZM215.013 10C214.819 10 214.669 9.94667 214.563 9.84C214.456 9.73333 214.403 9.58333 214.403 9.39V3.53C214.403 3.33667 214.459 3.18333 214.573 3.07C214.693 2.95 214.846 2.89 215.033 2.89C215.226 2.89 215.379 2.95 215.493 3.07C215.613 3.18333 215.673 3.33667 215.673 3.53V5.63H217.093C217.859 5.63 218.446 5.81 218.853 6.17C219.266 6.53 219.473 7.05333 219.473 7.74C219.473 8.44667 219.246 9 218.793 9.4C218.339 9.8 217.729 10 216.963 10H215.013ZM220.843 10.06C220.649 10.06 220.493 10.0033 220.373 9.89C220.259 9.77 220.203 9.61333 220.203 9.42V3.53C220.203 3.33667 220.259 3.18333 220.373 3.07C220.493 2.95 220.649 2.89 220.843 2.89C221.036 2.89 221.189 2.95 221.303 3.07C221.416 3.18333 221.473 3.33667 221.473 3.53V9.42C221.473 9.61333 221.413 9.77 221.293 9.89C221.179 10.0033 221.029 10.06 220.843 10.06ZM216.923 9C217.363 9 217.693 8.89333 217.913 8.68C218.139 8.46 218.253 8.16333 218.253 7.79C218.253 7.39 218.143 7.09667 217.923 6.91C217.703 6.71667 217.369 6.62 216.923 6.62H215.673V9H216.923ZM227.706 3.28C227.806 3.14 227.91 3.04 228.016 2.98C228.13 2.92 228.286 2.89 228.486 2.89C228.68 2.89 228.83 2.94667 228.936 3.06C229.043 3.16667 229.096 3.31667 229.096 3.51V9.42C229.096 9.61333 229.036 9.77 228.916 9.89C228.803 10.0033 228.653 10.06 228.466 10.06C228.273 10.06 228.12 10.0033 228.006 9.89C227.893 9.77 227.836 9.61333 227.836 9.42V4.82L224.486 9.55C224.346 9.75667 224.213 9.89333 224.086 9.96C223.96 10.0267 223.8 10.06 223.606 10.06C223.413 10.06 223.263 10.0067 223.156 9.9C223.05 9.78667 222.996 9.63333 222.996 9.44V3.53C222.996 3.33667 223.053 3.18333 223.166 3.07C223.286 2.95 223.44 2.89 223.626 2.89C223.82 2.89 223.973 2.95 224.086 3.07C224.206 3.18333 224.266 3.33667 224.266 3.53V8.12L227.706 3.28ZM226.046 2.28C225.593 2.28 225.193 2.18333 224.846 1.99C224.506 1.79 224.263 1.51667 224.116 1.17C224.09 1.11 224.076 1.04333 224.076 0.969999C224.076 0.843333 224.116 0.743333 224.196 0.67C224.283 0.59 224.383 0.549999 224.496 0.549999C224.67 0.549999 224.803 0.636666 224.896 0.81C225.143 1.29 225.526 1.53 226.046 1.53C226.566 1.53 226.95 1.29 227.196 0.81C227.29 0.63 227.423 0.54 227.596 0.54C227.71 0.54 227.81 0.58 227.896 0.66C227.983 0.74 228.026 0.84 228.026 0.96C228.013 1.05333 227.996 1.12667 227.976 1.18C227.836 1.52 227.593 1.79 227.246 1.99C226.9 2.18333 226.5 2.28 226.046 2.28ZM51.39 24.06C51.1967 24.06 51.0433 24.0033 50.93 23.89C50.8167 23.77 50.76 23.6133 50.76 23.42V17.56C50.76 17.3733 50.8167 17.2267 50.93 17.12C51.0433 17.0067 51.19 16.95 51.37 16.95H54.94C55.12 16.95 55.2567 16.9967 55.35 17.09C55.45 17.1767 55.5 17.3 55.5 17.46C55.5 17.62 55.45 17.7467 55.35 17.84C55.2567 17.9333 55.12 17.98 54.94 17.98H52.03V23.42C52.03 23.6133 51.97 23.77 51.85 23.89C51.7367 24.0033 51.5833 24.06 51.39 24.06ZM60.9541 17.25C61.0141 17.13 61.0907 17.0433 61.1841 16.99C61.2841 16.93 61.3874 16.9 61.4941 16.9C61.6474 16.9 61.7841 16.9567 61.9041 17.07C62.0307 17.1767 62.0941 17.31 62.0941 17.47C62.0941 17.5567 62.0674 17.66 62.0141 17.78L59.0041 23.69C58.8841 23.9367 58.7074 24.06 58.4741 24.06C58.3141 24.06 58.1707 24.0033 58.0441 23.89C57.9241 23.77 57.8641 23.63 57.8641 23.47C57.8641 23.37 57.8874 23.2733 57.9341 23.18L58.6041 21.87L56.1141 17.81C56.0407 17.6967 56.0041 17.5767 56.0041 17.45C56.0041 17.2967 56.0607 17.1667 56.1741 17.06C56.2941 16.9467 56.4307 16.89 56.5841 16.89C56.6841 16.89 56.7774 16.9167 56.8641 16.97C56.9574 17.0233 57.0341 17.1033 57.0941 17.21L59.2141 20.67L60.9541 17.25ZM69.4321 16.9C69.6188 16.9 69.7688 16.96 69.8821 17.08C69.9954 17.1933 70.0521 17.3467 70.0521 17.54V23.46C70.0521 23.6467 69.9988 23.7933 69.8921 23.9C69.7854 24.0067 69.6454 24.06 69.4721 24.06C69.2988 24.06 69.1621 24.0067 69.0621 23.9C68.9621 23.7933 68.9121 23.6467 68.9121 23.46V19.34L67.2121 22.56C67.1321 22.7067 67.0454 22.8167 66.9521 22.89C66.8588 22.9567 66.7488 22.99 66.6221 22.99C66.4954 22.99 66.3854 22.9567 66.2921 22.89C66.1988 22.8233 66.1121 22.7133 66.0321 22.56L64.3221 19.39V23.46C64.3221 23.64 64.2688 23.7867 64.1621 23.9C64.0621 24.0067 63.9254 24.06 63.7521 24.06C63.5788 24.06 63.4421 24.0067 63.3421 23.9C63.2421 23.7933 63.1921 23.6467 63.1921 23.46V17.54C63.1921 17.3467 63.2454 17.1933 63.3521 17.08C63.4654 16.96 63.6154 16.9 63.8021 16.9C64.0621 16.9 64.2654 17.0433 64.4121 17.33L66.6321 21.56L68.8421 17.33C68.9888 17.0433 69.1854 16.9 69.4321 16.9ZM77.9703 23.23C78.0103 23.3167 78.0303 23.4033 78.0303 23.49C78.0303 23.6433 77.967 23.7733 77.8403 23.88C77.7203 23.9867 77.5803 24.04 77.4203 24.04C77.3136 24.04 77.2136 24.0133 77.1203 23.96C77.027 23.9 76.9536 23.81 76.9003 23.69L76.3003 22.35H72.7803L72.1803 23.69C72.127 23.81 72.0536 23.9 71.9603 23.96C71.867 24.0133 71.7636 24.04 71.6503 24.04C71.497 24.04 71.357 23.9867 71.2303 23.88C71.1036 23.7733 71.0403 23.6433 71.0403 23.49C71.0403 23.4033 71.0603 23.3167 71.1003 23.23L73.8603 17.3C73.9203 17.1667 74.0103 17.0667 74.1303 17C74.257 16.9267 74.3903 16.89 74.5303 16.89C74.6703 16.89 74.8003 16.9267 74.9203 17C75.047 17.0667 75.1403 17.1667 75.2003 17.3L77.9703 23.23ZM73.2203 21.35H75.8603L74.5403 18.38L73.2203 21.35ZM84.5122 16.9C84.7055 16.9 84.8589 16.96 84.9722 17.08C85.0855 17.1933 85.1422 17.3467 85.1422 17.54V23.41C85.1422 23.6033 85.0822 23.76 84.9622 23.88C84.8489 24 84.6989 24.06 84.5122 24.06C84.3189 24.06 84.1655 24 84.0522 23.88C83.9389 23.76 83.8822 23.6033 83.8822 23.41V20.94H80.2722V23.41C80.2722 23.6033 80.2122 23.76 80.0922 23.88C79.9789 24 79.8255 24.06 79.6322 24.06C79.4455 24.06 79.2922 24 79.1722 23.88C79.0589 23.76 79.0022 23.6033 79.0022 23.41V17.54C79.0022 17.3467 79.0589 17.1933 79.1722 17.08C79.2855 16.96 79.4389 16.9 79.6322 16.9C79.8255 16.9 79.9789 16.96 80.0922 17.08C80.2122 17.1933 80.2722 17.3467 80.2722 17.54V19.9H83.8822V17.54C83.8822 17.3467 83.9389 17.1933 84.0522 17.08C84.1655 16.96 84.3189 16.9 84.5122 16.9ZM91.3684 17.28C91.4684 17.14 91.5718 17.04 91.6784 16.98C91.7918 16.92 91.9484 16.89 92.1484 16.89C92.3418 16.89 92.4918 16.9467 92.5984 17.06C92.7051 17.1667 92.7584 17.3167 92.7584 17.51V23.42C92.7584 23.6133 92.6984 23.77 92.5784 23.89C92.4651 24.0033 92.3151 24.06 92.1284 24.06C91.9351 24.06 91.7818 24.0033 91.6684 23.89C91.5551 23.77 91.4984 23.6133 91.4984 23.42V18.82L88.1484 23.55C88.0084 23.7567 87.8751 23.8933 87.7484 23.96C87.6218 24.0267 87.4618 24.06 87.2684 24.06C87.0751 24.06 86.9251 24.0067 86.8184 23.9C86.7118 23.7867 86.6584 23.6333 86.6584 23.44V17.53C86.6584 17.3367 86.7151 17.1833 86.8284 17.07C86.9484 16.95 87.1018 16.89 87.2884 16.89C87.4818 16.89 87.6351 16.95 87.7484 17.07C87.8684 17.1833 87.9284 17.3367 87.9284 17.53V22.12L91.3684 17.28ZM96.5954 24.05C96.3954 24.05 96.2354 23.9933 96.1154 23.88C96.0021 23.76 95.9454 23.6033 95.9454 23.41V18.01H94.1254C93.7254 18.01 93.5254 17.8333 93.5254 17.48C93.5254 17.1267 93.7254 16.95 94.1254 16.95H99.0554C99.4554 16.95 99.6554 17.1267 99.6554 17.48C99.6554 17.8333 99.4554 18.01 99.0554 18.01H97.2354V23.41C97.2354 23.6033 97.1754 23.76 97.0554 23.88C96.9421 23.9933 96.7887 24.05 96.5954 24.05ZM105.939 23.23C105.979 23.3167 105.999 23.4033 105.999 23.49C105.999 23.6433 105.936 23.7733 105.809 23.88C105.689 23.9867 105.549 24.04 105.389 24.04C105.282 24.04 105.182 24.0133 105.089 23.96C104.996 23.9 104.922 23.81 104.869 23.69L104.269 22.35H100.749L100.149 23.69C100.096 23.81 100.022 23.9 99.9291 23.96C99.8357 24.0133 99.7324 24.04 99.6191 24.04C99.4657 24.04 99.3257 23.9867 99.1991 23.88C99.0724 23.7733 99.0091 23.6433 99.0091 23.49C99.0091 23.4033 99.0291 23.3167 99.0691 23.23L101.829 17.3C101.889 17.1667 101.979 17.0667 102.099 17C102.226 16.9267 102.359 16.89 102.499 16.89C102.639 16.89 102.769 16.9267 102.889 17C103.016 17.0667 103.109 17.1667 103.169 17.3L105.939 23.23ZM101.189 21.35H103.829L102.509 18.38L101.189 21.35ZM107.611 24.06C107.418 24.06 107.261 24.0033 107.141 23.89C107.028 23.77 106.971 23.61 106.971 23.41V17.56C106.971 17.3667 107.024 17.2167 107.131 17.11C107.244 17.0033 107.398 16.95 107.591 16.95H110.051C110.804 16.95 111.391 17.14 111.811 17.52C112.231 17.8933 112.441 18.42 112.441 19.1C112.441 19.78 112.231 20.31 111.811 20.69C111.391 21.07 110.804 21.26 110.051 21.26H108.261V23.41C108.261 23.61 108.201 23.77 108.081 23.89C107.968 24.0033 107.811 24.06 107.611 24.06ZM109.891 20.27C110.778 20.27 111.221 19.8833 111.221 19.11C111.221 18.3367 110.778 17.95 109.891 17.95H108.261V20.27H109.891ZM119.083 16.9C119.276 16.9 119.429 16.96 119.543 17.08C119.656 17.1933 119.713 17.3467 119.713 17.54V23.41C119.713 23.6033 119.653 23.76 119.533 23.88C119.419 24 119.269 24.06 119.083 24.06C118.889 24.06 118.736 24 118.623 23.88C118.509 23.76 118.453 23.6033 118.453 23.41V20.94H114.843V23.41C114.843 23.6033 114.783 23.76 114.663 23.88C114.549 24 114.396 24.06 114.203 24.06C114.016 24.06 113.863 24 113.743 23.88C113.629 23.76 113.573 23.6033 113.573 23.41V17.54C113.573 17.3467 113.629 17.1933 113.743 17.08C113.856 16.96 114.009 16.9 114.203 16.9C114.396 16.9 114.549 16.96 114.663 17.08C114.783 17.1933 114.843 17.3467 114.843 17.54V19.9H118.453V17.54C118.453 17.3467 118.509 17.1933 118.623 17.08C118.736 16.96 118.889 16.9 119.083 16.9ZM121.839 24C121.645 24 121.495 23.9467 121.389 23.84C121.282 23.7333 121.229 23.5833 121.229 23.39V17.53C121.229 17.3367 121.285 17.1833 121.399 17.07C121.519 16.95 121.672 16.89 121.859 16.89C122.052 16.89 122.205 16.95 122.319 17.07C122.439 17.1833 122.499 17.3367 122.499 17.53V19.63H123.919C124.685 19.63 125.272 19.81 125.679 20.17C126.092 20.53 126.299 21.0533 126.299 21.74C126.299 22.4467 126.072 23 125.619 23.4C125.165 23.8 124.555 24 123.789 24H121.839ZM127.669 24.06C127.475 24.06 127.319 24.0033 127.199 23.89C127.085 23.77 127.029 23.6133 127.029 23.42V17.53C127.029 17.3367 127.085 17.1833 127.199 17.07C127.319 16.95 127.475 16.89 127.669 16.89C127.862 16.89 128.015 16.95 128.129 17.07C128.242 17.1833 128.299 17.3367 128.299 17.53V23.42C128.299 23.6133 128.239 23.77 128.119 23.89C128.005 24.0033 127.855 24.06 127.669 24.06ZM123.749 23C124.189 23 124.519 22.8933 124.739 22.68C124.965 22.46 125.079 22.1633 125.079 21.79C125.079 21.39 124.969 21.0967 124.749 20.91C124.529 20.7167 124.195 20.62 123.749 20.62H122.499V23H123.749ZM134.533 17.28C134.633 17.14 134.736 17.04 134.843 16.98C134.956 16.92 135.113 16.89 135.312 16.89C135.506 16.89 135.656 16.9467 135.763 17.06C135.869 17.1667 135.923 17.3167 135.923 17.51V23.42C135.923 23.6133 135.863 23.77 135.743 23.89C135.629 24.0033 135.479 24.06 135.293 24.06C135.099 24.06 134.946 24.0033 134.833 23.89C134.719 23.77 134.663 23.6133 134.663 23.42V18.82L131.313 23.55C131.173 23.7567 131.039 23.8933 130.913 23.96C130.786 24.0267 130.626 24.06 130.433 24.06C130.239 24.06 130.089 24.0067 129.983 23.9C129.876 23.7867 129.823 23.6333 129.823 23.44V17.53C129.823 17.3367 129.879 17.1833 129.993 17.07C130.113 16.95 130.266 16.89 130.453 16.89C130.646 16.89 130.799 16.95 130.913 17.07C131.033 17.1833 131.093 17.3367 131.093 17.53V22.12L134.533 17.28ZM132.873 16.28C132.419 16.28 132.019 16.1833 131.673 15.99C131.333 15.79 131.089 15.5167 130.943 15.17C130.916 15.11 130.903 15.0433 130.903 14.97C130.903 14.8433 130.943 14.7433 131.023 14.67C131.109 14.59 131.209 14.55 131.323 14.55C131.496 14.55 131.629 14.6367 131.723 14.81C131.969 15.29 132.353 15.53 132.873 15.53C133.393 15.53 133.776 15.29 134.023 14.81C134.116 14.63 134.249 14.54 134.423 14.54C134.536 14.54 134.636 14.58 134.723 14.66C134.809 14.74 134.853 14.84 134.853 14.96C134.839 15.0533 134.823 15.1267 134.803 15.18C134.663 15.52 134.419 15.79 134.073 15.99C133.726 16.1833 133.326 16.28 132.873 16.28ZM144.694 17.25C144.754 17.13 144.831 17.0433 144.924 16.99C145.024 16.93 145.128 16.9 145.234 16.9C145.388 16.9 145.524 16.9567 145.644 17.07C145.771 17.1767 145.834 17.31 145.834 17.47C145.834 17.5567 145.808 17.66 145.754 17.78L142.744 23.69C142.624 23.9367 142.448 24.06 142.214 24.06C142.054 24.06 141.911 24.0033 141.784 23.89C141.664 23.77 141.604 23.63 141.604 23.47C141.604 23.37 141.628 23.2733 141.674 23.18L142.344 21.87L139.854 17.81C139.781 17.6967 139.744 17.5767 139.744 17.45C139.744 17.2967 139.801 17.1667 139.914 17.06C140.034 16.9467 140.171 16.89 140.324 16.89C140.424 16.89 140.518 16.9167 140.604 16.97C140.698 17.0233 140.774 17.1033 140.834 17.21L142.954 20.67L144.694 17.25ZM152.422 16.9C152.616 16.9 152.769 16.96 152.882 17.08C152.996 17.1933 153.052 17.3467 153.052 17.54V23.41C153.052 23.6033 152.992 23.76 152.872 23.88C152.759 24 152.609 24.06 152.422 24.06C152.229 24.06 152.076 24 151.962 23.88C151.849 23.76 151.792 23.6033 151.792 23.41V20.94H148.182V23.41C148.182 23.6033 148.122 23.76 148.002 23.88C147.889 24 147.736 24.06 147.542 24.06C147.356 24.06 147.202 24 147.082 23.88C146.969 23.76 146.912 23.6033 146.912 23.41V17.54C146.912 17.3467 146.969 17.1933 147.082 17.08C147.196 16.96 147.349 16.9 147.542 16.9C147.736 16.9 147.889 16.96 148.002 17.08C148.122 17.1933 148.182 17.3467 148.182 17.54V19.9H151.792V17.54C151.792 17.3467 151.849 17.1933 151.962 17.08C152.076 16.96 152.229 16.9 152.422 16.9ZM159.279 17.28C159.379 17.14 159.482 17.04 159.589 16.98C159.702 16.92 159.859 16.89 160.059 16.89C160.252 16.89 160.402 16.9467 160.509 17.06C160.615 17.1667 160.669 17.3167 160.669 17.51V23.42C160.669 23.6133 160.609 23.77 160.489 23.89C160.375 24.0033 160.225 24.06 160.039 24.06C159.845 24.06 159.692 24.0033 159.579 23.89C159.465 23.77 159.409 23.6133 159.409 23.42V18.82L156.059 23.55C155.919 23.7567 155.785 23.8933 155.659 23.96C155.532 24.0267 155.372 24.06 155.179 24.06C154.985 24.06 154.835 24.0067 154.729 23.9C154.622 23.7867 154.569 23.6333 154.569 23.44V17.53C154.569 17.3367 154.625 17.1833 154.739 17.07C154.859 16.95 155.012 16.89 155.199 16.89C155.392 16.89 155.545 16.95 155.659 17.07C155.779 17.1833 155.839 17.3367 155.839 17.53V22.12L159.279 17.28ZM166.536 20.36C166.942 20.4733 167.256 20.68 167.476 20.98C167.702 21.28 167.816 21.6467 167.816 22.08C167.816 22.68 167.599 23.15 167.166 23.49C166.739 23.83 166.149 24 165.396 24H162.816C162.622 24 162.469 23.9467 162.356 23.84C162.249 23.7333 162.196 23.5833 162.196 23.39V17.56C162.196 17.3667 162.249 17.2167 162.356 17.11C162.469 17.0033 162.622 16.95 162.816 16.95H165.296C166.029 16.95 166.602 17.1133 167.016 17.44C167.436 17.76 167.646 18.21 167.646 18.79C167.646 19.1633 167.546 19.4867 167.346 19.76C167.152 20.0333 166.882 20.2333 166.536 20.36ZM163.456 19.92H165.086C165.972 19.92 166.416 19.59 166.416 18.93C166.416 18.5967 166.306 18.35 166.086 18.19C165.866 18.03 165.532 17.95 165.086 17.95H163.456V19.92ZM165.256 23C165.722 23 166.062 22.9167 166.276 22.75C166.489 22.5833 166.596 22.3233 166.596 21.97C166.596 21.6167 166.486 21.3533 166.266 21.18C166.052 21.0067 165.716 20.92 165.256 20.92H163.456V23H165.256ZM169.642 24C169.448 24 169.295 23.9467 169.182 23.84C169.075 23.7333 169.022 23.5833 169.022 23.39V17.56C169.022 17.3667 169.075 17.2167 169.182 17.11C169.295 17.0033 169.448 16.95 169.642 16.95H173.252C173.445 16.95 173.595 16.9933 173.702 17.08C173.808 17.1667 173.862 17.29 173.862 17.45C173.862 17.6167 173.808 17.7467 173.702 17.84C173.595 17.9267 173.445 17.97 173.252 17.97H170.282V19.91H173.052C173.245 19.91 173.395 19.9533 173.502 20.04C173.608 20.1267 173.662 20.2533 173.662 20.42C173.662 20.58 173.608 20.7033 173.502 20.79C173.395 20.8767 173.245 20.92 173.052 20.92H170.282V22.98H173.252C173.445 22.98 173.595 23.0267 173.702 23.12C173.808 23.2067 173.862 23.3333 173.862 23.5C173.862 23.66 173.808 23.7833 173.702 23.87C173.595 23.9567 173.445 24 173.252 24H169.642ZM175.55 24.06C175.357 24.06 175.2 24.0033 175.08 23.89C174.967 23.77 174.91 23.61 174.91 23.41V17.56C174.91 17.3667 174.964 17.2167 175.07 17.11C175.184 17.0033 175.337 16.95 175.53 16.95H177.99C178.744 16.95 179.33 17.14 179.75 17.52C180.17 17.8933 180.38 18.42 180.38 19.1C180.38 19.78 180.17 20.31 179.75 20.69C179.33 21.07 178.744 21.26 177.99 21.26H176.2V23.41C176.2 23.61 176.14 23.77 176.02 23.89C175.907 24.0033 175.75 24.06 175.55 24.06ZM177.83 20.27C178.717 20.27 179.16 19.8833 179.16 19.11C179.16 18.3367 178.717 17.95 177.83 17.95H176.2V20.27H177.83ZM184.564 24.09C183.884 24.09 183.288 23.9433 182.774 23.65C182.268 23.3567 181.878 22.9367 181.604 22.39C181.331 21.8433 181.194 21.2033 181.194 20.47C181.194 19.7367 181.331 19.1 181.604 18.56C181.878 18.0133 182.268 17.5933 182.774 17.3C183.288 17.0067 183.884 16.86 184.564 16.86C185.004 16.86 185.418 16.9267 185.804 17.06C186.191 17.1867 186.534 17.3733 186.834 17.62C186.921 17.6867 186.981 17.7567 187.014 17.83C187.048 17.9033 187.064 17.9933 187.064 18.1C187.064 18.2467 187.024 18.37 186.944 18.47C186.864 18.57 186.768 18.62 186.654 18.62C186.521 18.62 186.384 18.5733 186.244 18.48C185.958 18.2667 185.691 18.12 185.444 18.04C185.198 17.9533 184.924 17.91 184.624 17.91C183.931 17.91 183.404 18.1267 183.044 18.56C182.691 18.9933 182.514 19.63 182.514 20.47C182.514 21.3167 182.691 21.9567 183.044 22.39C183.404 22.8233 183.931 23.04 184.624 23.04C184.911 23.04 185.174 22.9967 185.414 22.91C185.661 22.8233 185.938 22.6767 186.244 22.47C186.311 22.43 186.378 22.3967 186.444 22.37C186.511 22.3433 186.581 22.33 186.654 22.33C186.768 22.33 186.864 22.38 186.944 22.48C187.024 22.58 187.064 22.7033 187.064 22.85C187.064 22.95 187.048 23.04 187.014 23.12C186.981 23.1933 186.921 23.2633 186.834 23.33C186.534 23.5767 186.191 23.7667 185.804 23.9C185.418 24.0267 185.004 24.09 184.564 24.09ZM192.902 17.28C193.002 17.14 193.105 17.04 193.212 16.98C193.325 16.92 193.482 16.89 193.682 16.89C193.875 16.89 194.025 16.9467 194.132 17.06C194.238 17.1667 194.292 17.3167 194.292 17.51V23.42C194.292 23.6133 194.232 23.77 194.112 23.89C193.998 24.0033 193.848 24.06 193.662 24.06C193.468 24.06 193.315 24.0033 193.202 23.89C193.088 23.77 193.032 23.6133 193.032 23.42V18.82L189.682 23.55C189.542 23.7567 189.408 23.8933 189.282 23.96C189.155 24.0267 188.995 24.06 188.802 24.06C188.608 24.06 188.458 24.0067 188.352 23.9C188.245 23.7867 188.192 23.6333 188.192 23.44V17.53C188.192 17.3367 188.248 17.1833 188.362 17.07C188.482 16.95 188.635 16.89 188.822 16.89C189.015 16.89 189.168 16.95 189.282 17.07C189.402 17.1833 189.462 17.3367 189.462 17.53V22.12L192.902 17.28ZM198.129 24.05C197.929 24.05 197.769 23.9933 197.649 23.88C197.535 23.76 197.479 23.6033 197.479 23.41V18.01H195.659C195.259 18.01 195.059 17.8333 195.059 17.48C195.059 17.1267 195.259 16.95 195.659 16.95H200.589C200.989 16.95 201.189 17.1267 201.189 17.48C201.189 17.8333 200.989 18.01 200.589 18.01H198.769V23.41C198.769 23.6033 198.709 23.76 198.589 23.88C198.475 23.9933 198.322 24.05 198.129 24.05ZM202.571 24C202.378 24 202.225 23.9467 202.111 23.84C202.005 23.7333 201.951 23.5833 201.951 23.39V17.56C201.951 17.3667 202.005 17.2167 202.111 17.11C202.225 17.0033 202.378 16.95 202.571 16.95H206.181C206.375 16.95 206.525 16.9933 206.631 17.08C206.738 17.1667 206.791 17.29 206.791 17.45C206.791 17.6167 206.738 17.7467 206.631 17.84C206.525 17.9267 206.375 17.97 206.181 17.97H203.211V19.91H205.981C206.175 19.91 206.325 19.9533 206.431 20.04C206.538 20.1267 206.591 20.2533 206.591 20.42C206.591 20.58 206.538 20.7033 206.431 20.79C206.325 20.8767 206.175 20.92 205.981 20.92H203.211V22.98H206.181C206.375 22.98 206.525 23.0267 206.631 23.12C206.738 23.2067 206.791 23.3333 206.791 23.5C206.791 23.66 206.738 23.7833 206.631 23.87C206.525 23.9567 206.375 24 206.181 24H202.571ZM210.16 24.05C209.96 24.05 209.8 23.9933 209.68 23.88C209.567 23.76 209.51 23.6033 209.51 23.41V18.01H207.69C207.29 18.01 207.09 17.8333 207.09 17.48C207.09 17.1267 207.29 16.95 207.69 16.95H212.62C213.02 16.95 213.22 17.1267 213.22 17.48C213.22 17.8333 213.02 18.01 212.62 18.01H210.8V23.41C210.8 23.6033 210.74 23.76 210.62 23.88C210.507 23.9933 210.353 24.05 210.16 24.05Z" fill="#1E5BA6"/>
<path d="M57.02 31.9C57.2067 31.9 57.3567 31.96 57.47 32.08C57.5833 32.1933 57.64 32.3467 57.64 32.54V38.46C57.64 38.6467 57.5867 38.7933 57.48 38.9C57.3733 39.0067 57.2333 39.06 57.06 39.06C56.8867 39.06 56.75 39.0067 56.65 38.9C56.55 38.7933 56.5 38.6467 56.5 38.46V34.34L54.8 37.56C54.72 37.7067 54.6333 37.8167 54.54 37.89C54.4467 37.9567 54.3367 37.99 54.21 37.99C54.0833 37.99 53.9733 37.9567 53.88 37.89C53.7867 37.8233 53.7 37.7133 53.62 37.56L51.91 34.39V38.46C51.91 38.64 51.8567 38.7867 51.75 38.9C51.65 39.0067 51.5133 39.06 51.34 39.06C51.1667 39.06 51.03 39.0067 50.93 38.9C50.83 38.7933 50.78 38.6467 50.78 38.46V32.54C50.78 32.3467 50.8333 32.1933 50.94 32.08C51.0533 31.96 51.2033 31.9 51.39 31.9C51.65 31.9 51.8533 32.0433 52 32.33L54.22 36.56L56.43 32.33C56.5767 32.0433 56.7733 31.9 57.02 31.9ZM62.3082 39.09C61.6215 39.09 61.0249 38.9433 60.5182 38.65C60.0182 38.3567 59.6315 37.9367 59.3582 37.39C59.0849 36.8433 58.9482 36.2033 58.9482 35.47C58.9482 34.7367 59.0815 34.1 59.3482 33.56C59.6215 33.0133 60.0115 32.5933 60.5182 32.3C61.0249 32.0067 61.6215 31.86 62.3082 31.86C62.9949 31.86 63.5882 32.0067 64.0882 32.3C64.5949 32.5933 64.9815 33.0133 65.2482 33.56C65.5215 34.1 65.6582 34.7367 65.6582 35.47C65.6582 36.2033 65.5215 36.8433 65.2482 37.39C64.9749 37.9367 64.5849 38.3567 64.0782 38.65C63.5782 38.9433 62.9882 39.09 62.3082 39.09ZM62.3082 38.06C62.9549 38.06 63.4582 37.8367 63.8182 37.39C64.1849 36.9433 64.3682 36.3033 64.3682 35.47C64.3682 34.6367 64.1849 34 63.8182 33.56C63.4582 33.1133 62.9549 32.89 62.3082 32.89C61.6549 32.89 61.1449 33.1133 60.7782 33.56C60.4182 34 60.2382 34.6367 60.2382 35.47C60.2382 36.3033 60.4182 36.9433 60.7782 37.39C61.1449 37.8367 61.6549 38.06 62.3082 38.06ZM71.6712 32.28C71.7712 32.14 71.8745 32.04 71.9812 31.98C72.0945 31.92 72.2512 31.89 72.4512 31.89C72.6445 31.89 72.7945 31.9467 72.9012 32.06C73.0078 32.1667 73.0612 32.3167 73.0612 32.51V38.42C73.0612 38.6133 73.0012 38.77 72.8812 38.89C72.7678 39.0033 72.6178 39.06 72.4312 39.06C72.2378 39.06 72.0845 39.0033 71.9712 38.89C71.8578 38.77 71.8012 38.6133 71.8012 38.42V33.82L68.4512 38.55C68.3112 38.7567 68.1778 38.8933 68.0512 38.96C67.9245 39.0267 67.7645 39.06 67.5712 39.06C67.3778 39.06 67.2278 39.0067 67.1212 38.9C67.0145 38.7867 66.9612 38.6333 66.9612 38.44V32.53C66.9612 32.3367 67.0178 32.1833 67.1312 32.07C67.2512 31.95 67.4045 31.89 67.5912 31.89C67.7845 31.89 67.9378 31.95 68.0512 32.07C68.1712 32.1833 68.2312 32.3367 68.2312 32.53V37.12L71.6712 32.28ZM70.0112 31.28C69.5578 31.28 69.1578 31.1833 68.8112 30.99C68.4712 30.79 68.2278 30.5167 68.0812 30.17C68.0545 30.11 68.0412 30.0433 68.0412 29.97C68.0412 29.8433 68.0812 29.7433 68.1612 29.67C68.2478 29.59 68.3478 29.55 68.4612 29.55C68.6345 29.55 68.7678 29.6367 68.8612 29.81C69.1078 30.29 69.4912 30.53 70.0112 30.53C70.5312 30.53 70.9145 30.29 71.1612 29.81C71.2545 29.63 71.3878 29.54 71.5612 29.54C71.6745 29.54 71.7745 29.58 71.8612 29.66C71.9478 29.74 71.9912 29.84 71.9912 29.96C71.9778 30.0533 71.9612 30.1267 71.9412 30.18C71.8012 30.52 71.5578 30.79 71.2112 30.99C70.8645 31.1833 70.4645 31.28 70.0112 31.28ZM79.553 33.84C79.553 34.8333 79.4863 35.66 79.353 36.32C79.2263 36.9733 79.0296 37.5033 78.763 37.91C78.503 38.31 78.1663 38.6367 77.753 38.89C77.6196 38.97 77.4863 39.01 77.353 39.01C77.1996 39.01 77.0696 38.9567 76.963 38.85C76.863 38.7433 76.813 38.6167 76.813 38.47C76.813 38.3567 76.8463 38.2467 76.913 38.14C76.9796 38.0333 77.0796 37.94 77.213 37.86C77.5863 37.66 77.863 37.27 78.043 36.69C78.223 36.1033 78.313 35.2233 78.313 34.05V32.56C78.313 32.3667 78.3663 32.2167 78.473 32.11C78.5796 32.0033 78.7296 31.95 78.923 31.95H82.673C82.8663 31.95 83.013 32.0033 83.113 32.11C83.2196 32.2167 83.273 32.3667 83.273 32.56V38.42C83.273 38.6133 83.213 38.77 83.093 38.89C82.9796 39.0033 82.8296 39.06 82.643 39.06C82.4496 39.06 82.2963 39.0033 82.183 38.89C82.0696 38.77 82.013 38.6133 82.013 38.42V32.98H79.553V33.84ZM89.513 32.28C89.613 32.14 89.7163 32.04 89.823 31.98C89.9363 31.92 90.093 31.89 90.293 31.89C90.4863 31.89 90.6363 31.9467 90.743 32.06C90.8496 32.1667 90.903 32.3167 90.903 32.51V38.42C90.903 38.6133 90.843 38.77 90.723 38.89C90.6096 39.0033 90.4596 39.06 90.273 39.06C90.0796 39.06 89.9263 39.0033 89.813 38.89C89.6996 38.77 89.643 38.6133 89.643 38.42V33.82L86.293 38.55C86.153 38.7567 86.0196 38.8933 85.893 38.96C85.7663 39.0267 85.6063 39.06 85.413 39.06C85.2196 39.06 85.0696 39.0067 84.963 38.9C84.8563 38.7867 84.803 38.6333 84.803 38.44V32.53C84.803 32.3367 84.8596 32.1833 84.973 32.07C85.093 31.95 85.2463 31.89 85.433 31.89C85.6263 31.89 85.7796 31.95 85.893 32.07C86.013 32.1833 86.073 32.3367 86.073 32.53V37.12L89.513 32.28ZM92.2399 32.53C92.2399 32.3367 92.2966 32.1833 92.4099 32.07C92.5233 31.95 92.6766 31.89 92.8699 31.89C93.0633 31.89 93.2166 31.95 93.3299 32.07C93.4433 32.1833 93.4999 32.3367 93.4999 32.53V34.13C93.4999 34.6167 93.6333 34.9667 93.8999 35.18C94.1733 35.3933 94.5666 35.5 95.0799 35.5C95.5599 35.5 95.9599 35.4467 96.2799 35.34V32.53C96.2799 32.3367 96.3366 32.1833 96.4499 32.07C96.5699 31.95 96.7233 31.89 96.9099 31.89C97.1033 31.89 97.2566 31.95 97.3699 32.07C97.4833 32.1833 97.5399 32.3367 97.5399 32.53V38.42C97.5399 38.6133 97.4799 38.77 97.3599 38.89C97.2466 39.0033 97.0966 39.06 96.9099 39.06C96.7166 39.06 96.5633 39.0033 96.4499 38.89C96.3366 38.77 96.2799 38.6133 96.2799 38.42V36.33C96.1133 36.3767 95.8899 36.42 95.6099 36.46C95.3366 36.5 95.0766 36.52 94.8299 36.52C94.0233 36.52 93.3899 36.3467 92.9299 36C92.4699 35.6467 92.2399 35.09 92.2399 34.33V32.53ZM104.571 31.9C104.764 31.9 104.917 31.96 105.031 32.08C105.144 32.1933 105.201 32.3467 105.201 32.54V38.41C105.201 38.6033 105.141 38.76 105.021 38.88C104.907 39 104.757 39.06 104.571 39.06C104.377 39.06 104.224 39 104.111 38.88C103.997 38.76 103.941 38.6033 103.941 38.41V35.94H100.331V38.41C100.331 38.6033 100.271 38.76 100.151 38.88C100.037 39 99.8841 39.06 99.6908 39.06C99.5041 39.06 99.3508 39 99.2308 38.88C99.1174 38.76 99.0608 38.6033 99.0608 38.41V32.54C99.0608 32.3467 99.1174 32.1933 99.2308 32.08C99.3441 31.96 99.4974 31.9 99.6908 31.9C99.8841 31.9 100.037 31.96 100.151 32.08C100.271 32.1933 100.331 32.3467 100.331 32.54V34.9H103.941V32.54C103.941 32.3467 103.997 32.1933 104.111 32.08C104.224 31.96 104.377 31.9 104.571 31.9ZM107.327 39C107.134 39 106.984 38.9467 106.877 38.84C106.77 38.7333 106.717 38.5833 106.717 38.39V32.53C106.717 32.3367 106.774 32.1833 106.887 32.07C107.007 31.95 107.16 31.89 107.347 31.89C107.54 31.89 107.694 31.95 107.807 32.07C107.927 32.1833 107.987 32.3367 107.987 32.53V34.63H109.407C110.174 34.63 110.76 34.81 111.167 35.17C111.58 35.53 111.787 36.0533 111.787 36.74C111.787 37.4467 111.56 38 111.107 38.4C110.654 38.8 110.044 39 109.277 39H107.327ZM113.157 39.06C112.964 39.06 112.807 39.0033 112.687 38.89C112.574 38.77 112.517 38.6133 112.517 38.42V32.53C112.517 32.3367 112.574 32.1833 112.687 32.07C112.807 31.95 112.964 31.89 113.157 31.89C113.35 31.89 113.504 31.95 113.617 32.07C113.73 32.1833 113.787 32.3367 113.787 32.53V38.42C113.787 38.6133 113.727 38.77 113.607 38.89C113.494 39.0033 113.344 39.06 113.157 39.06ZM109.237 38C109.677 38 110.007 37.8933 110.227 37.68C110.454 37.46 110.567 37.1633 110.567 36.79C110.567 36.39 110.457 36.0967 110.237 35.91C110.017 35.7167 109.684 35.62 109.237 35.62H107.987V38H109.237ZM120.021 32.28C120.121 32.14 120.224 32.04 120.331 31.98C120.444 31.92 120.601 31.89 120.801 31.89C120.994 31.89 121.144 31.9467 121.251 32.06C121.357 32.1667 121.411 32.3167 121.411 32.51V38.42C121.411 38.6133 121.351 38.77 121.231 38.89C121.117 39.0033 120.967 39.06 120.781 39.06C120.587 39.06 120.434 39.0033 120.321 38.89C120.207 38.77 120.151 38.6133 120.151 38.42V33.82L116.801 38.55C116.661 38.7567 116.527 38.8933 116.401 38.96C116.274 39.0267 116.114 39.06 115.921 39.06C115.727 39.06 115.577 39.0067 115.471 38.9C115.364 38.7867 115.311 38.6333 115.311 38.44V32.53C115.311 32.3367 115.367 32.1833 115.481 32.07C115.601 31.95 115.754 31.89 115.941 31.89C116.134 31.89 116.287 31.95 116.401 32.07C116.521 32.1833 116.581 32.3367 116.581 32.53V37.12L120.021 32.28ZM118.361 31.28C117.907 31.28 117.507 31.1833 117.161 30.99C116.821 30.79 116.577 30.5167 116.431 30.17C116.404 30.11 116.391 30.0433 116.391 29.97C116.391 29.8433 116.431 29.7433 116.511 29.67C116.597 29.59 116.697 29.55 116.811 29.55C116.984 29.55 117.117 29.6367 117.211 29.81C117.457 30.29 117.841 30.53 118.361 30.53C118.881 30.53 119.264 30.29 119.511 29.81C119.604 29.63 119.737 29.54 119.911 29.54C120.024 29.54 120.124 29.58 120.211 29.66C120.297 29.74 120.341 29.84 120.341 29.96C120.327 30.0533 120.311 30.1267 120.291 30.18C120.151 30.52 119.907 30.79 119.561 30.99C119.214 31.1833 118.814 31.28 118.361 31.28ZM126.283 39.06C126.089 39.06 125.936 39.0033 125.823 38.89C125.709 38.77 125.653 38.61 125.653 38.41V32.53C125.653 32.3367 125.709 32.1833 125.823 32.07C125.943 31.95 126.096 31.89 126.283 31.89C126.476 31.89 126.629 31.95 126.743 32.07C126.863 32.1833 126.923 32.3367 126.923 32.53V34.9H127.783L130.023 32.14C130.156 31.98 130.313 31.9 130.493 31.9C130.639 31.9 130.766 31.9533 130.873 32.06C130.986 32.1667 131.043 32.2933 131.043 32.44C131.043 32.58 130.993 32.71 130.893 32.83L128.993 35.14C129.233 35.2267 129.426 35.3267 129.573 35.44C129.726 35.5533 129.863 35.6967 129.983 35.87C130.109 36.0433 130.273 36.3033 130.473 36.65L131.283 38.1C131.349 38.2133 131.383 38.33 131.383 38.45C131.383 38.6167 131.319 38.76 131.193 38.88C131.073 38.9933 130.933 39.05 130.773 39.05C130.553 39.05 130.376 38.9333 130.243 38.7L129.223 36.88C129.029 36.5333 128.836 36.29 128.643 36.15C128.449 36.01 128.169 35.94 127.803 35.94H126.923V38.41C126.923 38.6033 126.863 38.76 126.743 38.88C126.629 39 126.476 39.06 126.283 39.06ZM138.82 38.23C138.86 38.3167 138.88 38.4033 138.88 38.49C138.88 38.6433 138.817 38.7733 138.69 38.88C138.57 38.9867 138.43 39.04 138.27 39.04C138.163 39.04 138.063 39.0133 137.97 38.96C137.877 38.9 137.803 38.81 137.75 38.69L137.15 37.35H133.63L133.03 38.69C132.977 38.81 132.903 38.9 132.81 38.96C132.717 39.0133 132.613 39.04 132.5 39.04C132.347 39.04 132.207 38.9867 132.08 38.88C131.953 38.7733 131.89 38.6433 131.89 38.49C131.89 38.4033 131.91 38.3167 131.95 38.23L134.71 32.3C134.77 32.1667 134.86 32.0667 134.98 32C135.107 31.9267 135.24 31.89 135.38 31.89C135.52 31.89 135.65 31.9267 135.77 32C135.897 32.0667 135.99 32.1667 136.05 32.3L138.82 38.23ZM134.07 36.35H136.71L135.39 33.38L134.07 36.35ZM140.492 39C140.298 39 140.142 38.9433 140.022 38.83C139.908 38.71 139.852 38.5533 139.852 38.36V32.58C139.852 32.3933 139.908 32.2433 140.022 32.13C140.142 32.01 140.298 31.95 140.492 31.95H144.222C144.408 31.95 144.558 31.9967 144.672 32.09C144.785 32.1833 144.842 32.3067 144.842 32.46C144.842 32.6133 144.785 32.74 144.672 32.84C144.558 32.9333 144.408 32.98 144.222 32.98H141.122V34.69H142.802C143.568 34.69 144.155 34.8667 144.562 35.22C144.975 35.5733 145.182 36.0933 145.182 36.78C145.182 37.2267 145.082 37.6167 144.882 37.95C144.688 38.2833 144.408 38.5433 144.042 38.73C143.682 38.91 143.252 39 142.752 39H140.492ZM142.592 38C143.038 38 143.378 37.8933 143.612 37.68C143.845 37.4667 143.962 37.1667 143.962 36.78C143.962 36.4 143.852 36.1233 143.632 35.95C143.418 35.77 143.085 35.68 142.632 35.68H141.122V38H142.592ZM151.036 32.28C151.136 32.14 151.24 32.04 151.346 31.98C151.46 31.92 151.616 31.89 151.816 31.89C152.01 31.89 152.16 31.9467 152.266 32.06C152.373 32.1667 152.426 32.3167 152.426 32.51V38.42C152.426 38.6133 152.366 38.77 152.246 38.89C152.133 39.0033 151.983 39.06 151.796 39.06C151.603 39.06 151.45 39.0033 151.336 38.89C151.223 38.77 151.166 38.6133 151.166 38.42V33.82L147.816 38.55C147.676 38.7567 147.543 38.8933 147.416 38.96C147.29 39.0267 147.13 39.06 146.936 39.06C146.743 39.06 146.593 39.0067 146.486 38.9C146.38 38.7867 146.326 38.6333 146.326 38.44V32.53C146.326 32.3367 146.383 32.1833 146.496 32.07C146.616 31.95 146.77 31.89 146.956 31.89C147.15 31.89 147.303 31.95 147.416 32.07C147.536 32.1833 147.596 32.3367 147.596 32.53V37.12L151.036 32.28ZM159.463 31.9C159.657 31.9 159.81 31.96 159.923 32.08C160.037 32.1933 160.093 32.3467 160.093 32.54V38.41C160.093 38.6033 160.033 38.76 159.913 38.88C159.8 39 159.65 39.06 159.463 39.06C159.27 39.06 159.117 39 159.003 38.88C158.89 38.76 158.833 38.6033 158.833 38.41V35.94H155.223V38.41C155.223 38.6033 155.163 38.76 155.043 38.88C154.93 39 154.777 39.06 154.583 39.06C154.397 39.06 154.243 39 154.123 38.88C154.01 38.76 153.953 38.6033 153.953 38.41V32.54C153.953 32.3467 154.01 32.1933 154.123 32.08C154.237 31.96 154.39 31.9 154.583 31.9C154.777 31.9 154.93 31.96 155.043 32.08C155.163 32.1933 155.223 32.3467 155.223 32.54V34.9H158.833V32.54C158.833 32.3467 158.89 32.1933 159.003 32.08C159.117 31.96 159.27 31.9 159.463 31.9ZM162.23 39C162.036 39 161.883 38.9467 161.77 38.84C161.663 38.7333 161.61 38.5833 161.61 38.39V32.56C161.61 32.3667 161.663 32.2167 161.77 32.11C161.883 32.0033 162.036 31.95 162.23 31.95H165.84C166.033 31.95 166.183 31.9933 166.29 32.08C166.396 32.1667 166.45 32.29 166.45 32.45C166.45 32.6167 166.396 32.7467 166.29 32.84C166.183 32.9267 166.033 32.97 165.84 32.97H162.87V34.91H165.64C165.833 34.91 165.983 34.9533 166.09 35.04C166.196 35.1267 166.25 35.2533 166.25 35.42C166.25 35.58 166.196 35.7033 166.09 35.79C165.983 35.8767 165.833 35.92 165.64 35.92H162.87V37.98H165.84C166.033 37.98 166.183 38.0267 166.29 38.12C166.396 38.2067 166.45 38.3333 166.45 38.5C166.45 38.66 166.396 38.7833 166.29 38.87C166.183 38.9567 166.033 39 165.84 39H162.23ZM169.818 39.05C169.618 39.05 169.458 38.9933 169.338 38.88C169.225 38.76 169.168 38.6033 169.168 38.41V33.01H167.348C166.948 33.01 166.748 32.8333 166.748 32.48C166.748 32.1267 166.948 31.95 167.348 31.95H172.278C172.678 31.95 172.878 32.1267 172.878 32.48C172.878 32.8333 172.678 33.01 172.278 33.01H170.458V38.41C170.458 38.6033 170.398 38.76 170.278 38.88C170.165 38.9933 170.011 39.05 169.818 39.05Z" fill="#6A77A6"/>
</svg>
