<svg width="359" height="262" viewBox="0 0 359 262" fill="none" xmlns="http://www.w3.org/2000/svg">
<g clip-path="url(#clip0_96_13464)">
<path d="M24.0003 263.598L160.968 262.885L197.472 262.87H209.564L246.144 262.854L413.266 262.809C413.266 262.809 451.497 213.744 410.66 167.151C368.322 118.844 347.745 158.187 334.728 90.1785C301.982 -80.9958 -21.8679 18.636 63.0799 164.299C93.6587 216.747 2.87698 188.87 24.0003 263.598Z" fill="#9CB1F9"/>
<path d="M150.012 227.864L149.269 227.455C148.481 227.015 148.193 226.029 148.617 225.24L152.027 219.022C152.466 218.233 153.451 217.945 154.239 218.37L155.3 218.946C155.451 219.037 155.512 219.219 155.421 219.386C155.33 219.538 155.148 219.598 154.982 219.507L153.921 218.931C153.436 218.673 152.83 218.84 152.572 219.325L149.163 225.544C148.905 226.029 149.072 226.636 149.557 226.894L150.299 227.303C150.784 227.561 151.39 227.394 151.648 226.909L153.906 222.783C153.997 222.632 154.179 222.571 154.345 222.662C154.497 222.753 154.557 222.935 154.467 223.102L152.209 227.227C151.8 228.016 150.799 228.304 150.012 227.864Z" fill="#AFCDFB"/>
<path d="M146.845 234.401L145.511 233.673C144.284 232.991 143.859 231.368 144.587 230.048L149.709 220.69C149.799 220.539 149.981 220.478 150.148 220.569C150.315 220.66 150.36 220.842 150.269 221.009L145.148 230.367C144.587 231.383 144.89 232.611 145.814 233.127L147.148 233.855C148.072 234.356 149.269 233.946 149.83 232.93L155.664 222.283C156.224 221.267 155.921 220.038 154.997 219.522C154.845 219.431 154.785 219.249 154.876 219.083C154.967 218.916 155.149 218.87 155.315 218.961C156.543 219.644 156.967 221.267 156.24 222.586L150.406 233.233C149.678 234.553 148.087 235.069 146.845 234.401Z" fill="#AFCDFB"/>
<path d="M274.752 193.268H111.782C107.781 193.268 104.523 190.023 104.523 186.003V49.1064C104.523 45.1023 107.766 41.8414 111.782 41.8414H274.752C278.753 41.8414 282.011 45.0872 282.011 49.1064V186.019C282.011 190.023 278.753 193.268 274.752 193.268Z" fill="white"/>
<path d="M282.011 58.6464H104.523V47.2712C104.523 44.2833 106.948 41.8566 109.933 41.8566H276.586C279.571 41.8566 281.996 44.2833 281.996 47.2712V58.6464H282.011Z" fill="#699DEE"/>
<path d="M111.707 50.1378C111.707 49.0306 112.601 48.1357 113.707 48.1357C114.813 48.1357 115.707 49.0306 115.707 50.1378C115.707 51.2449 114.813 52.1398 113.707 52.1398C112.601 52.155 111.707 51.2601 111.707 50.1378Z" fill="#DDE7FE"/>
<path d="M120.133 50.1378C120.133 49.0306 121.027 48.1357 122.133 48.1357C123.239 48.1357 124.133 49.0306 124.133 50.1378C124.133 51.2449 123.239 52.1398 122.133 52.1398C121.027 52.155 120.133 51.2601 120.133 50.1378Z" fill="#DDE7FE"/>
<path d="M128.557 50.1378C128.557 49.0306 129.451 48.1357 130.557 48.1357C131.663 48.1357 132.557 49.0306 132.557 50.1378C132.557 51.2449 131.663 52.1398 130.557 52.1398C129.451 52.155 128.557 51.2601 128.557 50.1378Z" fill="#DDE7FE"/>
<path opacity="0.5" d="M168.894 71.9782H118.586V122.332H168.894V71.9782Z" fill="#CDE0FB"/>
<path opacity="0.5" d="M222.595 75.7396H182.576C181.53 75.7396 180.682 74.8902 180.682 73.8437C180.682 72.7972 181.53 71.9478 182.576 71.9478H222.595C223.64 71.9478 224.489 72.7972 224.489 73.8437C224.504 74.8751 223.64 75.7396 222.595 75.7396Z" fill="#7C9AF2"/>
<path opacity="0.5" d="M270.448 73.1764H230.429C229.384 73.1764 228.535 72.327 228.535 71.2805C228.535 70.234 229.384 69.3846 230.429 69.3846H270.448C271.494 69.3846 272.343 70.234 272.343 71.2805C272.358 72.327 271.494 73.1764 270.448 73.1764Z" fill="#7C9AF2"/>
<g opacity="0.3">
<path d="M230.522 90.3909H181.911C181.229 90.3909 180.684 89.8449 180.684 89.1623C180.684 88.4798 181.229 87.9338 181.911 87.9338H230.522C231.204 87.9338 231.749 88.4798 231.749 89.1623C231.749 89.8297 231.204 90.3909 230.522 90.3909Z" fill="#DCE3F5"/>
<path d="M248.994 90.3909H236.159C235.477 90.3909 234.932 89.8449 234.932 89.1623C234.932 88.4798 235.477 87.9338 236.159 87.9338H248.994C249.676 87.9338 250.221 88.4798 250.221 89.1623C250.236 89.8297 249.676 90.3909 248.994 90.3909Z" fill="#DCE3F5"/>
<path d="M200.246 98.035H181.911C181.229 98.035 180.684 97.489 180.684 96.8065C180.684 96.124 181.229 95.578 181.911 95.578H200.246C200.928 95.578 201.474 96.124 201.474 96.8065C201.489 97.489 200.928 98.035 200.246 98.035Z" fill="#DCE3F5"/>
<path d="M229.96 98.035H204.837C204.155 98.035 203.609 97.489 203.609 96.8065C203.609 96.124 204.155 95.578 204.837 95.578H229.96C230.642 95.578 231.188 96.124 231.188 96.8065C231.188 97.489 230.642 98.035 229.96 98.035Z" fill="#DCE3F5"/>
<path d="M248.994 98.035H236.159C235.477 98.035 234.932 97.489 234.932 96.8065C234.932 96.124 235.477 95.578 236.159 95.578H248.994C249.676 95.578 250.221 96.124 250.221 96.8065C250.236 97.489 249.676 98.035 248.994 98.035Z" fill="#DCE3F5"/>
<path d="M206.792 104.648H181.911C181.229 104.648 180.684 104.102 180.684 103.419C180.684 102.737 181.229 102.191 181.911 102.191H206.792C207.474 102.191 208.02 102.737 208.02 103.419C208.035 104.102 207.474 104.648 206.792 104.648Z" fill="#DCE3F5"/>
<path d="M254.313 104.648H213.612C212.93 104.648 212.385 104.102 212.385 103.419C212.385 102.737 212.93 102.191 213.612 102.191H254.313C254.995 102.191 255.541 102.737 255.541 103.419C255.556 104.102 254.995 104.648 254.313 104.648Z" fill="#DCE3F5"/>
</g>
<g opacity="0.3">
<path d="M230.522 114.688H181.911C181.229 114.688 180.684 114.142 180.684 113.46C180.684 112.777 181.229 112.231 181.911 112.231H230.522C231.204 112.231 231.749 112.777 231.749 113.46C231.749 114.127 231.204 114.688 230.522 114.688Z" fill="#DCE3F5"/>
<path d="M248.994 114.688H236.159C235.477 114.688 234.932 114.142 234.932 113.46C234.932 112.777 235.477 112.231 236.159 112.231H248.994C249.676 112.231 250.221 112.777 250.221 113.46C250.236 114.127 249.676 114.688 248.994 114.688Z" fill="#DCE3F5"/>
<path d="M200.246 122.332H181.911C181.229 122.332 180.684 121.786 180.684 121.104C180.684 120.421 181.229 119.875 181.911 119.875H200.246C200.928 119.875 201.474 120.421 201.474 121.104C201.489 121.786 200.928 122.332 200.246 122.332Z" fill="#DCE3F5"/>
<path d="M229.96 122.332H204.837C204.155 122.332 203.609 121.786 203.609 121.104C203.609 120.421 204.155 119.875 204.837 119.875H229.96C230.642 119.875 231.188 120.421 231.188 121.104C231.188 121.786 230.642 122.332 229.96 122.332Z" fill="#DCE3F5"/>
</g>
<path d="M141.148 79.4858H146.345L160.377 111.64H154.452L151.21 103.935H136.117L132.829 111.64H127.086L141.148 79.4858ZM149.164 98.9602L143.648 86.1896L138.178 98.9602H149.164Z" fill="#DCE3F5"/>
<path d="M283.798 55.5524C283.798 55.5524 284.526 64.2885 282.541 64.152C280.556 64.0155 276.631 60.1783 268.706 60.8001C260.781 61.422 251.098 63.1662 245.249 52.792C239.4 42.4178 252.735 39.4299 252.735 39.4299L283.798 55.5524Z" fill="#1D274B"/>
<path d="M266.964 54.9154L306.861 58.2066L307.695 56.4321L269.433 28.1608L230.793 23.6411L230.051 25.2336L266.964 54.9154Z" fill="#3D4871"/>
<path d="M294.119 84.9914C293.876 84.1724 293.027 83.6871 292.209 83.9297C291.391 84.1724 290.906 85.0218 291.149 85.8408C291.376 86.6598 292.24 87.1451 293.058 86.9025C293.876 86.675 294.346 85.8256 294.119 84.9914Z" fill="#FB9E30"/>
<path d="M292.785 85.4313C294.391 85.31 294.755 99.8854 294.755 99.8854C294.755 99.8854 293.709 100.371 293.194 100.265C292.679 100.143 292.421 98.1867 292.421 98.1867L292.376 100.249C292.376 100.249 290.618 100.31 290.012 99.8854C290.012 99.8702 290.254 85.6285 292.785 85.4313Z" fill="#FB9E30"/>
<path d="M293.314 85.7498L293.026 53.9143L292.814 53.7627L271.963 38.3227L271.221 39.3389L291.859 54.612L292.329 85.7043L293.314 85.7498Z" fill="#FB9E30"/>
<path d="M320.199 235.994H232.539V202.657H320.487C327.594 202.657 333.352 208.42 333.352 215.533V222.814C333.367 230.094 327.473 235.994 320.199 235.994Z" fill="#FCECDB"/>
<path d="M408.555 216.368V221.388C408.555 224.072 407.888 226.575 406.707 228.729C404.343 233.066 399.948 235.994 394.917 235.994H229.841C228.75 235.994 227.871 235.038 227.871 233.87V233.112C227.871 231.944 228.75 230.989 229.841 230.989H330.472C331.017 230.291 331.487 229.533 331.881 228.714C332.82 226.818 333.351 224.649 333.351 222.343V215.973C333.351 214.805 333.214 213.668 332.942 212.576C332.487 210.741 331.684 209.057 330.608 207.631H229.825C228.734 207.631 227.855 206.676 227.855 205.508V204.765C227.855 203.597 228.734 202.642 229.825 202.642H395.736C401.585 202.642 406.51 206.843 408.04 212.576C408.389 213.789 408.555 215.063 408.555 216.368Z" fill="#699DEE"/>
<path d="M408.071 212.591H332.957C332.503 210.756 331.7 209.072 330.624 207.647H229.841C228.75 207.647 227.871 206.691 227.871 205.523V204.78C227.871 203.612 228.75 202.657 229.841 202.657H395.751C401.6 202.657 406.54 206.858 408.071 212.591Z" fill="#548EE2"/>
<path d="M232.537 219.325L244.766 219.886L232.537 220.22V219.325Z" fill="#F4D2B8"/>
<path d="M232.537 224.558L261.616 225.119L232.537 225.453V224.558Z" fill="#F4D2B8"/>
<path d="M219.73 261.853H305.784V235.918H218.973C212.532 235.918 207.305 241.15 207.305 247.596V249.401C207.305 256.272 212.866 261.853 219.73 261.853Z" fill="#FB9E30"/>
<path d="M301.632 261.853H399.702V235.918H301.359C294.798 235.918 289.494 241.241 289.494 247.794V249.689C289.494 256.408 294.934 261.853 301.632 261.853Z" fill="#FCECDB"/>
<path d="M283.024 261.853H403.021C404.021 261.853 404.824 261.049 404.824 260.048V259.775C404.824 258.774 404.021 257.971 403.021 257.971H283.024C282.024 257.971 281.221 258.774 281.221 259.775V260.048C281.221 261.034 282.024 261.853 283.024 261.853Z" fill="#FB9E30"/>
<path d="M283.024 239.801H403.021C404.021 239.801 404.824 238.997 404.824 237.996V237.723C404.824 236.722 404.021 235.918 403.021 235.918H283.024C282.024 235.918 281.221 236.722 281.221 237.723V237.996C281.221 238.997 282.024 239.801 283.024 239.801Z" fill="#FB9E30"/>
<path d="M295.118 202.717H210.428V164.618H295.436C302.952 164.618 309.044 170.715 309.044 178.238V188.779C309.028 196.484 302.801 202.717 295.118 202.717Z" fill="#FCECDB"/>
<path d="M309.089 179.406V187.611C309.073 191.115 307.452 194.148 305.058 195.771C303.891 196.575 302.527 197.03 301.088 197.03H207.821C206.73 197.03 205.836 198.091 205.836 199.396V200.366C205.836 201.671 206.715 202.733 207.821 202.733H368.928C373.55 202.733 377.641 199.987 380.111 195.786C381.672 193.132 382.581 189.916 382.581 186.428V179.952C382.581 177.571 382.126 175.311 381.308 173.293C379.232 168.167 374.853 164.633 369.761 164.633H207.821C206.73 164.633 205.836 165.695 205.836 166.999V167.97C205.836 169.274 206.715 170.336 207.821 170.336H301.361C303.603 170.336 305.619 171.473 307.028 173.293C308.301 174.901 309.073 177.04 309.089 179.406Z" fill="#AFCDFB"/>
<path d="M205.852 199.396V200.366C205.852 201.671 206.73 202.733 207.837 202.733H368.943C373.565 202.733 377.656 199.987 380.126 195.786H305.074C303.907 196.59 302.543 197.045 301.103 197.045H207.821C206.73 197.03 205.852 198.091 205.852 199.396Z" fill="#A4C4F4"/>
<path d="M210.428 183.683L222.383 184.32L210.428 184.699V183.683Z" fill="#F4D2B8"/>
<path d="M210.428 174.916L238.87 175.553L210.428 175.933V174.916Z" fill="#F4D2B8"/>
<path d="M238.567 175.417C238.567 175.417 236.688 176.63 236.067 178.617C235.961 178.966 235.885 179.33 235.87 179.724C235.764 182.363 235.87 188.339 235.87 188.339L230.324 185.351L224.793 188.339V180.24C224.793 178.708 225.263 177.222 226.142 176.251C226.566 175.781 227.081 175.417 227.672 175.417H238.567Z" fill="#FB9E30"/>
<path d="M238.568 175.417C238.568 175.417 236.689 176.63 236.068 178.617L224.961 178.738C224.961 178.738 225.4 175.902 227.688 175.432H238.568V175.417Z" fill="#ED7D2B"/>
<path d="M97.0078 199.35C97.0078 199.35 114.373 206.919 117.525 206.782C120.677 206.646 140.088 200.867 140.088 200.867L139.588 204.204C139.588 204.204 124.601 212.834 119.359 213.319C114.206 213.804 96.5684 208.693 94.8561 207.601C93.1741 206.539 92.0528 200.442 97.0078 199.35Z" fill="#ED985F"/>
<path d="M94.4026 171.504C94.4026 171.504 87.9929 170.29 84.8108 172.611C79.0375 176.827 78.7192 191.388 76.5524 193.557C74.3855 195.725 69.1728 194.8 68.7031 206.024C68.2334 217.247 70.7791 218.188 67.7484 223.193C64.7178 228.198 69.0365 233.218 69.0365 233.218C69.0365 233.218 67.2787 230.458 68.0212 228.456C68.0212 228.456 68.7486 232.854 71.5519 233.901C74.3552 234.932 74.7643 235.69 75.2037 237.207C75.2037 237.207 99.0546 224.967 99.0849 216.292C99.1152 207.616 103.782 199.017 101.494 195.255C101.494 195.255 102.509 196.863 102.646 198.653C102.646 198.653 104.025 196.014 101.631 193.557C99.2516 191.099 104.434 186.019 103.661 180.134C103.131 176.115 100.297 171.686 94.4026 171.504Z" fill="#1D274B"/>
<path d="M99.1148 207.616C97.5843 208.678 95.6751 209.543 93.2809 210.104C84.28 212.182 80.8403 204.568 79.5371 199.35C80.7645 198.653 81.9161 198.486 82.5829 198.41C83.2344 198.334 83.9163 198.289 84.477 198.258C85.4922 197.485 86.9924 194.315 87.3258 189.386L87.75 189.492L94.8417 191.433C94.8417 191.433 94.5234 193.693 94.3568 195.816C94.2355 197.485 94.2204 199.077 94.5234 199.472C95.0841 199.593 95.4023 199.669 95.4023 199.669C95.5235 199.851 97.5843 203.248 99.1148 207.616Z" fill="#FFB27D"/>
<path d="M94.8553 191.448C94.8553 191.448 94.5219 193.708 94.3704 195.832C90.3548 195.422 88.491 191.6 87.7637 189.507L94.8553 191.448Z" fill="#ED985F"/>
<path d="M96.0548 193.572C96.0548 193.572 86.5236 193.041 86.9327 187.111C87.357 181.165 86.4024 177.1 92.509 177.191C98.6157 177.282 99.631 179.633 99.9795 181.635C100.328 183.653 98.5399 193.557 96.0548 193.572Z" fill="#FFB27D"/>
<path d="M99.9337 178.314C98.5851 176.418 97.4486 176.736 96.7819 177.222C91.7814 173.991 88.1295 177.98 88.1295 177.98C87.19 182.197 83.9473 184.411 83.9473 184.411C83.9473 184.411 85.5989 185.609 89.6751 184.866C90.9177 184.638 92.0693 183.85 93.0694 182.864C91.251 185.457 88.9175 187.262 88.9175 187.262C93.8573 185.397 96.2515 178.875 96.494 178.192C97.0395 178.754 98.1002 179.967 98.3729 181.104C98.7366 182.652 100.313 185.063 101.237 185.033C101.237 185.033 101.949 181.15 99.9337 178.314Z" fill="#1D274B"/>
<path d="M76.8258 227.03C75.9621 222.632 73.1588 205.023 75.9621 199.365C76.9773 197.333 80.9323 197.151 85.266 197.333C86.6146 198.213 91.7667 201.504 93.8729 201.095C93.8881 201.095 93.9335 201.079 93.9942 201.064C94.9943 200.822 95.3731 200.109 94.5397 199.517C94.5397 199.517 96.6914 199.305 99.3583 199.805C100.874 200.094 104.935 202.202 104.935 202.202C104.935 202.202 102.889 205.902 99.8735 207.176C100.389 211.772 99.6159 213.804 94.8579 224.421C90.8272 233.4 95.4034 241.484 95.4034 241.484C95.4034 241.484 71.6889 260.564 71.5677 250.842C71.4616 243.517 77.932 232.657 76.8258 227.03Z" fill="#F9DDBF"/>
<path d="M96.5698 262.217C97.8579 262.066 99.0246 261.368 99.7368 260.291C99.8581 260.124 99.9793 259.942 100.1 259.745C102.798 255.65 103.843 243.137 109.92 229.79C111.405 226.545 116.708 225.953 118.148 222.283C118.148 222.283 121.709 210.377 111.329 210.028C100.949 209.679 83.5383 243.137 83.2503 246.656C83.0079 250.053 76.4012 264.492 96.5698 262.217Z" fill="#DD6D22"/>
<path d="M137.816 261.944H123.042C123.042 261.944 122.496 259.594 123.466 257.986C124.33 256.56 123.996 255.756 123.36 254.588C124.027 254.861 124.89 255.119 125.845 255.059C126.587 255.013 127.36 254.679 128.042 254.285C128.678 255.013 131.406 258.092 132.255 258.714C133.224 259.396 137.528 259.138 137.816 261.944Z" fill="#1D274B"/>
<path d="M118.496 213.471C119.39 220.144 122.86 241.211 128.982 251.494C130.952 254.801 124.012 256.666 123.966 256.651C123.027 256.408 121.481 254.922 120.769 254.27C115.799 249.78 105.692 237.071 105.692 226.894C105.692 221.919 105.601 212.439 109.207 210.028C111.435 208.542 118.147 210.817 118.496 213.471Z" fill="#ED7D2B"/>
<path d="M87.7656 261.944C87.7656 261.944 88.3111 261.186 89.2657 259.73C90.4022 258.001 91.6599 254.619 93.1904 250.266C94.7966 245.701 96.6907 240.089 99.0697 234.25C99.7971 232.445 100.585 230.625 101.403 228.805C102.888 225.559 106.949 225.999 108.389 222.328C108.389 222.328 114.041 209.603 103.661 209.254C93.2813 208.906 73.5521 243.304 72.4307 246.641C71.1882 250.296 65.127 265.433 87.7656 261.944Z" fill="#FB9E30"/>
<path d="M126.982 261.944H112.208C112.208 261.944 111.662 259.594 112.632 257.986C113.496 256.56 113.162 255.756 112.526 254.588C113.193 254.861 114.056 255.119 115.011 255.059C115.753 255.013 116.526 254.679 117.208 254.285C117.845 255.013 120.572 258.092 121.421 258.714C122.375 259.396 126.679 259.138 126.982 261.944Z" fill="#3D4871"/>
<path d="M93.1744 250.281C94.7806 245.716 96.6747 240.104 99.0537 234.265C98.4325 229.836 97.099 225.968 94.8412 224.406C94.8563 224.406 89.3861 241.332 93.1744 250.281Z" fill="#ED7D2B"/>
<path d="M109.874 212.985C110.768 219.659 112.011 241.196 118.148 251.479C120.118 254.786 113.177 256.651 113.132 256.636C112.192 256.393 110.647 254.907 109.935 254.255C104.964 249.765 94.8574 237.055 94.8574 226.878C94.8574 221.904 100.676 212.819 104.298 210.407C106.51 208.936 109.526 210.346 109.874 212.985Z" fill="#FB9E30"/>
<path d="M97.8421 190.159C97.8421 190.159 96.9481 189.795 94.4023 190.007C94.4023 190.007 94.5387 190.993 96.4025 191.099C97.4633 191.145 97.8421 190.159 97.8421 190.159Z" fill="white"/>
<path d="M141.937 193.875L138.876 188.339L132.254 206.843L136.163 211.044L141.937 193.875Z" fill="#163560"/>
<path d="M125.95 197.121L119.783 214.73L136.164 211.044L141.937 193.875L125.95 197.121Z" fill="#1C468A"/>
<path d="M120.118 213.835L119.83 213.334L125.664 196.666L125.952 197.121L120.118 213.835Z" fill="#EFDECE"/>
<path d="M125.662 196.666L141.179 193.648L141.936 193.875L125.95 197.121L125.662 196.666Z" fill="#FCECDB"/>
<path d="M141.938 193.875L138.635 188.612L136.514 194.558L141.181 193.648L141.938 193.875Z" fill="#EFDECE"/>
<path d="M130.68 199.669C130.15 199.563 128.998 199.138 127.846 198.819C128.195 198.546 128.574 198.228 128.68 197.879C128.892 197.227 129.028 197.015 128.331 197.227C127.649 197.439 125.24 198.531 125.24 198.531C123.876 198.926 122.619 200.867 122.619 200.867C122.619 200.867 105.693 206.828 103.662 206.919C100.51 207.07 79.5386 199.35 79.5386 199.35C74.5836 200.442 75.7049 206.524 77.4021 207.616C79.0992 208.708 94.1916 214.184 103.132 214.29C107.663 214.335 124.134 203.749 124.134 203.749C124.134 203.749 126.058 202.869 127.574 203.142C129.089 203.415 132.589 203.142 133.347 201.898C134.12 200.655 131.574 199.836 130.68 199.669Z" fill="#FFB27D"/>
<path d="M90.3398 203.172C90.3398 203.172 88.4608 209.118 82.0208 210.468C82.0208 210.468 71.3834 207.192 76.6869 199.942C76.6869 199.927 81.9147 196.029 90.3398 203.172Z" fill="#F9DDBF"/>
<path d="M141.666 200.109C141.666 199.942 141.651 199.79 141.606 199.623C141.606 199.623 140.09 197.227 139.59 197.121C138.075 196.817 138.075 198.819 138.393 200.109C138.62 201.004 139.181 201.868 139.651 202.323L139.59 204.204C142.151 202.808 141.666 200.109 141.666 200.109Z" fill="#FFB27D"/>
<path d="M52.806 168.743C53.4121 153.758 40.8654 147.115 28.0459 147.115C15.2265 147.115 1.27057 150.437 0.0583278 170.351C-0.714476 183.167 6.10438 191.054 25.7578 191.054C32.3797 191.054 37.5317 190.007 41.4867 188.142L51.2907 196.878L46.4569 184.805C50.7452 180.816 52.5332 175.205 52.806 168.743Z" fill="#EBF3FA"/>
<path d="M309.679 123.789C310.224 110.093 298.769 104.011 287.04 104.011C275.312 104.011 262.553 107.044 261.447 125.26C260.734 136.969 266.977 144.188 284.934 144.188C290.995 144.188 295.708 143.233 299.314 141.519L308.3 149.512L303.89 138.47C307.8 134.83 309.436 129.704 309.679 123.789Z" fill="#F1F5F8"/>
<path d="M306.028 196.044C308.816 200.973 312.347 202.884 312.347 202.884L327.091 202.99C327.075 202.99 303.906 192.282 306.028 196.044Z" fill="#1D274B"/>
<path d="M317.09 234.083C317.469 234.523 317.515 235.023 317.318 235.539C316.954 236.509 315.787 237.586 314.439 238.663C314.272 238.8 314.105 238.921 313.984 239.042C313.954 239.073 313.908 239.103 313.878 239.133C313.848 239.164 313.817 239.179 313.802 239.209C312.529 240.362 313.014 240.635 310.726 242.971C308.135 245.64 306.362 245.67 305.847 245.428C305.422 245.215 306.301 243.805 307.271 242.212C307.317 242.136 307.362 242.06 307.407 241.985C307.544 241.772 307.665 241.56 307.801 241.348C308.938 239.437 308.665 238.527 308.408 235.66C308.211 233.324 304.877 222.632 304.877 222.632L309.817 221.813C309.817 221.813 311.241 230.321 312.878 231.656C313.757 232.354 314.726 232.369 315.575 232.9C315.636 232.93 315.696 232.975 315.757 233.006C316.211 233.309 316.696 233.643 317.09 234.083Z" fill="#FFB27D"/>
<path d="M317.091 234.083C317.47 234.522 317.515 235.023 317.318 235.539C316.879 236.509 315.742 237.586 314.424 238.648C314.257 238.784 314.106 238.921 313.969 239.042C313.939 239.073 313.894 239.103 313.863 239.133C313.833 239.164 313.803 239.179 313.788 239.209C312.515 240.362 313 240.635 310.711 242.97C308.12 245.64 306.347 245.67 305.832 245.428C305.408 245.215 306.287 243.805 307.257 242.212C307.757 242.03 310.09 241.105 311.878 238.86C313.439 236.889 314.5 234.356 315.56 232.884C315.621 232.915 315.682 232.96 315.742 232.991C316.212 233.309 316.697 233.643 317.091 234.083Z" fill="#1D274B"/>
<path d="M277.285 230.716C276.966 232.232 274.799 231.974 272.375 231.353C269.95 230.746 270.526 231.459 267.071 231.049C263.617 230.64 262.586 229.351 262.48 228.835C262.389 228.38 264.101 228.228 265.935 228.031C266.162 228.001 266.39 227.986 266.632 227.955C268.708 227.713 270.223 226.393 272.117 225.301C273.905 224.27 276.587 220.068 276.587 220.068L281.33 220.478C281.33 220.478 278.815 224.239 277.845 225.877C277.269 226.833 277.3 228.122 277.36 229.108C277.36 229.639 277.406 230.185 277.285 230.716Z" fill="#FFB27D"/>
<path d="M272.375 231.368C269.95 230.761 270.526 231.474 267.071 231.064C263.617 230.655 262.586 229.366 262.48 228.85C262.389 228.395 264.101 228.243 265.935 228.046L265.95 228.077C265.95 228.077 268.011 229.563 270.89 229.654C273.239 229.73 275.724 229.078 277.345 229.108C277.375 229.639 277.406 230.2 277.3 230.731C276.966 232.247 274.799 231.974 272.375 231.368Z" fill="#1D274B"/>
<path d="M295.666 200.518L300.015 212.485L305.682 228.107C305.682 228.107 307.243 228.274 308.758 227.849C310.137 227.455 311.743 226.423 311.743 226.423C311.743 226.423 310.258 209.694 307.334 200.063C306.576 197.591 305.743 195.589 304.803 194.467C300.182 188.931 295.666 200.518 295.666 200.518Z" fill="#1D274B"/>
<path d="M300.302 181.605C303.211 180.695 311.485 181.954 319.774 183.637L321.531 180.771L339.503 179.497C339.503 179.497 345.337 192.692 342.033 201.049C341.548 202.278 340.367 202.793 338.745 202.808C338.745 202.808 328.032 202.99 324.562 202.975C315.637 202.915 305.712 196.696 304.424 196.423C302.317 195.983 301.438 200.2 299.302 204.628C297.165 209.057 279.315 224.133 279.315 224.133C279.315 224.133 276.587 224.148 275.466 223.708C274.254 223.238 273.814 222.647 273.814 222.647C273.814 222.647 293.741 183.668 300.302 181.605Z" fill="#3D4871"/>
<path d="M321.819 156.018C328.183 159.583 341.109 166.984 341.185 166.939C341.185 166.939 345.943 168.774 348.655 166.984C353.186 164.026 355.656 155.973 347.458 148.966C343.367 145.477 340.457 144.613 340.048 139.077C339.836 136.074 335.805 126.155 328.986 127.019C328.411 127.095 327.85 127.14 327.274 127.125C326.486 127.095 325.168 127.201 323.819 127.99C319.94 130.28 312.242 154.593 321.819 156.018Z" fill="#1D274B"/>
<path d="M327.199 153.061C327.169 153.076 330.336 154.183 332.472 153.258C334.473 152.393 336.018 149.117 335.988 149.102C335.079 149.057 334.094 148.253 333.351 143.035L332.957 143.172L326.441 145.462C326.441 145.462 326.896 147.555 327.184 149.542C327.426 151.226 327.548 152.833 327.199 153.061Z" fill="#FFB27D"/>
<path d="M326.441 145.477C326.441 145.477 326.714 146.948 327.108 149.042C330.851 148.389 332.427 145.204 332.957 143.187L326.441 145.477Z" fill="#ED975D"/>
<path d="M325.456 147.54C325.456 147.54 334.366 146.402 333.578 140.867C332.79 135.331 333.412 131.448 327.684 131.933C321.971 132.419 321.168 134.694 320.971 136.605C320.789 138.531 323.108 147.692 325.456 147.54Z" fill="#FFB27D"/>
<path d="M321.318 133.586C321.318 133.586 326.986 138.546 330.85 138.971C334.729 139.395 336.199 138.167 336.199 138.167C336.199 138.167 333.926 136.256 332.577 133.177C332.183 132.267 331.319 131.645 330.35 131.554C327.577 131.281 322.334 131.129 321.318 133.586Z" fill="#1D274B"/>
<path d="M324.881 133.162C324.881 133.162 322.956 134.997 322.35 136.362C321.759 137.681 321.562 140.836 322.017 142.095C322.017 142.095 319.092 136.301 320.789 133.495C322.593 130.523 324.881 133.162 324.881 133.162Z" fill="#1D274B"/>
<path d="M319.606 166.135C319.742 184.168 319.576 180.392 321.53 182.121C322 182.53 323.333 182.788 325.091 182.925C330.607 183.334 340.32 182.485 340.699 181.468C342.002 177.95 341.108 176.843 342.214 171.428C342.335 170.852 342.472 170.23 342.638 169.547C343.548 165.831 344.426 164.572 341.32 158.582C338.502 153.152 335.577 148.738 335.304 148.89C327.743 153.303 327.167 149.542 327.167 149.542C327.167 149.542 319.545 157.338 319.606 166.135Z" fill="#F9DDBF"/>
<path d="M300 212.485L305.667 228.107C305.667 228.107 307.228 228.274 308.743 227.849C310.122 227.455 311.728 226.423 311.728 226.423C311.728 226.423 310.243 209.694 307.319 200.063L300 212.485Z" fill="#3D4871"/>
<path d="M327.184 149.557C327.184 149.557 319.441 150.816 318.501 154.153C317.562 157.49 312.076 177.055 312.076 177.055C312.076 177.055 316.001 177.783 317.834 175.978C319.668 174.173 324.274 159.143 324.274 159.143L327.184 149.557Z" fill="#F9DDBF"/>
<path d="M325.107 182.909C330.623 183.319 340.336 182.47 340.715 181.453C342.018 177.935 341.124 176.827 342.23 171.413L339.624 163.89C339.624 163.89 340.003 172.247 337.533 174.431C335.063 176.615 327.411 178.602 326.214 180.437C325.607 181.332 325.213 182.212 325.107 182.909Z" fill="#F2CCAA"/>
<path d="M331.457 179.451C331.457 179.451 326.017 178.192 325.138 178.678C324.26 179.163 322.093 180.907 321.82 181.514C321.547 182.121 323.775 181.059 324.502 180.877C324.972 180.756 326.199 181.195 326.82 181.408C329.381 182.287 330.972 181.848 330.972 181.848L331.457 179.451Z" fill="#FFB27D"/>
<path d="M335.32 148.905C335.32 148.905 342.638 149.406 345.139 152.955C348.669 157.96 355.594 179.224 351.518 182.014C346.927 185.169 330.743 182.697 330.743 182.697C330.743 182.697 330.228 180.164 330.986 178.951C331.743 177.737 343.957 175.857 344.517 175.296C345.078 174.734 337.562 164.254 337.577 162.57C337.577 160.887 335.32 148.905 335.32 148.905Z" fill="#F9DDBF"/>
<path d="M324.865 180.179C324.865 180.179 323.713 181.65 323.334 181.817C322.955 181.984 322.713 181.939 322.713 181.939L323.486 180.558L324.865 180.179Z" fill="#FFB27D"/>
<path d="M325.138 178.663L321.805 180.255C321.805 180.255 321.941 180.483 322.35 180.467C322.759 180.452 323.79 180.088 323.79 180.088L325.138 178.663Z" fill="#FFB27D"/>
<path d="M324.048 184.199L297.788 184.017L290.029 164.299L316.244 164.481L324.048 184.199Z" fill="#FB9E30"/>
<path d="M297.484 183.243L332.154 183.501V184.259L297.787 184.017L297.484 183.243Z" fill="#ED7D2B"/>
<path d="M304.485 174.234C304.288 173.536 304.697 172.99 305.379 172.99C306.076 172.99 306.788 173.566 306.985 174.249C307.182 174.947 306.773 175.493 306.091 175.493C305.409 175.493 304.682 174.932 304.485 174.234Z" fill="white"/>
<path d="M164.462 246.234L164.459 262.114L244.24 262.129L244.243 246.249L164.462 246.234Z" fill="#C65447"/>
<path d="M164.454 262.111L152.725 257.091L145.906 254.164L152.892 251.176L164.454 246.231C164.454 246.231 165.999 250.099 166.014 253.739C166.06 259.442 164.454 262.111 164.454 262.111Z" fill="#FCECDB"/>
<path d="M253.523 251.525V256.545C253.523 259.639 251.023 262.142 247.932 262.126H244.234V246.247H248.25C251.159 246.262 253.523 248.613 253.523 251.525Z" fill="#FCECDB"/>
<path d="M152.892 251.191C153.18 252.799 153.437 255.256 152.725 257.091L145.906 254.164L152.892 251.191Z" fill="#3D4871"/>
<path d="M181.605 163.587C181.605 163.587 183.03 169.79 187.197 169.79C190.773 169.79 195.667 161.706 195.667 161.706L181.605 163.587Z" fill="#FB9E30"/>
<path d="M229.444 255.256L226.762 257.091C226.762 257.091 213.897 243.365 210.791 230.2C210.23 227.849 210.018 225.528 210.246 223.329C210.246 223.329 210.064 222.738 209.73 221.676C209.715 221.631 209.7 221.585 209.685 221.54C209.549 221.085 209.367 220.539 209.17 219.917C208.548 217.93 207.685 215.2 206.715 212.106C204.472 204.977 199.32 188.885 197.123 182.196L212.928 176.479C212.928 176.479 214.716 180.574 217.307 191.706C217.701 193.162 218.095 194.77 218.474 196.514C218.898 198.501 219.292 200.67 219.61 203.006C220.171 206.979 220.534 211.438 220.565 216.337C220.58 218.324 220.519 220.402 220.413 222.525C220.322 224.088 220.565 226.166 220.989 228.547C222.974 239.391 229.444 255.256 229.444 255.256Z" fill="#3D4871"/>
<path d="M237.855 261.869H225.081C225.081 261.869 224.596 259.836 225.445 258.441C226.187 257.212 225.9 256.515 225.354 255.498C225.93 255.741 226.688 255.953 227.506 255.908C228.142 255.878 228.809 255.589 229.4 255.241C229.945 255.862 232.309 258.532 233.037 259.063C233.87 259.669 237.598 259.457 237.855 261.869Z" fill="#1D274B"/>
<path d="M219.61 203.021L209.685 221.54C209.549 221.085 209.367 220.539 209.17 219.917C208.548 217.93 207.685 215.2 206.715 212.106C204.472 204.977 199.32 188.885 197.123 182.196L212.928 176.479C212.928 176.479 214.716 180.574 217.307 191.706C217.701 193.162 218.095 194.77 218.474 196.514C218.883 198.516 219.277 200.685 219.61 203.021Z" fill="#1D274B"/>
<path d="M196.865 257.88C196.865 257.88 195.987 260.048 196.82 261.884H203.775C203.775 261.884 203.927 260.23 201.396 258.319C199.472 256.863 196.865 257.88 196.865 257.88Z" fill="#1D274B"/>
<path d="M204.427 116.493C204.427 116.144 204.609 112.413 210.276 112.08C210.276 112.08 207.488 112.474 207.048 113.718C207.048 113.718 208.912 112.155 210.473 112.61C212.034 113.065 213.003 115.75 213.034 116.645C213.064 117.54 212.276 120.437 211.306 120.694C210.943 120.801 210.503 120.785 210.124 120.725C210.397 121.119 210.655 121.574 210.912 122.075C213.291 126.67 211.246 132.085 209.306 131.63C208.063 131.342 207.321 133.48 207.321 133.48L195.426 123.243C195.411 123.243 199.578 114.051 204.427 116.493Z" fill="#2C3A64"/>
<path d="M196.957 147.601C198.275 148.511 199.927 149.269 202.003 149.754C209.776 151.559 212.762 144.977 213.883 140.457C212.822 139.85 211.822 139.714 211.246 139.653C210.686 139.592 210.095 139.547 209.61 139.517C208.731 138.849 207.428 136.104 207.14 131.857L206.776 131.948L200.639 133.632C200.639 133.632 200.927 135.588 201.063 137.424C201.17 138.864 201.185 140.245 200.912 140.578C200.427 140.685 200.139 140.745 200.139 140.745C200.063 140.882 198.275 143.809 196.957 147.601Z" fill="#FFB27D"/>
<path d="M200.639 133.617C200.639 133.617 200.927 135.573 201.063 137.408C204.533 137.06 206.154 133.753 206.776 131.933L200.639 133.617Z" fill="#ED985F"/>
<path d="M200.563 136.544C200.563 136.544 208.563 134.481 207.2 129.522C205.836 124.562 205.957 120.952 200.805 122.044C195.638 123.152 195.168 125.32 195.214 127.08C195.259 128.839 198.456 136.953 200.563 136.544Z" fill="#FFB27D"/>
<path d="M194.698 124.259C195.517 122.423 196.532 122.499 197.184 122.803C200.881 119.208 204.654 121.984 204.654 121.984C206.169 125.396 209.291 126.731 209.291 126.731C209.291 126.731 208.079 128.02 204.502 128.081C203.411 128.096 202.29 127.626 201.275 126.958C203.245 128.854 205.548 129.992 205.548 129.992C201.048 129.249 197.911 124.122 197.593 123.576C197.229 124.153 196.532 125.366 196.486 126.367C196.441 127.747 196.971 130.386 196.183 130.507C196.199 130.507 193.471 127.004 194.698 124.259Z" fill="#2C3A64"/>
<path d="M198.275 140.32C198.275 140.32 211.7 137.06 217.549 141.883L214.625 182.621L188.35 176.266C188.35 176.266 189.092 173.688 194.123 166.832C199.169 159.977 196.972 149.921 198.275 140.32Z" fill="#FFB27D"/>
<path d="M206.095 178.086C206.095 178.086 206.08 178.223 206.049 178.481C206.034 178.587 206.019 178.723 206.004 178.89C205.898 179.952 205.67 181.969 205.398 184.608C204.67 191.524 203.549 202.611 202.776 211.378C202.17 218.233 201.791 223.648 202.003 224.512C202.625 227.136 202.003 258.441 202.003 258.441C199.776 259.518 196.382 258.441 196.382 258.441C196.382 258.441 190.442 230.23 191.26 226.302C192.093 222.374 190.699 219.037 190.699 219.037C186.078 197.515 186.593 185.579 187.502 179.876C187.775 178.208 188.078 177.085 188.29 176.388C188.472 175.796 188.608 175.523 188.608 175.523C198.821 172.793 206.095 178.086 206.095 178.086Z" fill="#3D4871"/>
<path d="M219.353 153.501C218.702 158.4 216.111 164.406 215.186 167.636C215.186 167.636 216.732 178.845 215.262 181.923C215.095 182.272 214.883 182.515 214.626 182.636C209.155 185.018 187.82 182.712 186.911 175.811C186.577 173.309 195.033 164.512 195.533 163.435C195.745 162.995 195.957 161.554 194.957 158.597C193.548 162.934 185.805 161.691 185.805 161.691C186.714 160.129 188.987 149.345 191.517 144.476C193.427 140.821 198.503 140.29 198.503 140.29C198.503 140.29 200.624 143.642 205.731 143.172C210.853 142.702 211.777 139.562 211.777 139.562C211.777 139.562 216.308 140.169 217.717 141.291C217.959 141.488 220.202 147.085 219.353 153.501Z" fill="#FB9E30"/>
<path d="M215.185 167.636C215.185 167.636 216.731 178.845 215.261 181.923C211.276 179.921 208.124 174.492 208.851 168.455C209.381 163.996 210.184 162.965 212.579 160.417C214.336 158.536 218.382 158.43 218.064 159.325C217.109 161.979 215.67 165.922 215.185 167.636Z" fill="#ED7D2B"/>
<path d="M198.517 154.38L207.67 169.062H192.108L183.395 154.699L198.517 154.38Z" fill="#1C468A"/>
<path d="M207.2 168.319L207.352 167.803L198.699 153.91L198.518 154.38L207.2 168.319Z" fill="#EFDECE"/>
<path d="M198.699 153.91L184.031 154.335L183.395 154.699L198.517 154.38L198.699 153.91Z" fill="#FCECDB"/>
<path d="M183.394 154.699L175.166 150.24L184.758 165.3L192.107 169.062L183.394 154.699Z" fill="#163560"/>
<path d="M226.913 164.982C226.035 165.391 223.777 168.046 222.959 168.319C219.337 169.532 203.881 166.302 203.881 166.302L204.366 163.587C204.366 163.587 219.519 163.996 221.186 163.541C221.504 163.45 223.14 160.887 223.762 160.523L226.913 164.982Z" fill="#FFB27D"/>
<path d="M204.365 163.602C204.365 163.602 202.532 162.115 201.304 162.449C200.062 162.783 198.258 164.345 197.577 164.724C196.895 165.088 195.061 166.423 196.001 167.227C196.925 168.031 199.819 167.333 200.971 166.726C202.122 166.119 203.895 166.317 203.895 166.317L204.365 163.602Z" fill="#FFB27D"/>
<path d="M201.653 162.388C201.653 162.388 199.426 162.131 198.82 162.131C198.214 162.146 198.38 162.282 198.714 162.752C199.047 163.223 200.199 163.405 200.259 163.571C200.32 163.738 201.653 162.388 201.653 162.388Z" fill="#FFB27D"/>
<path d="M211.775 139.547C211.775 139.547 218.367 140.336 220.17 143.157C222.458 146.736 227.883 160.978 227.701 164.557C227.701 164.557 223.746 171.291 210.169 170.215C210.169 170.215 208.76 165.225 211.608 163.571C211.608 163.571 218.579 162.328 219.382 161.63L213.7 151.286L211.775 139.547Z" fill="#FB9E30"/>
<path d="M185.501 160.068C185.304 159.234 183.486 159.749 182.88 160.235C182.728 160.356 182.577 160.553 182.41 160.781C182.395 160.644 182.38 160.508 182.364 160.402C182.334 160.007 181.88 159.31 181.758 159.84C181.652 160.371 181.455 162.555 181.455 162.555C181.44 164.33 182.577 165.058 183.304 164.481C184.031 163.905 185.698 160.887 185.501 160.068Z" fill="#FFB27D"/>
</g>
<defs>
<clipPath id="clip0_96_13464">
<path d="M0 0H359V214C359 236.627 359 247.941 351.971 254.971C344.941 262 333.627 262 311 262H0V0Z" fill="white"/>
</clipPath>
</defs>
</svg>
